<svg xmlns="http://www.w3.org/2000/svg" width="1726" height="733" viewBox="0 0 1726 733"><g fill="none" fill-rule="evenodd"><polygon fill="#FFF" points="42.792 729.427 28.096 729.427 28.096 658.894 0 658.894 0 646.194 70.771 646.194 70.771 658.894 42.792 658.894"/><polygon fill="#FFF" points="81 646.195 95.458 646.195 95.458 679.349 135.191 679.349 135.191 646.195 149.533 646.195 149.533 729.428 135.191 729.428 135.191 692.161 95.458 692.161 95.458 729.428 81 729.428 81 646.195"/><polygon fill="#FFF" points="169.641 646.195 218.074 646.195 218.074 659.012 183.866 659.012 183.866 679.462 213.253 679.462 213.253 692.162 183.866 692.162 183.866 716.495 218.662 716.495 218.662 729.428 169.641 729.428 169.641 646.195"/><path fill="#FFF" fill-rule="nonzero" d="M290.021,716.142 C311.296,716.142 323.054,704.975 323.054,687.813 C323.054,670.534 311.296,659.48 290.021,659.48 L282.496,659.48 L282.496,716.143 L290.021,716.143 L290.021,716.142 Z M268.038,646.196 L288.138,646.196 C320.234,646.196 337.984,662.892 337.984,687.813 C337.984,703.209 330.93,715.438 317.413,723.196 C308.592,728.25 299.309,729.429 288.138,729.429 L268.038,729.429 L268.038,646.196 L268.038,646.196 Z"/><polygon fill="#FFF" points="352.33 646.195 400.763 646.195 400.763 659.012 366.555 659.012 366.555 679.462 395.942 679.462 395.942 692.162 366.555 692.162 366.555 716.495 401.351 716.495 401.351 729.428 352.33 729.428 352.33 646.195"/><polygon fill="#FFF" points="417.576 643.494 419.105 643.494 472.709 699.098 472.709 646.194 486.934 646.194 486.934 732.127 485.405 732.127 431.68 676.527 431.68 729.427 417.576 729.427"/><polygon fill="#FFF" points="532.784 732.837 495.046 646.195 510.567 646.195 533.842 700.862 557.117 646.195 571.813 646.195 533.959 732.837"/><polygon fill="#FFF" points="579.927 646.195 628.36 646.195 628.36 659.012 594.152 659.012 594.152 679.462 623.544 679.462 623.544 692.162 594.152 692.162 594.152 716.495 628.952 716.495 628.952 729.428 579.927 729.428 579.927 646.195"/><path fill="#FFF" fill-rule="nonzero" d="M666.219,684.167 C679.152,684.167 685.615,679.35 685.615,670.884 C685.615,661.713 678.677,658.067 664.923,658.067 L659.519,658.067 L659.519,684.167 L666.219,684.167 Z M645.173,646.196 L664.452,646.196 C675.035,646.196 683.264,646.904 690.431,651.959 C696.664,656.309 700.189,662.892 700.189,669.709 C700.189,680.638 693.727,688.871 681.968,692.867 L708.889,729.425 L691.843,729.425 L666.568,694.863 L659.518,694.863 L659.518,729.425 L645.172,729.425 L645.172,646.196 L645.173,646.196 Z"/><path fill="#FFF" d="M770.61,719.434 C779.664,719.434 785.306,714.38 785.306,707.797 C785.306,701.568 781.427,697.572 773.081,692.63 L766.852,688.872 C755.331,682.051 749.331,675.589 749.331,665.36 C749.331,652.548 759.327,643.377 774.61,643.377 C781.898,643.377 788.597,645.027 795.531,648.431 L795.064,661.714 C787.306,657.485 780.956,655.131 775.668,655.131 C767.789,655.131 763.322,659.014 763.322,664.656 C763.322,669.827 767.085,673.118 774.722,677.585 L780.722,681.114 C793.418,688.635 800.001,695.922 800.001,707.443 C800.001,721.906 789.184,732.247 771.318,732.247 C763.439,732.247 755.797,730.605 748.864,727.314 L747.572,710.972 C756.151,716.497 763.56,719.434 770.61,719.434"/><polygon fill="#FFF" points="815.401 646.195 829.863 646.195 829.863 679.349 869.596 679.349 869.596 646.195 883.938 646.195 883.938 729.428 869.596 729.428 869.596 692.161 829.863 692.161 829.863 729.428 815.401 729.428 815.401 646.195"/><path fill="#FFF" fill-rule="nonzero" d="M945.776 702.742 932.255 671.709 918.501 702.742 945.776 702.742ZM891.464 729.425 932.372 643.492 933.547 643.492 973.047 729.425 957.647 729.425 950.947 714.617 913.093 714.617 906.276 729.425 891.464 729.425 891.464 729.425ZM1002.673 716.142C1023.948 716.142 1035.706 704.975 1035.706 687.813 1035.706 670.534 1023.948 659.48 1002.673 659.48L995.148 659.48 995.148 716.143 1002.673 716.143 1002.673 716.142ZM980.69 646.196 1000.794 646.196C1032.886 646.196 1050.636 662.892 1050.636 687.813 1050.636 703.209 1043.582 715.438 1030.061 723.196 1021.249 728.25 1011.961 729.429 1000.794 729.429L980.69 729.429 980.69 646.196 980.69 646.196Z"/><polygon fill="#FFF" points="1064.982 646.195 1113.415 646.195 1113.415 659.012 1079.207 659.012 1079.207 679.462 1108.599 679.462 1108.599 692.162 1079.207 692.162 1079.207 716.495 1114.007 716.495 1114.007 729.428 1064.982 729.428 1064.982 646.195"/><path fill="#FFF" d="M1199.589,732.129 C1190.068,732.129 1181.014,728.954 1173.727,723.079 C1163.498,714.854 1157.623,702.387 1157.623,687.812 C1157.623,662.187 1175.844,643.374 1199.94,643.374 C1208.757,643.374 1216.752,645.961 1224.394,651.253 L1222.865,667.474 C1216.282,660.42 1209.111,656.891 1200.882,656.891 C1184.661,656.891 1172.669,669.358 1172.669,687.695 C1172.669,705.212 1184.069,717.907 1200.057,717.907 C1209.349,717.907 1217.34,713.795 1225.453,705.561 L1224.628,724.019 C1217.224,729.307 1208.641,732.127 1199.591,732.127"/><path fill="#FFF" fill-rule="nonzero" d="M1274.825,718.026 C1289.521,718.026 1301.279,705.326 1301.279,687.814 C1301.279,670.181 1289.637,657.601 1274.825,657.601 C1260.013,657.601 1248.496,670.297 1248.496,687.814 C1248.496,705.214 1260.134,718.026 1274.825,718.026 M1242.029,660.422 C1249.9,649.605 1262.012,643.493 1274.825,643.493 C1285.758,643.493 1296.338,647.96 1304.096,656.189 C1311.975,664.535 1316.208,675.468 1316.208,687.814 C1316.208,700.156 1311.975,711.089 1304.096,719.314 C1296.221,727.547 1285.759,732.131 1274.825,732.131 C1263.892,732.131 1253.546,727.664 1245.671,719.435 C1237.679,711.089 1233.446,700.272 1233.446,687.814 C1233.446,677.468 1236.384,668.181 1242.029,660.422"/><polygon fill="#FFF" points="1340.897 643.494 1341.839 643.494 1371.576 704.386 1401.205 643.494 1402.143 643.494 1419.072 729.427 1404.726 729.427 1395.676 682.406 1372.168 732.248 1370.872 732.248 1346.422 682.406 1337.368 729.427 1323.851 729.427"/><path fill="#FFF" fill-rule="nonzero" d="M1453.637 684.64C1466.57 684.64 1473.033 679.819 1473.033 671.353 1473.033 662.186 1466.095 658.541 1452.345 658.541L1447.053 658.541 1447.053 684.641 1453.636 684.641 1453.637 684.64ZM1432.591 646.194 1451.87 646.194C1462.57 646.194 1470.799 647.14 1477.853 652.194 1484.082 656.661 1487.607 663.594 1487.607 670.769 1487.607 686.756 1475.386 696.981 1453.282 696.981L1447.053 696.981 1447.053 729.427 1432.59 729.427 1432.59 646.194 1432.591 646.194ZM1535.502 702.742 1521.981 671.709 1508.227 702.742 1535.502 702.742 1535.502 702.742ZM1481.19 729.425 1522.098 643.492 1523.273 643.492 1562.773 729.425 1547.377 729.425 1540.673 714.617 1502.819 714.617 1495.998 729.425 1481.19 729.425Z"/><polygon fill="#FFF" points="1570.414 643.494 1571.943 643.494 1625.547 699.098 1625.547 646.194 1639.772 646.194 1639.772 732.127 1638.243 732.127 1584.522 676.527 1584.522 729.427 1570.414 729.427"/><polygon fill="#FFF" points="1677.042 691.573 1646.125 646.194 1663.288 646.194 1685.392 679.115 1709.371 646.194 1725.125 646.194 1691.738 691.336 1691.738 729.428 1677.042 729.428 1677.042 691.574"/><rect width="433.333" height="33.333" x="645.13" fill="#00AFDB"/><rect width="433.333" height="33.333" x="645.13" y="83.333" fill="#00AFDB"/><rect width="433.333" height="33.333" x="645.13" y="166.667" fill="#00AFDB"/><rect width="433.333" height="33.333" x="645.13" y="250" fill="#00AFDB"/><rect width="433.333" height="33.333" x="645.13" y="333.333" fill="#00AFDB"/><rect width="433.333" height="33.333" x="645.13" y="416.667" fill="#00AFDB"/></g></svg>