<svg xmlns="http://www.w3.org/2000/svg" width="80" height="105" viewBox="0 0 80 105"><g fill="#FFF" fill-rule="evenodd"><rect width="6" height="105" opacity=".75"/><rect width="6" height="105" x="12" opacity=".75"/><rect width="6" height="105" x="24" opacity=".75"/><rect width="6" height="105" x="36" opacity=".75"/><path d="M44,37.3408203 C47.624349,35.0598958 52.2486979,35.4763997 57.8730469,38.590332 C63.4973958,41.7042643 65.890625,46.3408203 65.0527344,52.5 L65.091,52.1972713 L65.0982953,52.2548198 C65.7955306,58.2346913 63.3871145,62.7510645 57.8730469,65.8039393 C52.2486979,68.9178716 47.624349,69.3343755 44,67.053451 Z"/><rect width="13" height="2" x="67" y="51"/><rect width="13" height="2" x="59.824" y="68.324" transform="rotate(45 66.324 69.324)"/><rect width="13" height="2" x="42.5" y="75.5" transform="rotate(90 49 76.5)"/><rect width="13" height="2" x="42.5" y="26.5" transform="rotate(-90 49 27.5)"/><rect width="13" height="2" x="59.824" y="33.676" transform="rotate(-45 66.324 34.676)"/><rect width="9" height="2" x="65.973" y="43.036" transform="rotate(-23 70.473 44.036)"/><rect width="9" height="2" x="66.137" y="59.787" transform="rotate(22 70.637 60.787)"/><rect width="9" height="2" x="52.993" y="73.162" transform="rotate(67 57.493 74.162)"/><rect width="9" height="2" x="53.598" y="30.893" transform="rotate(-68 58.098 31.893)"/></g></svg>