<svg xmlns="http://www.w3.org/2000/svg" width="308" height="34" viewBox="0 0 308 34"><g fill="none" fill-rule="evenodd"><polygon fill="#FFF" points="49.917 23.713 47.663 23.713 47.663 13.027 43.353 13.027 43.353 11.104 54.209 11.104 54.209 13.027 49.917 13.027"/><polygon fill="#FFF" points="55.779 11.104 57.997 11.104 57.997 16.125 64.092 16.125 64.092 11.104 66.292 11.104 66.292 23.712 64.092 23.712 64.092 18.067 57.997 18.067 57.997 23.712 55.779 23.712"/><polygon fill="#FFF" points="69.377 11.104 76.806 11.104 76.806 13.045 71.559 13.045 71.559 16.144 76.067 16.144 76.067 18.067 71.559 18.067 71.559 21.753 76.897 21.753 76.897 23.712 69.377 23.712"/><path fill="#FFF" d="M87.8438718,21.6999644 C91.107876,21.6999644 92.9112383,20.0076871 92.9112383,17.4081612 C92.9112383,14.7905037 91.107876,13.1163579 87.8438718,13.1163579 L86.6899103,13.1163579 L86.6899103,21.6999644 L87.8438718,21.6999644 Z M84.4717475,11.1037567 L87.5555514,11.1037567 C92.4780777,11.1037567 95.2014812,13.6327711 95.2014812,17.4081612 C95.2014812,19.7410863 94.1195998,21.5931898 92.0455971,22.7690539 C90.6930754,23.5339364 89.2684736,23.7125657 87.5555514,23.7125657 L84.4717475,23.7125657 L84.4717475,11.1037567 Z"/><polygon fill="#FFF" points="97.403 11.104 104.832 11.104 104.832 13.045 99.584 13.045 99.584 16.144 104.093 16.144 104.093 18.067 99.584 18.067 99.584 21.753 104.923 21.753 104.923 23.712 97.403 23.712"/><polygon fill="#FFF" points="107.412 10.694 107.647 10.694 115.87 19.118 115.87 11.103 118.052 11.103 118.052 24.122 117.818 24.122 109.576 15.699 109.576 23.713 107.412 23.713"/><polygon fill="#FFF" points="125.086 24.229 119.297 11.103 121.678 11.103 125.248 19.385 128.819 11.103 131.073 11.103 125.266 24.229"/><polygon fill="#FFF" points="132.318 11.104 139.748 11.104 139.748 13.045 134.5 13.045 134.5 16.144 139.008 16.144 139.008 18.067 134.5 18.067 134.5 21.753 139.838 21.753 139.838 23.712 132.318 23.712"/><path fill="#FFF" d="M145.555341 16.8562236C147.538904 16.8562236 148.531025 16.1255896 148.531025 14.8436224 148.531025 13.4548805 147.466824 12.9022042 145.356781 12.9022042L144.52786 12.9022042 144.52786 16.8562236 145.555341 16.8562236ZM142.327377 11.1038238 145.285381 11.1038238C146.907863 11.1038238 148.170625 11.2105985 149.270186 11.9761525 150.226267 12.6356034 150.766868 13.6328382 150.766868 14.6656646 150.766868 16.3216788 149.775427 17.5687261 147.972064 18.1737823L152.10171 23.7126328 149.487106 23.7126328 145.609741 18.4766463 144.52786 18.4766463 144.52786 23.7126328 142.327377 23.7126328 142.327377 11.1038238ZM161.570518 22.1990519C162.959079 22.1990519 163.824041 21.4328264 163.824041 20.4355915 163.824041 19.4920798 163.22904 18.886352 161.949278 18.1382579L160.993197 17.5687932C159.225875 16.5352953 158.305833 15.5555204 158.305833 14.0069524 158.305833 12.0655343 159.839235 10.6767924 162.183198 10.6767924 163.3018 10.6767924 164.329961 10.9259332 165.393483 11.4416749L165.321402 13.4549477C164.131401 12.8129567 163.15696 12.4570413 162.345719 12.4570413 161.137357 12.4570413 160.451916 13.0446376 160.451916 13.9001778 160.451916 14.6838633 161.029237 15.182145 162.201558 15.8590559L163.12092 16.3936006C165.069122 17.5332017 166.078923 18.6365396 166.078923 20.38254 166.078923 22.573099 164.419041 24.1404701 161.678638 24.1404701 160.470276 24.1404701 159.297955 23.8913293 158.233753 23.3917045L158.035873 20.9164132C159.351675 21.7538218 160.487956 22.1990519 161.570518 22.1990519"/><polygon fill="#FFF" points="168.442 11.104 170.66 11.104 170.66 16.125 176.755 16.125 176.755 11.104 178.955 11.104 178.955 23.712 176.755 23.712 176.755 18.067 170.66 18.067 170.66 23.712 168.442 23.712"/><path fill="#FFF" d="M188.44184 19.670239 186.367837 14.9681256 184.258475 19.670239 188.44184 19.670239ZM180.110469 23.7129014 186.386197 10.6944539 186.566397 10.6944539 192.625205 23.7129014 190.263562 23.7129014 189.235401 21.4686194 183.428873 21.4686194 182.383032 23.7129014 180.110469 23.7129014ZM197.170943 21.6999644C200.434947 21.6999644 202.238309 20.0076871 202.238309 17.4081612 202.238309 14.7905037 200.434947 13.1163579 197.170943 13.1163579L196.016981 13.1163579 196.016981 21.6999644 197.170943 21.6999644ZM193.798819 11.1037567 196.881943 11.1037567C201.805829 11.1037567 204.528552 13.6327711 204.528552 17.4081612 204.528552 19.7410863 203.446671 21.5931898 201.372668 22.7690539 200.020827 23.5339364 198.595545 23.7125657 196.881943 23.7125657L193.798819 23.7125657 193.798819 11.1037567Z"/><polygon fill="#FFF" points="206.73 11.104 214.159 11.104 214.159 13.045 208.912 13.045 208.912 16.144 213.42 16.144 213.42 18.067 208.912 18.067 208.912 21.753 214.25 21.753 214.25 23.712 206.73 23.712"/><path fill="#FFF" d="M227.379233 24.1224728C225.918592 24.1224728 224.52935 23.6409797 223.412108 22.751191 221.842666 21.5048153 220.940985 19.6164487 220.940985 17.4084298 220.940985 13.5262651 223.735789 10.6769267 227.432953 10.6769267 228.785475 10.6769267 230.012197 11.0684337 231.184518 11.8695793L230.949918 14.3274106C229.940117 13.2583212 228.839875 12.724448 227.577794 12.724448 225.08899 12.724448 223.249588 14.612143 223.249588 17.3909698 223.249588 20.0442188 224.99855 21.9675054 227.450633 21.9675054 228.875915 21.9675054 230.101957 21.3436461 231.346358 20.0972704L231.219878 22.8935572C230.083597 23.6947027 228.767795 24.1224728 227.379233 24.1224728M238.921296 21.9852341C241.175499 21.9852341 242.978861 20.0619475 242.978861 17.4086984 242.978861 14.7366463 241.193859 12.8314912 238.921296 12.8314912 236.648733 12.8314912 234.882091 14.7541063 234.882091 17.4086984 234.882091 20.0438159 236.667093 21.9852341 238.921296 21.9852341M233.88997 13.2585898C235.098331 11.6200356 236.955414 10.6939838 238.921296 10.6939838 240.598858 10.6939838 242.22202 11.3708947 243.412022 12.6179419 244.619703 13.8824491 245.269104 15.5377918 245.269104 17.4086984 245.269104 19.2782619 244.619703 20.9342761 243.412022 22.1813233 242.20366 23.4270275 240.598858 24.1227415 238.921296 24.1227415 237.244414 24.1227415 235.657292 23.4458305 234.44893 22.1987833 233.222889 20.9342761 232.573488 19.2957219 232.573488 17.4086984 232.573488 15.8413273 233.024329 14.4344539 233.88997 13.2585898"/><polygon fill="#FFF" points="249.057 10.694 249.202 10.694 253.764 19.919 258.308 10.694 258.452 10.694 261.049 23.713 258.849 23.713 257.46 16.588 253.854 24.14 253.656 24.14 249.905 16.588 248.516 23.713 246.442 23.713"/><path fill="#FFF" d="M266.352395 16.9270709C268.335958 16.9270709 269.328079 16.1971084 269.328079 14.9151412 269.328079 13.5257278 268.263877 12.9737231 266.153835 12.9737231L265.342594 12.9737231 265.342594 16.9270709 266.352395 16.9270709ZM263.124431 11.1034881 266.081755 11.1034881C267.723277 11.1034881 268.985358 11.2465258 270.06724 12.0120798 271.022641 12.6889907 271.563922 13.7399486 271.563922 14.8258266 271.563922 17.2480664 269.688479 18.7973059 266.297995 18.7973059L265.811114 18.7973059 265.342594 18.7973059 265.342594 23.7122971 263.124431 23.7122971 263.124431 11.1034881ZM278.909835 19.670239 276.835832 14.9681256 274.72647 19.670239 278.909835 19.670239ZM270.578464 23.7129014 276.854192 10.6944539 277.034393 10.6944539 283.0932 23.7129014 280.731557 23.7129014 279.703396 21.4686194 273.896869 21.4686194 272.851027 23.7129014 270.578464 23.7129014Z"/><polygon fill="#FFF" points="284.267 10.694 284.502 10.694 292.725 19.118 292.725 11.103 294.907 11.103 294.907 24.122 294.673 24.122 286.432 15.699 286.432 23.713 284.267 23.713"/><polygon fill="#FFF" points="300.625 17.978 295.881 11.104 298.514 11.104 301.905 16.091 305.584 11.104 308 11.104 302.879 17.942 302.879 23.713 300.625 23.713"/><polygon fill="#00AEDA" points="0 2.518 33.154 2.518 33.154 0 0 0"/><polygon fill="#00AEDA" points="0 8.815 33.154 8.815 33.154 6.296 0 6.296"/><polygon fill="#00AEDA" points="0 15.111 33.154 15.111 33.154 12.593 0 12.593"/><polygon fill="#00AEDA" points="0 21.407 33.154 21.407 33.154 18.889 0 18.889"/><polygon fill="#00AEDA" points="0 27.704 33.154 27.704 33.154 25.185 0 25.185"/><polygon fill="#00AEDA" points="0 34 33.154 34 33.154 31.482 0 31.482"/></g></svg>