<svg xmlns="http://www.w3.org/2000/svg" width="454" height="51" viewBox="0 0 454 51"><g fill="none" fill-rule="evenodd" transform="translate(.129 .153)"><polygon fill="#575553" points="73.407 35.311 70.092 35.311 70.092 19.399 63.754 19.399 63.754 16.535 79.719 16.535 79.719 19.399 73.407 19.399"/><polygon fill="#575553" points="82.027 16.535 85.289 16.535 85.289 24.012 94.253 24.012 94.253 16.535 97.488 16.535 97.488 35.31 94.253 35.31 94.253 26.904 85.289 26.904 85.289 35.31 82.027 35.31"/><polygon fill="#575553" points="102.024 16.535 112.95 16.535 112.95 19.425 105.233 19.425 105.233 24.041 111.863 24.041 111.863 26.904 105.233 26.904 105.233 32.394 113.083 32.394 113.083 35.31 102.024 35.31"/><path fill="#575553" d="M129.182,32.3138 C133.982,32.3138 136.634,29.7938 136.634,25.9228 C136.634,22.0248 133.982,19.5318 129.182,19.5318 L127.485,19.5318 L127.485,32.3138 L129.182,32.3138 Z M124.223,16.5348 L128.758,16.5348 C135.997,16.5348 140.002,20.3008 140.002,25.9228 C140.002,29.3968 138.411,32.1548 135.361,33.9058 C133.372,35.0448 131.277,35.3108 128.758,35.3108 L124.223,35.3108 L124.223,16.5348 Z"/><polygon fill="#575553" points="143.239 16.535 154.165 16.535 154.165 19.425 146.447 19.425 146.447 24.041 153.077 24.041 153.077 26.904 146.447 26.904 146.447 32.394 154.298 32.394 154.298 35.31 143.239 35.31"/><polygon fill="#575553" points="157.959 15.925 158.304 15.925 170.397 28.469 170.397 16.534 173.606 16.534 173.606 35.921 173.261 35.921 161.141 23.377 161.141 35.311 157.959 35.311"/><polygon fill="#575553" points="183.95 36.08 175.437 16.534 178.938 16.534 184.189 28.866 189.44 16.534 192.755 16.534 184.215 36.08"/><polygon fill="#575553" points="194.585 16.535 205.511 16.535 205.511 19.425 197.794 19.425 197.794 24.041 204.424 24.041 204.424 26.904 197.794 26.904 197.794 32.394 205.644 32.394 205.644 35.31 194.585 35.31"/><path fill="#575553" d="M214.0517 25.1009C216.9687 25.1009 218.4277 24.0129 218.4277 22.1039 218.4277 20.0359 216.8627 19.2129 213.7597 19.2129L212.5407 19.2129 212.5407 25.1009 214.0517 25.1009ZM209.3047 16.5349 213.6547 16.5349C216.0407 16.5349 217.8977 16.6939 219.5147 17.8339 220.9207 18.8159 221.7157 20.3009 221.7157 21.8389 221.7157 24.3049 220.2577 26.1619 217.6057 27.0629L223.6787 35.3109 219.8337 35.3109 214.1317 27.5139 212.5407 27.5139 212.5407 35.3109 209.3047 35.3109 209.3047 16.5349ZM237.6034 33.057C239.6454 33.057 240.9174 31.916 240.9174 30.431 240.9174 29.026 240.0424 28.124 238.1604 27.01L236.7544 26.162C234.1554 24.623 232.8024 23.164 232.8024 20.858 232.8024 17.967 235.0574 15.899 238.5044 15.899 240.1494 15.899 241.6614 16.27 243.2254 17.038L243.1194 20.036C241.3694 19.08 239.9364 18.55 238.7434 18.55 236.9664 18.55 235.9584 19.425 235.9584 20.699 235.9584 21.866 236.8074 22.608 238.5314 23.616L239.8834 24.412C242.7484 26.109 244.2334 27.752 244.2334 30.352 244.2334 33.614 241.7924 35.948 237.7624 35.948 235.9854 35.948 234.2614 35.577 232.6964 34.833L232.4054 31.147C234.3404 32.394 236.0114 33.057 237.6034 33.057"/><polygon fill="#575553" points="247.708 16.535 250.97 16.535 250.97 24.012 259.934 24.012 259.934 16.535 263.169 16.535 263.169 35.31 259.934 35.31 259.934 26.904 250.97 26.904 250.97 35.31 247.708 35.31"/><path fill="#575553" d="M277.12 29.2913 274.07 22.2893 270.968 29.2913 277.12 29.2913ZM264.868 35.3113 274.097 15.9253 274.362 15.9253 283.272 35.3113 279.799 35.3113 278.287 31.9693 269.748 31.9693 268.21 35.3113 264.868 35.3113ZM289.9569 32.3138C294.7569 32.3138 297.4089 29.7938 297.4089 25.9228 297.4089 22.0248 294.7569 19.5318 289.9569 19.5318L288.2599 19.5318 288.2599 32.3138 289.9569 32.3138ZM284.9979 16.5348 289.5319 16.5348C296.7729 16.5348 300.7769 20.3008 300.7769 25.9228 300.7769 29.3968 299.1859 32.1548 296.1359 33.9058 294.1479 35.0448 292.0519 35.3108 289.5319 35.3108L284.9979 35.3108 284.9979 16.5348Z"/><polygon fill="#575553" points="304.014 16.535 314.94 16.535 314.94 19.425 307.223 19.425 307.223 24.041 313.853 24.041 313.853 26.904 307.223 26.904 307.223 32.394 315.073 32.394 315.073 35.31 304.014 35.31"/><path fill="#575553" d="M334.3808 35.9212C332.2328 35.9212 330.1898 35.2042 328.5468 33.8792 326.2388 32.0232 324.9128 29.2112 324.9128 25.9232 324.9128 20.1422 329.0228 15.8992 334.4598 15.8992 336.4488 15.8992 338.2528 16.4822 339.9768 17.6752L339.6318 21.3352C338.1468 19.7432 336.5288 18.9482 334.6728 18.9482 331.0128 18.9482 328.3078 21.7592 328.3078 25.8972 328.3078 29.8482 330.8798 32.7122 334.4858 32.7122 336.5818 32.7122 338.3848 31.7832 340.2148 29.9272L340.0288 34.0912C338.3578 35.2842 336.4228 35.9212 334.3808 35.9212M351.3544 32.7386C354.6694 32.7386 357.3214 29.8746 357.3214 25.9236 357.3214 21.9446 354.6964 19.1076 351.3544 19.1076 348.0124 19.1076 345.4144 21.9706 345.4144 25.9236 345.4144 29.8476 348.0394 32.7386 351.3544 32.7386M343.9554 19.7436C345.7324 17.3036 348.4634 15.9246 351.3544 15.9246 353.8214 15.9246 356.2084 16.9326 357.9584 18.7896 359.7344 20.6726 360.6894 23.1376 360.6894 25.9236 360.6894 28.7076 359.7344 31.1736 357.9584 33.0306 356.1814 34.8856 353.8214 35.9216 351.3544 35.9216 348.8884 35.9216 346.5544 34.9136 344.7774 33.0566 342.9744 31.1736 342.0194 28.7336 342.0194 25.9236 342.0194 23.5896 342.6824 21.4946 343.9554 19.7436"/><polygon fill="#575553" points="366.26 15.925 366.473 15.925 373.182 29.662 379.865 15.925 380.077 15.925 383.896 35.311 380.66 35.311 378.618 24.702 373.315 35.947 373.023 35.947 367.507 24.702 365.465 35.311 362.415 35.311"/><path fill="#575553" d="M391.6942 25.2064C394.6112 25.2064 396.0702 24.1194 396.0702 22.2104 396.0702 20.1414 394.5052 19.3194 391.4022 19.3194L390.2092 19.3194 390.2092 25.2064 391.6942 25.2064ZM386.9472 16.5344 391.2962 16.5344C393.7102 16.5344 395.5662 16.7474 397.1572 17.8874 398.5622 18.8954 399.3582 20.4604 399.3582 22.0774 399.3582 25.6844 396.6002 27.9914 391.6142 27.9914L390.8982 27.9914 390.2092 27.9914 390.2092 35.3104 386.9472 35.3104 386.9472 16.5344ZM410.161 29.2913 407.111 22.2893 404.009 29.2913 410.161 29.2913ZM397.909 35.3113 407.138 15.9253 407.403 15.9253 416.313 35.3113 412.84 35.3113 411.328 31.9693 402.789 31.9693 401.251 35.3113 397.909 35.3113Z"/><polygon fill="#575553" points="418.04 15.925 418.385 15.925 430.478 28.469 430.478 16.534 433.686 16.534 433.686 35.921 433.342 35.921 421.223 23.377 421.223 35.311 418.04 35.311"/><polygon fill="#575553" points="442.095 26.772 435.119 16.535 438.991 16.535 443.978 23.961 449.388 16.535 452.941 16.535 445.41 26.718 445.41 35.311 442.095 35.311"/><polygon fill="#00AEDA" points="0 3.75 48.756 3.75 48.756 0 0 0"/><polygon fill="#00AEDA" points="0 13.126 48.756 13.126 48.756 9.376 0 9.376"/><polygon fill="#00AEDA" points="0 22.502 48.756 22.502 48.756 18.752 0 18.752"/><polygon fill="#00AEDA" points="0 31.878 48.756 31.878 48.756 28.128 0 28.128"/><polygon fill="#00AEDA" points="0 41.254 48.756 41.254 48.756 37.504 0 37.504"/><polygon fill="#00AEDA" points="0 50.63 48.756 50.63 48.756 46.88 0 46.88"/></g></svg>