<svg xmlns="http://www.w3.org/2000/svg" width="220" height="83" viewBox="0 0 220 83"><g fill="none"><path fill="#3579B5" d="M23.2599119 51.8508159 21.1277533 51.8508159C20.3524229 51.8508159 19.7709251 51.2703963 19.7709251 50.4965035L19.7709251 33.6643357C19.7709251 32.8904429 20.3524229 32.3100233 21.1277533 32.3100233L23.2599119 32.3100233C24.0352423 32.3100233 24.6167401 32.8904429 24.6167401 33.6643357L24.6167401 50.4965035C24.6167401 51.2703963 23.8414097 51.8508159 23.2599119 51.8508159ZM29.8502203 62.4918415 27.7180617 62.4918415C26.9427313 62.4918415 26.3612335 61.9114219 26.3612335 61.1375291L26.3612335 22.4428904C26.3612335 21.6689977 26.9427313 21.0885781 27.7180617 21.0885781L29.8502203 21.0885781C30.6255507 21.0885781 31.2070485 21.6689977 31.2070485 22.4428904L31.2070485 61.1375291C31.2070485 61.9114219 30.6255507 62.4918415 29.8502203 62.4918415ZM36.4405286 68.8764569 34.30837 68.8764569C33.5330396 68.8764569 32.9515419 68.2960373 32.9515419 67.5221445L32.9515419 16.2517483C32.9515419 15.4778555 33.5330396 14.8974359 34.30837 14.8974359L36.4405286 14.8974359C37.215859 14.8974359 37.7973568 15.4778555 37.7973568 16.2517483L37.7973568 67.5221445C37.7973568 68.2960373 37.215859 68.8764569 36.4405286 68.8764569Z"/><path fill="#4DA2D6" d="M47.6828194 53.3986014 49.814978 53.3986014C50.5903084 53.3986014 51.1718062 52.8181818 51.1718062 52.044289L51.1718062 31.5361305C51.1718062 30.7622378 50.5903084 30.1818182 49.814978 30.1818182L47.6828194 30.1818182C46.907489 30.1818182 46.3259912 30.7622378 46.3259912 31.5361305L46.3259912 52.044289C46.3259912 52.8181818 46.907489 53.3986014 47.6828194 53.3986014ZM40.8986784 62.4918415 43.030837 62.4918415C43.8061674 62.4918415 44.3876652 61.9114219 44.3876652 61.1375291L44.3876652 22.4428904C44.3876652 21.6689977 43.8061674 21.0885781 43.030837 21.0885781L40.8986784 21.0885781C40.123348 21.0885781 39.5418502 21.6689977 39.5418502 22.4428904L39.5418502 61.1375291C39.5418502 61.9114219 40.3171806 62.4918415 40.8986784 62.4918415Z"/><path fill="#0D2F4F" d="M3.48898678 52.6247086 1.35682819 52.6247086C.581497797 52.6247086 0 52.044289 0 51.2703963L0 31.5361305C0 30.7622378.581497797 30.1818182 1.35682819 30.1818182L3.48898678 30.1818182C4.26431718 30.1818182 4.84581498 30.7622378 4.84581498 31.5361305L4.84581498 51.2703963C4.84581498 52.044289 4.26431718 52.6247086 3.48898678 52.6247086ZM10.0792952 59.3962704 7.94713656 59.3962704C7.17180617 59.3962704 6.59030837 58.8158508 6.59030837 58.041958L6.59030837 24.7645688C6.59030837 23.990676 7.17180617 23.4102564 7.94713656 23.4102564L10.0792952 23.4102564C10.8546256 23.4102564 11.4361233 23.990676 11.4361233 24.7645688L11.4361233 58.041958C11.4361233 58.8158508 10.8546256 59.3962704 10.0792952 59.3962704ZM14.7312775 57.2680653 16.8634361 57.2680653C17.6387665 57.2680653 18.2202643 56.6876457 18.2202643 55.9137529L18.2202643 27.8601399C18.2202643 27.0862471 17.6387665 26.5058275 16.8634361 26.5058275L14.7312775 26.5058275C13.9559471 26.5058275 13.3744493 27.0862471 13.3744493 27.8601399L13.3744493 55.9137529C13.1806167 56.6876457 13.9559471 57.2680653 14.7312775 57.2680653Z"/><g fill="#3279B5" transform="translate(58.15 17.413)"><polygon points="0 46.627 0 0 9.692 0 9.692 17.8 27.718 17.8 27.718 0 37.41 0 37.41 46.627 27.718 46.627 27.718 25.732 9.692 25.732 9.692 46.434 0 46.434"/><polygon points="63.771 46.627 54.079 46.627 54.079 0 63.771 0"/><polygon points="81.022 0 90.714 0 90.714 38.114 113.974 38.114 113.974 46.434 81.022 46.434"/><polygon points="128.899 0 138.59 0 138.59 38.114 161.85 38.114 161.85 46.434 128.899 46.434"/></g><g fill="#3F3F40" transform="translate(58.731 70.037)"><polygon points="0 .387 1.163 .387 1.163 5.417 7.366 5.417 7.366 .193 8.529 .193 8.529 12.382 7.366 12.382 7.366 6.385 1.163 6.385 1.163 12.382 0 12.382"/><polygon points="11.63 .387 18.608 .387 18.608 1.548 12.793 1.548 12.793 5.417 18.608 5.417 18.608 6.578 12.793 6.578 12.793 11.415 18.608 11.415 18.608 12.576 11.63 12.576"/><path d="M25.7797357.386946387 31.5947137 12.5757576 30.2378855 12.5757576 28.2995595 8.51282051 23.0660793 8.51282051 21.1277533 12.5757576 19.7709251 12.5757576 25.5859031.386946387 25.7797357.386946387ZM25.7797357 2.9020979 23.6475771 7.35198135 27.9118943 7.35198135 25.7797357 2.9020979ZM33.5330396.386946387 36.0528634.386946387C37.4096916.386946387 38.3788546.386946387 38.7665198.58041958 39.5418502.773892774 40.123348 1.16083916 40.5110132 1.74125874 40.8986784 2.32167832 41.2863436 2.9020979 41.2863436 3.67599068 41.2863436 4.25641026 41.092511 4.83682984 40.8986784 5.41724942 40.5110132 5.997669 40.123348 6.38461538 39.5418502 6.57808858 38.9603524 6.77156177 38.185022 6.96503497 37.0220264 6.96503497L41.4801762 12.5757576 39.9295154 12.5757576 35.4713656 6.96503497 34.6960352 6.96503497 34.6960352 12.5757576 33.5330396 12.5757576 33.5330396.386946387 33.5330396.386946387ZM34.6960352 1.54778555 34.6960352 5.8041958 36.8281938 5.8041958C37.6035242 5.8041958 38.185022 5.8041958 38.5726872 5.61072261 38.9603524 5.41724942 39.3480176 5.22377622 39.5418502 4.83682984 39.7356828 4.44988345 39.9295154 4.06293706 39.9295154 3.67599068 39.9295154 3.28904429 39.7356828 2.9020979 39.5418502 2.51515152 39.3480176 2.12820513 38.9603524 1.93473193 38.5726872 1.74125874 38.3788546 1.54778555 37.7973568 1.54778555 37.0220264 1.54778555L34.6960352 1.54778555ZM48.6519824.386946387 51.1718062.386946387C52.1409692.386946387 52.9162996.58041958 53.4977974.773892774 54.0792952.967365967 54.4669604 1.35431235 54.660793 1.74125874 55.0484581 2.12820513 55.0484581 2.70862471 55.0484581 3.28904429 55.0484581 3.86946387 54.8546256 4.25641026 54.660793 4.83682984 54.4669604 5.22377622 54.0792952 5.61072261 53.4977974 5.997669 54.0792952 6.19114219 54.660793 6.38461538 55.0484581 6.77156177 55.4361233 7.15850816 55.6299559 7.35198135 55.8237885 7.73892774 56.0176211 8.12587413 56.0176211 8.51282051 56.0176211 9.09324009 56.0176211 10.0606061 55.6299559 10.8344988 54.8546256 11.6083916 54.0792952 12.3822844 53.1101322 12.5757576 51.9471366 12.5757576L48.6519824 12.5757576 48.6519824.386946387 48.6519824.386946387ZM49.814978 1.54778555 49.814978 5.41724942 50.5903084 5.41724942C51.3656388 5.41724942 52.1409692 5.41724942 52.5286344 5.22377622 52.9162996 5.03030303 53.3039648 4.83682984 53.4977974 4.44988345 53.69163 4.06293706 53.8854626 3.67599068 53.8854626 3.28904429 53.8854626 2.70862471 53.69163 2.32167832 53.3039648 1.93473193 52.9162996 1.54778555 52.3348018 1.54778555 51.3656388 1.54778555L49.814978 1.54778555 49.814978 1.54778555ZM49.814978 6.57808858 49.814978 11.2214452 51.3656388 11.2214452C52.3348018 11.2214452 52.9162996 11.2214452 53.3039648 11.027972 53.69163 10.8344988 54.0792952 10.6410256 54.2731278 10.2540793 54.4669604 9.86713287 54.660793 9.48018648 54.660793 9.09324009 54.660793 8.51282051 54.4669604 8.12587413 54.0792952 7.73892774 53.69163 7.35198135 53.3039648 6.96503497 52.5286344 6.96503497 52.1409692 6.77156177 51.3656388 6.77156177 50.3964758 6.77156177L49.814978 6.77156177 49.814978 6.57808858Z"/><polygon points="58.537 .387 65.515 .387 65.515 1.548 59.7 1.548 59.7 5.417 65.515 5.417 65.515 6.578 59.7 6.578 59.7 11.415 65.515 11.415 65.515 12.576 58.537 12.576"/><polygon points="66.485 1.548 66.485 .387 73.269 .387 73.269 1.548 70.555 1.548 70.555 12.576 69.392 12.576 69.392 1.548"/><polygon points="73.656 1.548 73.656 .387 80.441 .387 80.441 1.548 77.727 1.548 77.727 12.576 76.564 12.576 76.564 1.548"/><polygon points="82.185 .387 89.163 .387 89.163 1.548 83.348 1.548 83.348 5.417 89.163 5.417 89.163 6.578 83.348 6.578 83.348 11.415 89.163 11.415 89.163 12.576 82.185 12.576"/><path d="M91.4889868.386946387 94.0088106.386946387C95.3656388.386946387 96.3348018.386946387 96.722467.58041958 97.4977974.773892774 98.0792952 1.16083916 98.4669604 1.74125874 98.8546256 2.32167832 99.2422907 2.9020979 99.2422907 3.67599068 99.2422907 4.25641026 99.0484581 4.83682984 98.8546256 5.41724942 98.4669604 5.997669 98.0792952 6.38461538 97.4977974 6.57808858 96.9162996 6.77156177 96.1409692 6.96503497 94.9779736 6.96503497L99.4361233 12.5757576 97.8854626 12.5757576 93.4273128 6.96503497 92.6519824 6.96503497 92.6519824 12.5757576 91.4889868 12.5757576 91.4889868.386946387ZM92.6519824 1.54778555 92.6519824 5.8041958 94.784141 5.8041958C95.5594714 5.8041958 96.1409692 5.8041958 96.5286344 5.61072261 96.9162996 5.41724942 97.3039648 5.22377622 97.4977974 4.83682984 97.69163 4.44988345 97.8854626 4.06293706 97.8854626 3.67599068 97.8854626 3.28904429 97.69163 2.9020979 97.4977974 2.51515152 97.3039648 2.12820513 96.9162996 1.93473193 96.5286344 1.74125874 96.3348018 1.54778555 95.753304 1.54778555 94.784141 1.54778555L92.6519824 1.54778555ZM118.044053 2.51515152 117.07489 3.28904429C116.493392 2.51515152 115.911894 2.12820513 115.136564 1.74125874 114.361233 1.35431235 113.585903 1.16083916 112.61674 1.16083916 111.647577 1.16083916 110.678414 1.35431235 109.903084 1.93473193 109.127753 2.32167832 108.352423 3.0955711 107.964758 3.86946387 107.577093 4.64335664 107.189427 5.61072261 107.189427 6.57808858 107.189427 8.12587413 107.770925 9.28671329 108.740088 10.2540793 109.709251 11.2214452 111.066079 11.8018648 112.61674 11.8018648 114.361233 11.8018648 115.718062 11.2214452 116.881057 9.86713287L117.85022 10.6410256C117.268722 11.4149184 116.493392 11.995338 115.524229 12.3822844 114.555066 12.7692308 113.585903 12.962704 112.422907 12.962704 110.290749 12.962704 108.546256 12.1888112 107.38326 10.8344988 106.414097 9.67365967 105.832599 8.12587413 105.832599 6.38461538 105.832599 4.64335664 106.414097 3.0955711 107.770925 1.93473193 109.127753.773892774 110.678414 0 112.422907 0 113.585903 0 114.555066.193473193 115.524229.773892774 116.687225 1.16083916 117.462555 1.74125874 118.044053 2.51515152Z"/><polygon points="120.37 .387 121.727 .387 121.727 11.415 126.379 11.415 126.379 12.576 120.37 12.576 120.37 .387"/><polygon points="128.123 .387 129.48 .387 129.48 12.576 128.317 12.576 128.317 .387"/><polygon points="132.194 12.576 132.194 .387 132.388 .387 140.529 9.867 140.529 .387 141.692 .387 141.692 12.576 141.498 12.576 133.357 3.289 133.357 12.576"/><polygon points="144.793 .387 145.956 .387 145.956 12.576 144.793 12.576"/><path d="M160.299559,2.51515152 L159.330396,3.28904429 C158.748899,2.51515152 158.167401,2.12820513 157.39207,1.74125874 C156.61674,1.35431235 155.84141,1.16083916 154.872247,1.16083916 C153.903084,1.16083916 152.933921,1.35431235 152.15859,1.93473193 C151.38326,2.32167832 150.60793,3.0955711 150.220264,3.86946387 C149.832599,4.64335664 149.444934,5.61072261 149.444934,6.57808858 C149.444934,8.12587413 150.026432,9.28671329 150.995595,10.2540793 C151.964758,11.2214452 153.321586,11.8018648 154.872247,11.8018648 C156.61674,11.8018648 157.973568,11.2214452 159.136564,9.86713287 L160.105727,10.6410256 C159.524229,11.4149184 158.748899,11.995338 157.779736,12.3822844 C156.810573,12.7692308 155.84141,12.962704 154.678414,12.962704 C152.546256,12.962704 150.801762,12.1888112 149.638767,10.8344988 C148.669604,9.67365967 148.088106,8.12587413 148.088106,6.38461538 C148.088106,4.64335664 148.669604,3.0955711 150.026432,1.93473193 C151.38326,0.773892774 152.933921,0 154.678414,0 C155.84141,0 156.810573,0.193473193 157.779736,0.773892774 C158.942731,1.16083916 159.718062,1.74125874 160.299559,2.51515152 Z"/></g><g fill="#3F3F40" transform="translate(56.793)"><polygon points="0 1.161 0 0 6.784 0 6.784 1.161 4.07 1.161 4.07 12.189 2.907 12.189 2.907 1.161"/><polygon points="8.529 0 9.692 0 9.692 5.224 15.894 5.224 15.894 0 17.057 0 17.057 12.189 15.894 12.189 15.894 6.385 9.692 6.385 9.692 12.382 8.529 12.382"/><polygon points="20.352 0 27.33 0 27.33 1.161 21.515 1.161 21.515 5.03 27.33 5.03 27.33 6.191 21.515 6.191 21.515 11.028 27.33 11.028 27.33 12.189 20.352 12.189"/></g></g></svg>