<svg xmlns="http://www.w3.org/2000/svg" width="627" height="245" viewBox="0 0 627 245"><g fill="none" fill-rule="evenodd"><rect width="16.238" height="4.9" y="78.4" fill="#003052"/><polygon fill="#003052" points="24.358 78.289 549.356 77.552 549.356 84.148 24.358 84.148"/><rect width="53" height="4.9" x="557.761" y="78.4" fill="#003052"/><rect width="8.119" height="4.9" x="618.881" y="78.4" fill="#003052"/><polygon fill="#003052" points="225.544 82.393 258.139 123.129 274.155 178.822 289.741 168.429 318.002 245 330.781 203.082 340.386 216.051 365.498 147.776 385.594 138.75 403.543 82.393"/><g transform="translate(226)"><polygon fill="#FFF" points="9 79.38 29.494 46.29 64.069 33.315 89.852 8.82 122.999 46.29 122.999 79.38"/><polygon fill="#003052" points="0 79.38 8.682 79.38 29.246 46.186 64.57 33.506 89.807 8.598 92.464 46.186 64.57 65.544 108.43 54.373 120.93 79.38 176.999 79.38 156.698 47.585 129.875 42.866 89.807 0 60.412 28.494 24.568 41.428"/></g></g></svg>