<svg xmlns="http://www.w3.org/2000/svg" width="30" height="30" viewBox="0 0 30 30"><g fill="none" fill-rule="evenodd"><circle cx="15" cy="15" r="15" fill="#414141"/><g fill="#FFF" fill-rule="nonzero" transform="translate(6 8)"><path d="M0,2.88087891 L0,1.40625 C0,0.629589844 0.60440625,0 1.35,0 L16.65,0 C17.3955937,0 18,0.629589844 18,1.40625 L18,2.88087891 C16.6291313,3.99234375 16.6818375,4.00142578 11.5809187,7.85771484 C10.9902937,8.30625 9.81511875,8.24687925 9,8.23363706 C8.18420625,8.2464105 7.01060625,8.30695312 6.41908125,7.85765625 C1.31788125,4.00119141 1.36985625,3.99146484 0,2.88087891 Z"/><path d="M18,5.26025391 L18,13.59375 C18,14.3704102 17.3955937,15 16.65,15 L1.35,15 C0.60440625,15 0,14.3704102 0,13.59375 L0,5.26025391 C0.7851375,5.89271484 1.87475625,6.73892578 5.36079375,9.37435547 C6.15740625,9.98027344 7.4968875,10.1165472 8.99983125,10.1086371 C10.512225,10.1164886 11.8706625,9.95847656 12.6403312,9.37347656 C16.1254687,6.73880859 17.2148625,5.89265625 18,5.26025391 Z"/></g></g></svg>