<?xml version="1.0" encoding="UTF-8"?><svg id="Layer_1" xmlns="http://www.w3.org/2000/svg" viewBox="0 0 216 216"><defs><style>.cls-1{fill:#231f20;}.cls-2{fill:#dcddde;}.cls-3{fill:#fff;}.cls-4{fill:#ee2825;}</style></defs><circle class="cls-4" cx="57.23" cy="147.49" r="9.38"/><path class="cls-1" d="M57.23,158.66c-6.16,0-11.18-5.01-11.18-11.18s5.01-11.18,11.18-11.18,11.18,5.01,11.18,11.18-5.01,11.18-11.18,11.18ZM57.23,139.89c-4.19,0-7.59,3.41-7.59,7.59s3.41,7.59,7.59,7.59,7.59-3.41,7.59-7.59-3.41-7.59-7.59-7.59Z"/><path class="cls-3" d="M126.1,31.31h-45.66c-12.46,0-22.56,10.1-22.56,22.56v108.25c0,12.46,10.1,22.56,22.56,22.56h65.14c12.46,0,22.56-10.1,22.56-22.56v-88.77l-42.04-42.04Z"/><path class="cls-1" d="M145.58,186.48h-65.14c-13.43,0-24.36-10.93-24.36-24.36V53.88c0-13.43,10.93-24.36,24.36-24.36h45.66c.48,0,.93.19,1.27.52l42.04,42.04c.34.34.52.79.52,1.27v88.77c0,13.43-10.93,24.36-24.36,24.36ZM80.44,33.1c-11.45,0-20.77,9.32-20.77,20.77v108.25c0,11.45,9.32,20.77,20.77,20.77h65.14c11.45,0,20.77-9.32,20.77-20.77v-88.02l-41-41h-44.92Z"/><path class="cls-2" d="M126.1,31.31l42.04,42.04h-33.08c-4.95,0-8.97-4.01-8.97-8.97V31.31Z"/><path class="cls-1" d="M168.15,75.15s0,0,0,0h-33.08c-5.93,0-10.76-4.83-10.76-10.76V31.31c0-.72.44-1.38,1.11-1.66.67-.28,1.44-.12,1.95.39l41.96,41.96c.38.33.61.81.61,1.35,0,.99-.8,1.79-1.79,1.79ZM127.89,35.64v28.75c0,3.96,3.22,7.17,7.17,7.17h28.75l-35.93-35.93Z"/><path class="cls-4" d="M58.08,93.37c-5.57,0-10.09,4.52-10.09,10.09v42.26h.18c.9-4.65,4.99-8.17,9.91-8.17h101.64v-44.18H58.08Z"/><path class="cls-1" d="M48.18,147.52h-.18c-.99,0-1.79-.8-1.79-1.79v-42.26c0-6.55,5.33-11.88,11.88-11.88h101.64c.99,0,1.79.8,1.79,1.79v44.18c0,.99-.8,1.79-1.79,1.79H58.08c-3.97,0-7.4,2.83-8.15,6.72-.16.84-.9,1.45-1.76,1.45ZM58.08,95.16c-4.58,0-8.3,3.72-8.3,8.3v35.68c2.16-2.11,5.11-3.38,8.3-3.38h99.84v-40.6H58.08Z"/><path class="cls-3" d="M74.24,124.42l1.13-2.39c1.59,1.44,4.32,2.48,7.08,2.48,3.71,0,5.3-1.44,5.3-3.31,0-5.24-13-1.93-13-9.9,0-3.31,2.57-6.13,8.21-6.13,2.51,0,5.12.67,6.9,1.9l-1.01,2.45c-1.87-1.2-3.98-1.75-5.89-1.75-3.65,0-5.21,1.53-5.21,3.4,0,5.24,13,1.96,13,9.84,0,3.28-2.64,6.1-8.31,6.1-3.28,0-6.5-1.1-8.22-2.7Z"/><path class="cls-3" d="M102.23,117.33l-3.92,3.99v5.55h-3.07v-21.46h3.07v11.99l11.65-11.99h3.49l-9.17,9.66,9.75,11.8h-3.59l-8.22-9.53Z"/><path class="cls-3" d="M134.61,112.89c0,4.66-3.37,7.48-8.95,7.48h-5.3v6.5h-3.07v-21.46h8.37c5.58,0,8.95,2.82,8.95,7.48ZM131.54,112.89c0-3.07-2.05-4.81-5.98-4.81h-5.21v9.62h5.21c3.92,0,5.98-1.75,5.98-4.81Z"/></svg>