<?xml version="1.0" encoding="UTF-8"?><svg id="Layer_1" xmlns="http://www.w3.org/2000/svg" viewBox="0 0 216 216"><defs><style>.cls-1{fill:#010101;}.cls-2{fill:#e91e52;}</style></defs><path class="cls-2" d="M61.35,109.54c-9.15,0-16.6-7.45-16.6-16.6s7.15-16.3,16.06-16.59c2.6-7.97,10.06-13.44,18.54-13.44,1.68,0,3.34.22,4.96.64,2.23-5.85,6.07-10.88,11.17-14.62,5.61-4.12,12.26-6.29,19.24-6.29s13.85,2.25,19.51,6.49c5.12,3.84,9.06,9.21,11.19,15.21,2.6-.36,5.23-.27,7.84.27,9.77,2.04,17.14,10.43,17.92,20.39.04.46.06.92.07,1.38.11,5.7-2.03,11.16-6.04,15.35-3.93,4.12-9.23,6.61-14.91,7.03-.83.06-1.55-.56-1.61-1.39-.06-.83.56-1.55,1.39-1.61,10.38-.75,18.36-9.24,18.17-19.33,0-.4-.03-.8-.06-1.2-.68-8.65-7.07-15.92-15.54-17.69-2.65-.55-5.33-.57-7.96-.05-.76.15-1.5-.3-1.73-1.03-3.84-12.46-15.19-20.84-28.25-20.84s-24.03,8.13-28.05,20.24c-.13.38-.4.7-.76.87-.36.18-.78.2-1.16.07-1.74-.6-3.56-.91-5.4-.91-7.51,0-14.07,5.07-15.96,12.32-.18.68-.8,1.15-1.51,1.12h-.02c-.18,0-.34-.01-.5-.01-7.5,0-13.6,6.1-13.6,13.6s6.09,13.59,13.58,13.6c.47,0,13.21-.22,28.85-.42.83-.02,1.51.65,1.52,1.48.01.83-.65,1.51-1.48,1.52-15.85.21-28.72.42-28.85.42,0,0-.02,0-.02,0Z"/><path class="cls-2" d="M130.18,87.02c-4.01,0-7.78-1.56-10.62-4.4-4.8-4.8-4.8-12.61,0-17.41,3.96-3.96,10.4-3.96,14.35,0,.59.59.59,1.54,0,2.12-.59.59-1.54.59-2.12,0-2.79-2.79-7.32-2.79-10.11,0-3.63,3.63-3.63,9.53,0,13.16,2.27,2.27,5.28,3.52,8.49,3.52s6.22-1.25,8.49-3.52c3.71-3.71,5.27-8.99,4.16-14.13-.17-.81.34-1.61,1.15-1.78.81-.17,1.61.34,1.78,1.15,1.32,6.14-.54,12.45-4.97,16.89-2.84,2.84-6.61,4.4-10.62,4.4Z"/><path class="cls-2" d="M100.08,105.49c-.94,0-1.87-.19-2.76-.56-1.75-.74-3.12-2.12-3.83-3.88-.72-1.76-.71-3.7.03-5.45,1.31-3.11,8.83-8.41,10.33-9.44.42-.29.96-.35,1.43-.15.47.2.81.62.9,1.13.31,1.79,1.78,10.87.47,13.98h0c-.74,1.75-2.12,3.12-3.88,3.83-.87.35-1.78.53-2.69.53ZM103.58,90.04c-3.15,2.33-6.72,5.33-7.3,6.72-.43,1.01-.43,2.13-.02,3.15.42,1.02,1.2,1.82,2.22,2.24,1.01.43,2.13.43,3.15.02,1.02-.42,1.82-1.2,2.24-2.22.59-1.39.24-6.04-.3-9.92ZM105.26,100.54h0,0Z"/><path class="cls-2" d="M134.85,120.13c-.92,0-1.85-.18-2.75-.56-1.75-.74-3.12-2.12-3.83-3.88-.72-1.76-.71-3.7.03-5.45,1.31-3.11,8.83-8.41,10.33-9.44.42-.29.96-.35,1.43-.15.47.2.81.62.9,1.13.31,1.79,1.78,10.87.47,13.98h0c-1.15,2.72-3.79,4.36-6.58,4.36ZM138.37,104.68c-3.15,2.33-6.72,5.33-7.3,6.72-.43,1.01-.43,2.13-.02,3.15.42,1.02,1.2,1.82,2.22,2.24,2.09.88,4.52-.11,5.4-2.2h0c.59-1.39.24-6.04-.3-9.92ZM140.05,115.18h0,0Z"/><path class="cls-2" d="M112.7,124.15c-.94,0-1.87-.19-2.76-.56-1.75-.74-3.12-2.12-3.83-3.88-.72-1.76-.71-3.7.03-5.45,1.31-3.11,8.83-8.41,10.33-9.44.42-.29.96-.35,1.43-.15.47.2.81.62.9,1.13.31,1.79,1.78,10.87.47,13.98h0c-.74,1.75-2.12,3.12-3.88,3.83-.87.35-1.78.53-2.69.53ZM116.2,108.7c-3.15,2.33-6.72,5.33-7.3,6.72-.43,1.01-.43,2.13-.02,3.15.42,1.02,1.2,1.82,2.22,2.24,1.01.43,2.13.43,3.15.02,1.02-.42,1.82-1.2,2.24-2.22.59-1.39.24-6.04-.3-9.92ZM117.88,119.2h0,0Z"/><path class="cls-1" d="M89.08,181.95l-4.42-6.21c-.5.06-.99.08-1.55.08h-5.19v6.13h-2.04v-19.32h7.23c4.91,0,7.89,2.48,7.89,6.62,0,3.04-1.6,5.16-4.42,6.07l4.72,6.62h-2.24ZM88.96,169.25c0-3.09-2.04-4.86-5.91-4.86h-5.13v9.69h5.13c3.87,0,5.91-1.79,5.91-4.83Z"/><path class="cls-1" d="M107.96,176.79h-10.77l-2.32,5.16h-2.12l8.83-19.32h2.01l8.83,19.32h-2.15l-2.32-5.16ZM107.21,175.13l-4.64-10.38-4.64,10.38h9.28Z"/><path class="cls-1" d="M115.63,162.63h2.04v19.32h-2.04v-19.32Z"/><path class="cls-1" d="M140.12,162.63v19.32h-1.68l-12.42-15.68v15.68h-2.04v-19.32h1.68l12.45,15.68v-15.68h2.02Z"/></svg>