<svg xmlns="http://www.w3.org/2000/svg" width="27" height="27" viewBox="0 0 27 27"><path fill="#007BBA" d="M24.1071429,0 L2.89285714,0 C1.29517626,0 0,1.29517626 0,2.89285714 L0,24.1071429 C0,25.7048237 1.29517626,27 2.89285714,27 L11.1646205,27 L11.1646205,17.8206027 L7.36774554,17.8206027 L7.36774554,13.5 L11.1646205,13.5 L11.1646205,10.2069643 C11.1646205,6.46131696 13.3945313,4.39232143 16.8099107,4.39232143 C18.4455804,4.39232143 20.1559821,4.68401786 20.1559821,4.68401786 L20.1559821,8.36035714 L18.2714063,8.36035714 C16.4145536,8.36035714 15.8353795,9.51267857 15.8353795,10.6945313 L15.8353795,13.5 L19.9806027,13.5 L19.3176562,17.8206027 L15.8353795,17.8206027 L15.8353795,27 L24.1071429,27 C25.7048237,27 27,25.7048237 27,24.1071429 L27,2.89285714 C27,1.29517626 25.7048237,0 24.1071429,0 L24.1071429,0 Z"/></svg>