<svg xmlns="http://www.w3.org/2000/svg" width="27" height="27" viewBox="0 0 27 27"><path fill="#007BBA" d="M24.1071429,0 L2.89285714,0 C1.29575893,0 0,1.29575895 0,2.89285718 L0,24.1071432 C0,25.7042414 1.29575893,27 2.89285714,27 L24.1071429,27 C25.7042411,27 27,25.7042414 27,24.1071432 L27,2.89285718 C27,1.29575895 25.7042411,0 24.1071429,0 Z M21.1600446,9.57053585 C21.1720982,9.73928585 21.1720982,9.91406264 21.1720982,10.0828126 C21.1720982,15.3080359 17.1944196,21.3287949 9.92611607,21.3287949 C7.68415179,21.3287949 5.60491071,20.6779021 3.85714286,19.5569199 C4.1765625,19.5930806 4.48392857,19.6051342 4.809375,19.6051342 C6.65959821,19.6051342 8.35915179,18.9783485 9.71517857,17.9176342 C7.97946429,17.8814735 6.52098214,16.742411 6.02075893,15.1754466 C6.62946429,15.2658484 7.17790179,15.2658484 7.8046875,15.1031252 C5.99665179,14.7354913 4.640625,13.1444198 4.640625,11.2218752 L4.640625,11.1736609 C5.16495536,11.4689734 5.7796875,11.649777 6.42455357,11.6738841 C5.32336831,10.9414107 4.66256695,9.70580266 4.66473214,8.38325905 C4.66473214,7.64799118 4.85758929,6.97299117 5.20111607,6.38839295 C7.14776786,8.7870537 10.0707589,10.354018 13.3493304,10.522768 C12.7888393,7.84084833 14.7957589,5.66517865 17.2064732,5.66517865 C18.3455357,5.66517865 19.3700893,6.14129473 20.0933036,6.91272331 C20.9852679,6.74397331 21.8410714,6.41250009 22.6004464,5.96049116 C22.3051339,6.8765626 21.684375,7.64799118 20.8647321,8.13616083 C21.6602679,8.05178583 22.4316964,7.82879475 23.1428571,7.52142868 C22.6064732,8.31093762 21.9314732,9.01004477 21.1600446,9.57053585 L21.1600446,9.57053585 Z"/></svg>