<svg xmlns="http://www.w3.org/2000/svg" width="27" height="27" viewBox="0 0 27 27"><path fill="#007BBA" d="M23.111413,27 C25.9063349,27 27,25.9063353 27,23.1114134 L27,3.88858701 C27,1.0936651 25.9063349,0 23.111413,0 L3.88858696,0 C1.09366508,0 0,1.0936651 0,3.88858701 L0,23.1114134 C0,25.9063353 1.09366508,27 3.88858696,27 L23.111413,27 Z M6.1875,8.75390637 L6.16992187,8.75390637 C4.79882812,8.75390637 3.91992187,7.80468761 3.91992187,6.64453134 C3.91992187,5.44921883 4.83398437,4.53515631 6.22265625,4.53515631 C7.61132812,4.53515631 8.47265625,5.44921883 8.49023437,6.64453134 C8.49023437,7.80468761 7.61132812,8.75390637 6.1875,8.75390637 Z M8.2265625,22.6054691 L4.16601563,22.6054691 L4.16601563,10.4062501 L8.2265625,10.4062501 L8.2265625,22.6054691 Z M14.5183327,12.1279652 L14.484375,12.1816408 C15.0117188,11.3378908 15.9785156,10.1250001 18.1582031,10.1250001 C20.8300781,10.1250001 22.8339844,11.8652345 22.8339844,15.6093752 L22.8339844,22.6054691 L18.7734375,22.6054691 L18.7734375,16.0839846 C18.7734375,14.4316408 18.1933594,13.3242189 16.734375,13.3242189 C15.609375,13.3242189 14.9414063,14.0800783 14.6425781,14.8007815 C14.5371094,15.0644533 14.5195313,15.433594 14.5195313,15.7851565 L14.5195313,22.6054691 L10.4589844,22.6054691 C10.4708041,20.1272565 10.4773254,18.1471047 10.4803295,16.5662451 L10.4814728,15.86461 C10.4816239,15.7522763 10.4817558,15.6422154 10.4818693,15.5343822 L10.4818296,13.581954 C10.4817255,13.5031073 10.4816088,13.4261737 10.4814801,13.3511083 L10.480572,12.922774 C10.480399,12.8550014 10.4802158,12.789007 10.480023,12.724746 L10.4787598,12.3596193 C10.4737591,11.0944489 10.4649648,10.624673 10.4610106,10.4715985 L10.4596849,10.4254305 C10.4595725,10.421994 10.4594725,10.419077 10.4593857,10.4166345 L10.4589844,10.4062501 L14.5195313,10.4062501 L14.5183327,12.1279652 Z"/></svg>