<svg xmlns="http://www.w3.org/2000/svg" width="15" height="15" viewBox="0 0 15 15"><g fill="none" fill-rule="evenodd"><circle cx="7.5" cy="7.5" r="7.5" fill="#232323"/><path fill="#FFF" fill-rule="nonzero" d="M0,1.24875 C0,0.88875 0.13125,0.590625 0.39375,0.354375 C0.65625,0.118125 1.005,0 1.44,0 C1.8675,0 2.2125,0.118125 2.475,0.354375 C2.7375,0.590625 2.86875,0.88875 2.86875,1.24875 C2.86875,1.60125 2.7375,1.89375 2.475,2.12625 C2.2125,2.35875 1.8675,2.475 1.44,2.475 C1.005,2.475 0.65625,2.35875 0.39375,2.12625 C0.13125,1.89375 0,1.60125 0,1.24875 Z M2.6775,2.98125 L2.6775,9.32625 L0.18,9.32625 L0.18,2.98125 L2.6775,2.98125 Z" transform="translate(6.008 2.861)"/></g></svg>