<?xml version="1.0" encoding="UTF-8"?><svg id="Layer_1" xmlns="http://www.w3.org/2000/svg" viewBox="0 0 216 216"><defs><style>.cls-1{fill:#5e5f5f;}.cls-2{fill:#231f20;}.cls-3{fill:#dcddde;}.cls-4{fill:#fff;}</style></defs><circle class="cls-1" cx="57.23" cy="147.49" r="9.38"/><path class="cls-2" d="M57.23,158.66c-6.16,0-11.18-5.01-11.18-11.18s5.01-11.18,11.18-11.18,11.18,5.01,11.18,11.18-5.01,11.18-11.18,11.18ZM57.23,139.89c-4.19,0-7.59,3.41-7.59,7.59s3.41,7.59,7.59,7.59,7.59-3.41,7.59-7.59-3.41-7.59-7.59-7.59Z"/><path class="cls-4" d="M126.1,31.31h-45.66c-12.46,0-22.56,10.1-22.56,22.56v108.25c0,12.46,10.1,22.56,22.56,22.56h65.14c12.46,0,22.56-10.1,22.56-22.56v-88.77l-42.04-42.04Z"/><path class="cls-2" d="M145.58,186.48h-65.14c-13.43,0-24.36-10.93-24.36-24.36V53.88c0-13.43,10.93-24.36,24.36-24.36h45.66c.48,0,.93.19,1.27.52l42.04,42.04c.34.34.52.79.52,1.27v88.77c0,13.43-10.93,24.36-24.36,24.36ZM80.44,33.1c-11.45,0-20.77,9.32-20.77,20.77v108.25c0,11.45,9.32,20.77,20.77,20.77h65.14c11.45,0,20.77-9.32,20.77-20.77v-88.02l-41-41h-44.92Z"/><path class="cls-3" d="M126.1,31.31l42.04,42.04h-33.08c-4.95,0-8.97-4.01-8.97-8.97V31.31Z"/><path class="cls-2" d="M168.15,75.15s0,0,0,0h-33.08c-5.93,0-10.76-4.83-10.76-10.76V31.31c0-.72.44-1.38,1.11-1.66.67-.28,1.44-.12,1.95.39l41.96,41.96c.38.33.61.81.61,1.35,0,.99-.8,1.79-1.79,1.79ZM127.89,35.64v28.75c0,3.96,3.22,7.17,7.17,7.17h28.75l-35.93-35.93Z"/><path class="cls-1" d="M58.08,93.37c-5.57,0-10.09,4.52-10.09,10.09v42.26h.18c.9-4.65,4.99-8.17,9.91-8.17h101.64v-44.18H58.08Z"/><path class="cls-2" d="M48.18,147.52h-.18c-.99,0-1.79-.8-1.79-1.79v-42.26c0-6.55,5.33-11.88,11.88-11.88h101.64c.99,0,1.79.8,1.79,1.79v44.18c0,.99-.8,1.79-1.79,1.79H58.08c-3.97,0-7.4,2.83-8.15,6.72-.16.84-.9,1.45-1.76,1.45ZM58.08,95.16c-4.58,0-8.3,3.72-8.3,8.3v35.68c2.16-2.11,5.11-3.38,8.3-3.38h99.84v-40.6H58.08Z"/><path class="cls-4" d="M74.46,116.14c0-6.35,4.84-10.97,11.37-10.97,3.31,0,6.19,1.13,8.15,3.34l-1.99,1.93c-1.66-1.75-3.68-2.54-6.04-2.54-4.84,0-8.43,3.49-8.43,8.25s3.59,8.25,8.43,8.25c2.36,0,4.38-.83,6.04-2.58l1.99,1.93c-1.96,2.21-4.84,3.37-8.19,3.37-6.5,0-11.34-4.63-11.34-10.97Z"/><path class="cls-4" d="M111.52,121.5h-11.4l-2.36,5.36h-3.16l9.72-21.46h3.04l9.75,21.46h-3.22l-2.36-5.36ZM110.45,119.05l-4.63-10.51-4.63,10.51h9.26Z"/><path class="cls-4" d="M120.29,105.41h9.04c6.9,0,11.59,4.35,11.59,10.73s-4.69,10.73-11.59,10.73h-9.04v-21.46ZM129.15,124.2c5.3,0,8.71-3.25,8.71-8.06s-3.4-8.06-8.71-8.06h-5.79v16.12h5.79Z"/></svg>