<svg xmlns="http://www.w3.org/2000/svg" width="30" height="30" viewBox="0 0 30 30"><path fill="#FFF" fill-rule="evenodd" d="M15,0 C23.2842712,0 30,6.71572875 30,15 C30,23.2842712 23.2842712,30 15,30 C6.71572875,30 0,23.2842712 0,15 C0,6.71572875 6.71572875,0 15,0 Z M10.8750697,5.07028897 C9.27774679,5.14615642 7.85889571,5.51210532 6.68544339,6.68135669 C5.51199108,7.85060806 5.15058561,9.26977574 5.07027328,10.8719179 C5.0273285,11.6287329 5.00406674,13.0783576 5.00048801,14.5857165 L5.00048801,15.4098207 C5.00406674,16.9171796 5.0273285,18.3668043 5.07027328,19.1236193 C5.14612381,20.7257615 5.51199108,22.1449292 6.68544339,23.3141805 C7.85889571,24.4834319 9.273285,24.8493808 10.8750697,24.929711 C12.5259342,25.0234297 17.4740658,25.0234297 19.1249303,24.929711 C20.726715,24.8538436 22.1455661,24.4878947 23.3145566,23.3141805 C24.4835471,22.1449292 24.8494144,20.7257615 24.9297267,19.1236193 C25.0234244,17.4723865 25.0234244,12.5276135 24.9297267,10.8763807 C24.8538762,9.27423854 24.4880089,7.85507085 23.3145566,6.68581948 C22.1455661,5.51656811 20.726715,5.15061921 19.1249303,5.07028897 C17.4740658,4.97657034 12.5259342,4.97657034 10.8750697,5.07028897 Z M15.0022309,6.80185206 C16.4567764,6.80185206 19.5844953,6.68581948 20.8962632,7.20350329 C21.7707752,7.55160103 22.4445064,8.22548254 22.7969883,9.10465246 C23.3190184,10.4211759 23.1985499,13.54513 23.1985499,15 C23.1985499,16.45487 23.3190184,19.5832868 22.7969883,20.8953475 C22.4489682,21.7700547 21.775237,22.4439362 20.8962632,22.7964967 C19.5800335,23.3186433 16.4567764,23.1981479 15.0022309,23.1981479 C13.5476854,23.1981479 10.4199665,23.3141805 9.10819855,22.7964967 C8.23368656,22.448399 7.55995538,21.7745175 7.20747351,20.8953475 C6.68544339,19.5788241 6.80591188,16.45487 6.80591188,15 C6.80591188,13.54513 6.68990519,10.4167132 7.20747351,9.10465246 C7.55549359,8.22994533 8.22922476,7.55606382 9.10819855,7.20350329 C10.4244283,6.68135669 13.5476854,6.80185206 15.0022309,6.80185206 Z M15.0022309,9.87225259 C12.1645287,9.87225259 9.87562744,12.1616646 9.87562744,15 C9.87562744,17.8383354 12.1645287,20.1277474 15.0022309,20.1277474 C17.8399331,20.1277474 20.1288344,17.8383354 20.1288344,15 C20.1288344,12.1616646 17.8399331,9.87225259 15.0022309,9.87225259 Z M15.0022309,11.6662948 C16.8404908,11.6662948 18.3351924,13.1613299 18.3351924,15 C18.3351924,16.8386701 16.836029,18.3337052 15.0022309,18.3337052 C13.1684328,18.3337052 11.6692694,16.8386701 11.6692694,15 C11.6692694,13.1613299 13.163971,11.6662948 15.0022309,11.6662948 Z M20.3385388,8.46647328 C19.678193,8.46647328 19.1427775,9.00200826 19.1427775,9.66250139 C19.1427775,10.3229945 19.6737312,10.8585295 20.3385388,10.8585295 C20.9988846,10.8585295 21.5343001,10.3274573 21.5343001,9.66250139 C21.5343001,9.00200826 20.9988846,8.46647328 20.3385388,8.46647328 Z"/></svg>