<svg xmlns="http://www.w3.org/2000/svg" width="30" height="30" viewBox="0 0 30 30"><g fill="none" fill-rule="evenodd"><circle cx="15" cy="15" r="15" fill="#FFF"/><path fill="#414141" fill-rule="nonzero" d="M23.6238947,10.8775385 C23.4087304,10.131537 22.8024293,9.55344112 22.0323158,9.36 C20.6283158,9 15,9 15,9 C15,9 9.37168421,9 7.96768421,9.35907692 C7.19733255,9.55268406 6.59097943,10.1311812 6.37610526,10.8775385 C6,12.2169231 6,15.0129231 6,15.0129231 C6,15.0129231 6,17.8070769 6.37610526,19.1464615 C6.58357895,19.8849231 7.19273684,20.4433846 7.96768421,20.6418462 C9.37168421,21 15,21 15,21 C15,21 20.6283158,21 22.0323158,20.6409231 C22.8072632,20.4433846 23.4164211,19.8858462 23.6238947,19.1464615 C24,17.8070769 24,15.012 24,15.012 C24,15.012 24,12.2169231 23.6238947,10.8775385 Z M13.1592632,17.5495385 L13.1592632,12.4744615 L17.8638947,15.0129231 L13.1592632,17.5495385 Z"/></g></svg>