<?xml version="1.0" encoding="UTF-8"?>
<svg id="Layer_1" xmlns="http://www.w3.org/2000/svg" version="1.1" viewBox="0 0 216 216">
  <!-- Generator: Adobe Illustrator 29.6.0, SVG Export Plug-In . SVG Version: 2.1.1 Build 207)  -->
  <defs>
    <style>
      .st0 {
        fill: #e91e52;
      }

      .st1 {
        fill: #010101;
        font-family: Montserrat-Regular, Montserrat;
        font-size: 27.61px;
      }
    </style>
  </defs>
  <path class="st0" d="M107.82,116.35c-8.57,0-16.63-3.34-22.69-9.4-6.06-6.06-9.4-14.12-9.4-22.69s3.34-16.63,9.4-22.69c6.06-6.06,14.12-9.4,22.69-9.4s16.63,3.34,22.69,9.4c6.06,6.06,9.4,14.12,9.4,22.69s-3.34,16.63-9.4,22.69c-6.06,6.06-14.12,9.4-22.69,9.4ZM107.82,55.19c-16.03,0-29.08,13.04-29.08,29.08s13.04,29.08,29.08,29.08,29.08-13.04,29.08-29.08-13.04-29.08-29.08-29.08Z"/>
  <path class="st0" d="M107.35,47.08c-.29,0-.59-.09-.85-.26-.68-.47-.86-1.4-.39-2.09,1.17-1.7,1.43-3.87.71-5.81l-.85-2.28c-.9-2.42-.75-5.14.4-7.45l.77-1.55c.37-.74,1.27-1.04,2.01-.67.74.37,1.04,1.27.67,2.01l-.77,1.55c-.78,1.57-.88,3.41-.27,5.06l.85,2.28c1.06,2.85.66,6.04-1.05,8.55-.29.42-.76.65-1.24.65Z"/>
  <path class="st0" d="M80.58,58.7c-.71,0-1.34-.5-1.47-1.23-.38-2.03-1.73-3.75-3.6-4.61l-2.21-1.01c-2.35-1.08-4.16-3.1-4.98-5.55l-.55-1.64c-.26-.79.16-1.64.95-1.9.79-.26,1.64.16,1.9.95l.55,1.64c.55,1.66,1.79,3.04,3.38,3.77l2.21,1.01c2.76,1.27,4.74,3.8,5.3,6.79.15.82-.38,1.6-1.2,1.75-.09.02-.19.03-.28.03Z"/>
  <path class="st0" d="M57.69,86.3c-1.44,0-2.88-.33-4.19-.99l-1.55-.77c-.74-.37-1.04-1.27-.67-2.01.37-.74,1.27-1.04,2.01-.67l1.55.77c1.57.78,3.41.88,5.06.27l2.28-.85c2.85-1.06,6.04-.66,8.55,1.05.68.47.86,1.4.39,2.09-.47.68-1.4.86-2.09.39-1.7-1.17-3.87-1.43-5.81-.71l-2.28.85c-1.05.39-2.15.58-3.25.58Z"/>
  <path class="st0" d="M68.48,124.01c-.63,0-1.21-.4-1.42-1.03-.26-.79.16-1.64.95-1.9l1.64-.55c1.66-.55,3.04-1.79,3.77-3.38l1.01-2.21c1.27-2.76,3.8-4.74,6.79-5.3.82-.15,1.6.38,1.75,1.2.15.82-.38,1.6-1.2,1.75-2.03.38-3.75,1.73-4.61,3.6l-1.01,2.21c-1.08,2.35-3.1,4.16-5.55,4.98l-1.64.55c-.16.05-.32.08-.48.08Z"/>
  <path class="st0" d="M107.49,140.59c-.23,0-.45-.05-.67-.16-.74-.37-1.04-1.27-.67-2.01l.77-1.55c.78-1.57.88-3.41.27-5.06l-.85-2.28c-1.06-2.85-.66-6.04,1.05-8.55.47-.68,1.4-.86,2.09-.39.68.47.86,1.4.39,2.09-1.17,1.7-1.43,3.87-.71,5.81l.85,2.28c.9,2.42.75,5.14-.4,7.45l-.77,1.55c-.26.53-.79.83-1.34.83Z"/>
  <path class="st0" d="M146.8,124.72c-.63,0-1.21-.4-1.42-1.03l-.55-1.64c-.55-1.66-1.79-3.04-3.38-3.77l-2.21-1.01c-2.76-1.27-4.74-3.8-5.3-6.79-.15-.82.38-1.6,1.2-1.75.82-.15,1.6.38,1.75,1.2.38,2.03,1.73,3.75,3.6,4.61l2.21,1.01c2.35,1.08,4.16,3.1,4.98,5.55l.55,1.64c.26.79-.16,1.64-.95,1.9-.16.05-.32.08-.48.08Z"/>
  <path class="st0" d="M150.57,85.93c-1.87,0-3.72-.56-5.29-1.64-.68-.47-.86-1.4-.39-2.09.47-.68,1.4-.86,2.09-.39,1.7,1.17,3.87,1.43,5.81.71l2.28-.85c2.42-.9,5.14-.75,7.45.4l1.55.77c.74.37,1.04,1.27.67,2.01-.37.74-1.27,1.04-2.01.67l-1.55-.77c-1.57-.78-3.41-.88-5.06-.27l-2.28.85c-1.05.39-2.16.58-3.25.58Z"/>
  <path class="st0" d="M134.5,57.79c-.71,0-1.34-.5-1.47-1.23-.15-.82.38-1.6,1.2-1.75,2.03-.38,3.75-1.73,4.61-3.6l1.01-2.21c1.08-2.35,3.1-4.16,5.55-4.98l1.64-.55c.79-.26,1.64.16,1.9.95.26.79-.16,1.64-.95,1.9l-1.64.55c-1.66.55-3.04,1.79-3.77,3.38l-1.01,2.21c-1.27,2.76-3.8,4.74-6.79,5.3-.09.02-.19.03-.28.03Z"/>
  <path class="st0" d="M93.27,50.08c-.55,0-1.08-.3-1.34-.83l-3.4-6.8c-.37-.74-.07-1.64.67-2.01.74-.37,1.64-.07,2.01.67l3.4,6.8c.37.74.07,1.64-.67,2.01-.22.11-.44.16-.67.16Z"/>
  <path class="st0" d="M72.74,70.78c-.16,0-.32-.02-.48-.08l-7.21-2.4c-.79-.26-1.21-1.11-.95-1.9.26-.79,1.11-1.21,1.9-.95l7.21,2.4c.79.26,1.21,1.11.95,1.9-.21.63-.8,1.03-1.42,1.03Z"/>
  <path class="st0" d="M66.07,103.34c-.55,0-1.08-.3-1.34-.83-.37-.74-.07-1.64.67-2.01l6.8-3.4c.74-.37,1.64-.07,2.01.67.37.74.07,1.64-.67,2.01l-6.8,3.4c-.22.11-.44.16-.67.16Z"/>
  <path class="st0" d="M91.17,127.67c-.16,0-.32-.02-.48-.08-.79-.26-1.21-1.11-.95-1.9l2.4-7.21c.26-.79,1.11-1.21,1.9-.95.79.26,1.21,1.11.95,1.9l-2.4,7.21c-.21.63-.8,1.03-1.42,1.03Z"/>
  <path class="st0" d="M126.13,127.13c-.55,0-1.08-.3-1.34-.83l-3.4-6.8c-.37-.74-.07-1.64.67-2.01.74-.37,1.64-.07,2.01.67l3.4,6.8c.37.74.07,1.64-.67,2.01-.22.11-.44.16-.67.16Z"/>
  <path class="st0" d="M150.47,102.03c-.16,0-.32-.02-.48-.08l-7.21-2.4c-.79-.26-1.21-1.11-.95-1.9.26-.79,1.11-1.21,1.9-.95l7.21,2.4c.79.26,1.21,1.11.95,1.9-.21.63-.8,1.03-1.42,1.03Z"/>
  <path class="st0" d="M80.58,58.7c-.71,0-1.34-.5-1.47-1.23-.38-2.03-1.73-3.75-3.6-4.61l-2.21-1.01c-2.35-1.08-4.16-3.1-4.98-5.55l-.55-1.64c-.26-.79.16-1.64.95-1.9.79-.26,1.64.16,1.9.95l.55,1.64c.55,1.66,1.79,3.04,3.38,3.77l2.21,1.01c2.76,1.27,4.74,3.8,5.3,6.79.15.82-.38,1.6-1.2,1.75-.09.02-.19.03-.28.03Z"/>
  <path class="st0" d="M57.69,86.3c-1.44,0-2.88-.33-4.19-.99l-1.55-.77c-.74-.37-1.04-1.27-.67-2.01.37-.74,1.27-1.04,2.01-.67l1.55.77c1.57.78,3.41.88,5.06.27l2.28-.85c2.85-1.06,6.04-.66,8.55,1.05.68.47.86,1.4.39,2.09-.47.68-1.4.86-2.09.39-1.7-1.17-3.87-1.43-5.81-.71l-2.28.85c-1.05.39-2.15.58-3.25.58Z"/>
  <path class="st0" d="M68.48,124.01c-.63,0-1.21-.4-1.42-1.03-.26-.79.16-1.64.95-1.9l1.64-.55c1.66-.55,3.04-1.79,3.77-3.38l1.01-2.21c1.27-2.76,3.8-4.74,6.79-5.3.82-.15,1.6.38,1.75,1.2.15.82-.38,1.6-1.2,1.75-2.03.38-3.75,1.73-4.61,3.6l-1.01,2.21c-1.08,2.35-3.1,4.16-5.55,4.98l-1.64.55c-.16.05-.32.08-.48.08Z"/>
  <path class="st0" d="M107.49,140.59c-.23,0-.45-.05-.67-.16-.74-.37-1.04-1.27-.67-2.01l.77-1.55c.78-1.57.88-3.41.27-5.06l-.85-2.28c-1.06-2.85-.66-6.04,1.05-8.55.47-.68,1.4-.86,2.09-.39.68.47.86,1.4.39,2.09-1.17,1.7-1.43,3.87-.71,5.81l.85,2.28c.9,2.42.75,5.14-.4,7.45l-.77,1.55c-.26.53-.79.83-1.34.83Z"/>
  <path class="st0" d="M146.8,124.72c-.63,0-1.21-.4-1.42-1.03l-.55-1.64c-.55-1.66-1.79-3.04-3.38-3.77l-2.21-1.01c-2.76-1.27-4.74-3.8-5.3-6.79-.15-.82.38-1.6,1.2-1.75.82-.15,1.6.38,1.75,1.2.38,2.03,1.73,3.75,3.6,4.61l2.21,1.01c2.35,1.08,4.16,3.1,4.98,5.55l.55,1.64c.26.79-.16,1.64-.95,1.9-.16.05-.32.08-.48.08Z"/>
  <path class="st0" d="M150.57,85.93c-1.87,0-3.72-.56-5.29-1.64-.68-.47-.86-1.4-.39-2.09.47-.68,1.4-.86,2.09-.39,1.7,1.17,3.87,1.43,5.81.71l2.28-.85c2.42-.9,5.14-.75,7.45.4l1.55.77c.74.37,1.04,1.27.67,2.01-.37.74-1.27,1.04-2.01.67l-1.55-.77c-1.57-.78-3.41-.88-5.06-.27l-2.28.85c-1.05.39-2.16.58-3.25.58Z"/>
  <path class="st0" d="M134.5,57.79c-.71,0-1.34-.5-1.47-1.23-.15-.82.38-1.6,1.2-1.75,2.03-.38,3.75-1.73,4.61-3.6l1.01-2.21c1.08-2.35,3.1-4.16,5.55-4.98l1.64-.55c.79-.26,1.64.16,1.9.95.26.79-.16,1.64-.95,1.9l-1.64.55c-1.66.55-3.04,1.79-3.77,3.38l-1.01,2.21c-1.27,2.76-3.8,4.74-6.79,5.3-.09.02-.19.03-.28.03Z"/>
  <path class="st0" d="M107.35,47.08c-.29,0-.59-.09-.85-.26-.68-.47-.86-1.4-.39-2.09,1.17-1.7,1.43-3.87.71-5.81l-.85-2.28c-.9-2.42-.75-5.14.4-7.45l.77-1.55c.37-.74,1.27-1.04,2.01-.67.74.37,1.04,1.27.67,2.01l-.77,1.55c-.78,1.57-.88,3.41-.27,5.06l.85,2.28c1.06,2.85.66,6.04-1.05,8.55-.29.42-.76.65-1.24.65Z"/>
  <path class="st0" d="M72.74,70.78c-.16,0-.32-.02-.48-.08l-7.21-2.4c-.79-.26-1.21-1.11-.95-1.9.26-.79,1.11-1.21,1.9-.95l7.21,2.4c.79.26,1.21,1.11.95,1.9-.21.63-.8,1.03-1.42,1.03Z"/>
  <path class="st0" d="M66.07,103.34c-.55,0-1.08-.3-1.34-.83-.37-.74-.07-1.64.67-2.01l6.8-3.4c.74-.37,1.64-.07,2.01.67.37.74.07,1.64-.67,2.01l-6.8,3.4c-.22.11-.44.16-.67.16Z"/>
  <path class="st0" d="M91.17,127.67c-.16,0-.32-.02-.48-.08-.79-.26-1.21-1.11-.95-1.9l2.4-7.21c.26-.79,1.11-1.21,1.9-.95.79.26,1.21,1.11.95,1.9l-2.4,7.21c-.21.63-.8,1.03-1.42,1.03Z"/>
  <path class="st0" d="M126.13,127.13c-.55,0-1.08-.3-1.34-.83l-3.4-6.8c-.37-.74-.07-1.64.67-2.01.74-.37,1.64-.07,2.01.67l3.4,6.8c.37.74.07,1.64-.67,2.01-.22.11-.44.16-.67.16Z"/>
  <path class="st0" d="M150.47,102.03c-.16,0-.32-.02-.48-.08l-7.21-2.4c-.79-.26-1.21-1.11-.95-1.9.26-.79,1.11-1.21,1.9-.95l7.21,2.4c.79.26,1.21,1.11.95,1.9-.21.63-.8,1.03-1.42,1.03Z"/>
  <path class="st0" d="M143.13,70.47c-.55,0-1.08-.3-1.34-.83-.37-.74-.07-1.64.67-2.01l6.8-3.4c.74-.37,1.64-.07,2.01.67.37.74.07,1.64-.67,2.01l-6.8,3.4c-.22.11-.44.16-.67.16Z"/>
  <path class="st0" d="M57.69,86.3c-1.44,0-2.88-.33-4.19-.99l-1.55-.77c-.74-.37-1.04-1.27-.67-2.01.37-.74,1.27-1.04,2.01-.67l1.55.77c1.57.78,3.41.88,5.06.27l2.28-.85c2.85-1.06,6.04-.66,8.55,1.05.68.47.86,1.4.39,2.09-.47.68-1.4.86-2.09.39-1.7-1.17-3.87-1.43-5.81-.71l-2.28.85c-1.05.39-2.15.58-3.25.58Z"/>
  <path class="st0" d="M68.48,124.01c-.63,0-1.21-.4-1.42-1.03-.26-.79.16-1.64.95-1.9l1.64-.55c1.66-.55,3.04-1.79,3.77-3.38l1.01-2.21c1.27-2.76,3.8-4.74,6.79-5.3.82-.15,1.6.38,1.75,1.2.15.82-.38,1.6-1.2,1.75-2.03.38-3.75,1.73-4.61,3.6l-1.01,2.21c-1.08,2.35-3.1,4.16-5.55,4.98l-1.64.55c-.16.05-.32.08-.48.08Z"/>
  <path class="st0" d="M107.49,140.59c-.23,0-.45-.05-.67-.16-.74-.37-1.04-1.27-.67-2.01l.77-1.55c.78-1.57.88-3.41.27-5.06l-.85-2.28c-1.06-2.85-.66-6.04,1.05-8.55.47-.68,1.4-.86,2.09-.39.68.47.86,1.4.39,2.09-1.17,1.7-1.43,3.87-.71,5.81l.85,2.28c.9,2.42.75,5.14-.4,7.45l-.77,1.55c-.26.53-.79.83-1.34.83Z"/>
  <path class="st0" d="M146.8,124.72c-.63,0-1.21-.4-1.42-1.03l-.55-1.64c-.55-1.66-1.79-3.04-3.38-3.77l-2.21-1.01c-2.76-1.27-4.74-3.8-5.3-6.79-.15-.82.38-1.6,1.2-1.75.82-.15,1.6.38,1.75,1.2.38,2.03,1.73,3.75,3.6,4.61l2.21,1.01c2.35,1.08,4.16,3.1,4.98,5.55l.55,1.64c.26.79-.16,1.64-.95,1.9-.16.05-.32.08-.48.08Z"/>
  <path class="st0" d="M150.57,85.93c-1.87,0-3.72-.56-5.29-1.64-.68-.47-.86-1.4-.39-2.09.47-.68,1.4-.86,2.09-.39,1.7,1.17,3.87,1.43,5.81.71l2.28-.85c2.42-.9,5.14-.75,7.45.4l1.55.77c.74.37,1.04,1.27.67,2.01-.37.74-1.27,1.04-2.01.67l-1.55-.77c-1.57-.78-3.41-.88-5.06-.27l-2.28.85c-1.05.39-2.16.58-3.25.58Z"/>
  <path class="st0" d="M134.5,57.79c-.71,0-1.34-.5-1.47-1.23-.15-.82.38-1.6,1.2-1.75,2.03-.38,3.75-1.73,4.61-3.6l1.01-2.21c1.08-2.35,3.1-4.16,5.55-4.98l1.64-.55c.79-.26,1.64.16,1.9.95.26.79-.16,1.64-.95,1.9l-1.64.55c-1.66.55-3.04,1.79-3.77,3.38l-1.01,2.21c-1.27,2.76-3.8,4.74-6.79,5.3-.09.02-.19.03-.28.03Z"/>
  <path class="st0" d="M107.35,47.08c-.29,0-.59-.09-.85-.26-.68-.47-.86-1.4-.39-2.09,1.17-1.7,1.43-3.87.71-5.81l-.85-2.28c-.9-2.42-.75-5.14.4-7.45l.77-1.55c.37-.74,1.27-1.04,2.01-.67.74.37,1.04,1.27.67,2.01l-.77,1.55c-.78,1.57-.88,3.41-.27,5.06l.85,2.28c1.06,2.85.66,6.04-1.05,8.55-.29.42-.76.65-1.24.65Z"/>
  <path class="st0" d="M80.58,58.7c-.71,0-1.34-.5-1.47-1.23-.38-2.03-1.73-3.75-3.6-4.61l-2.21-1.01c-2.35-1.08-4.16-3.1-4.98-5.55l-.55-1.64c-.26-.79.16-1.64.95-1.9.79-.26,1.64.16,1.9.95l.55,1.64c.55,1.66,1.79,3.04,3.38,3.77l2.21,1.01c2.76,1.27,4.74,3.8,5.3,6.79.15.82-.38,1.6-1.2,1.75-.09.02-.19.03-.28.03Z"/>
  <path class="st0" d="M66.07,103.34c-.55,0-1.08-.3-1.34-.83-.37-.74-.07-1.64.67-2.01l6.8-3.4c.74-.37,1.64-.07,2.01.67.37.74.07,1.64-.67,2.01l-6.8,3.4c-.22.11-.44.16-.67.16Z"/>
  <path class="st0" d="M91.17,127.67c-.16,0-.32-.02-.48-.08-.79-.26-1.21-1.11-.95-1.9l2.4-7.21c.26-.79,1.11-1.21,1.9-.95.79.26,1.21,1.11.95,1.9l-2.4,7.21c-.21.63-.8,1.03-1.42,1.03Z"/>
  <path class="st0" d="M126.13,127.13c-.55,0-1.08-.3-1.34-.83l-3.4-6.8c-.37-.74-.07-1.64.67-2.01.74-.37,1.64-.07,2.01.67l3.4,6.8c.37.74.07,1.64-.67,2.01-.22.11-.44.16-.67.16Z"/>
  <path class="st0" d="M150.47,102.03c-.16,0-.32-.02-.48-.08l-7.21-2.4c-.79-.26-1.21-1.11-.95-1.9.26-.79,1.11-1.21,1.9-.95l7.21,2.4c.79.26,1.21,1.11.95,1.9-.21.63-.8,1.03-1.42,1.03Z"/>
  <path class="st0" d="M143.13,70.47c-.55,0-1.08-.3-1.34-.83-.37-.74-.07-1.64.67-2.01l6.8-3.4c.74-.37,1.64-.07,2.01.67.37.74.07,1.64-.67,2.01l-6.8,3.4c-.22.11-.44.16-.67.16Z"/>
  <path class="st0" d="M122.42,49.95c-.16,0-.32-.02-.48-.08-.79-.26-1.21-1.11-.95-1.9l2.4-7.21c.26-.79,1.11-1.21,1.9-.95.79.26,1.21,1.11.95,1.9l-2.4,7.21c-.21.63-.8,1.03-1.42,1.03Z"/>
  <text class="st1" transform="translate(77.36 181.95)"><tspan x="0" y="0">SUN</tspan></text>
</svg>