<svg xmlns="http://www.w3.org/2000/svg" width="27" height="27" viewBox="0 0 27 27"><g fill="none"><path fill="#4FACD8" d="M23.111413,27 C25.9063349,27 27,25.9063353 27,23.1114134 L27,3.88858701 C27,1.0936651 25.9063349,0 23.111413,0 L3.88858696,0 C1.09366508,0 0,1.0936651 0,3.88858701 L0,23.1114134 C0,25.9063353 1.09366508,27 3.88858696,27 L23.111413,27 Z"/><g fill="#FFF" transform="translate(4 6)"><path d="M0,2.88087891 L0,1.40625 C0,0.629589844 0.637984375,0 1.425,0 L17.575,0 C18.3620156,0 19,0.629589844 19,1.40625 L19,2.88087891 C17.5529719,3.99234375 17.6086062,4.00142578 12.2243031,7.85771484 C11.6008656,8.30625 10.3604031,8.24687925 9.5,8.23363706 C8.63888438,8.2464105 7.40008437,8.30695312 6.77569687,7.85765625 C1.39109687,4.00119141 1.44595937,3.99146484 0,2.88087891 Z"/><path d="M19,5.26025391 L19,13.59375 C19,14.3704102 18.3620156,15 17.575,15 L1.425,15 C0.637984375,15 0,14.3704102 0,13.59375 L0,5.26025391 C0.82875625,5.89271484 1.97890938,6.73892578 5.65861562,9.37435547 C6.49948437,9.98027344 7.91338125,10.1165472 9.49982188,10.1086371 C11.0962375,10.1164886 12.5301437,9.95847656 13.3425719,9.37347656 C17.0213281,6.73880859 18.1712437,5.89265625 19,5.26025391 Z"/></g></g></svg>