<?xml version="1.0" encoding="UTF-8"?><svg id="Layer_1" xmlns="http://www.w3.org/2000/svg" viewBox="0 0 216 216"><defs><style>.cls-1{fill:#010101;}.cls-2{fill:#e91e52;}</style></defs><path class="cls-2" d="M107.08,101.26s-.01,0-.02,0c-11.61-.12-26.94-.23-34.08-.07-5.47.12-10.82-2.01-14.69-5.87-3.77-3.76-5.8-8.71-5.7-13.95,0,0,0-.02,0-.03.01-.36.03-.77.06-1.19.68-8.81,7.18-16.22,15.79-18.02,2.25-.47,4.52-.56,6.76-.26,1.88-5.23,5.31-9.9,9.78-13.25,4.98-3.74,10.91-5.72,17.15-5.72,11.86,0,22.4,7.28,26.66,18.27,1.37-.35,2.78-.53,4.22-.53,7.44,0,13.99,4.78,16.32,11.77,7.82.33,14.07,6.8,14.07,14.7,0,4.9-2.42,9.46-6.48,12.2-.69.46-1.62.28-2.08-.4-.46-.69-.28-1.62.4-2.08,3.23-2.18,5.16-5.81,5.16-9.71,0-6.46-5.24-11.71-11.69-11.71-.06,0-.12,0-.18,0-.11,0-.21,0-.31,0-.68,0-1.28-.46-1.45-1.12-1.63-6.27-7.28-10.65-13.75-10.65-1.6,0-3.16.27-4.64.8-.38.14-.8.11-1.16-.07-.36-.18-.64-.49-.77-.88-3.48-10.52-13.24-17.59-24.3-17.59s-21.15,7.28-24.47,18.1c-.23.74-.97,1.18-1.73,1.03-2.27-.45-4.58-.44-6.87.04-7.31,1.53-12.83,7.83-13.41,15.31-.03.36-.04.71-.05,1.06-.08,4.41,1.63,8.58,4.82,11.75,3.29,3.28,7.85,5.1,12.5,4.99,7.18-.16,22.55-.05,34.18.07.83,0,1.49.69,1.49,1.52,0,.82-.68,1.49-1.5,1.49Z"/><path class="cls-2" d="M138.09,101.66s-.01,0-.02,0c-4.41-.06-8.78-.12-12.99-.17-.83-.01-1.49-.69-1.48-1.52.01-.82.68-1.48,1.5-1.48,0,0,.01,0,.02,0,4.22.05,8.59.11,13,.17.83.01,1.49.69,1.48,1.52-.01.82-.68,1.48-1.5,1.48Z"/><path class="cls-2" d="M88.64,82.12c-3.55,0-6.89-1.39-9.4-3.9-3.92-3.93-5.56-9.51-4.39-14.95.17-.81.97-1.33,1.78-1.15.81.17,1.33.97,1.15,1.78-.95,4.44.39,9,3.58,12.2,1.94,1.95,4.53,3.02,7.28,3.02s5.33-1.07,7.28-3.02c3.1-3.1,3.1-8.15,0-11.26-1.14-1.14-2.66-1.78-4.27-1.78s-3.13.63-4.27,1.78c-.59.59-1.54.59-2.12,0-.59-.59-.59-1.54,0-2.12,1.71-1.71,3.98-2.66,6.4-2.66,2.42,0,4.69.94,6.4,2.66,4.26,4.27,4.26,11.23,0,15.5-2.51,2.52-5.85,3.9-9.4,3.9Z"/><path class="cls-2" d="M109.64,113.83c-.56,0-1.14-.01-1.74-.04h-30.76c-.83,0-1.5-.67-1.5-1.5s.67-1.5,1.5-1.5h30.79s.05,0,.07,0c9.02.44,13.92-2.65,15.4-9.73.75-3.5-.3-7.08-2.81-9.6-1.52-1.52-3.53-2.36-5.67-2.36-2.14,0-4.16.84-5.67,2.36-2.39,2.4-2.39,6.29,0,8.69.87.87,2.02,1.35,3.25,1.35s2.38-.48,3.25-1.35c.59-.59,1.54-.59,2.12,0,.59.59.59,1.54,0,2.12-1.44,1.44-3.34,2.23-5.37,2.23-2.03,0-3.94-.79-5.38-2.23-3.56-3.56-3.56-9.36,0-12.93,2.08-2.09,4.85-3.24,7.8-3.24,0,0,0,0,0,0,2.95,0,5.72,1.15,7.8,3.24,3.23,3.24,4.59,7.86,3.63,12.34-.94,4.49-3.13,7.78-6.5,9.78-2.67,1.59-6.02,2.36-10.2,2.36Z"/><path class="cls-2" d="M141.51,123.89c-.63,0-1.28-.02-1.95-.05h-44.42c-.83,0-1.5-.67-1.5-1.5s.67-1.5,1.5-1.5h44.46s.05,0,.07,0c10.27.5,15.83-3.03,17.52-11.1.86-4-.35-8.09-3.22-10.97-1.74-1.75-4.06-2.71-6.52-2.71s-4.78.96-6.52,2.71c-2.76,2.77-2.76,7.27,0,10.04,1.01,1.02,2.36,1.57,3.79,1.57s2.78-.56,3.79-1.57c.59-.59,1.54-.59,2.12,0,.59.59.59,1.54,0,2.12-1.58,1.58-3.68,2.46-5.92,2.46s-4.34-.87-5.92-2.46c-3.93-3.94-3.93-10.35,0-14.28,2.31-2.32,5.38-3.59,8.65-3.59s6.34,1.27,8.65,3.59c3.59,3.6,5.1,8.73,4.03,13.72-1.05,5-3.48,8.66-7.23,10.89-2.98,1.77-6.72,2.63-11.38,2.63Z"/><path class="cls-1" d="M95.55,162.63l-6.51,19.32h-2.15l-5.66-16.48-5.69,16.48h-2.12l-6.51-19.32h2.1l5.58,16.62,5.77-16.62h1.91l5.69,16.7,5.66-16.7h1.96Z"/><path class="cls-1" d="M99.69,162.63h2.04v19.32h-2.04v-19.32Z"/><path class="cls-1" d="M124.18,162.63v19.32h-1.68l-12.42-15.68v15.68h-2.04v-19.32h1.68l12.45,15.68v-15.68h2.01Z"/><path class="cls-1" d="M130.47,162.63h7.87c6.18,0,10.35,3.98,10.35,9.66s-4.17,9.66-10.35,9.66h-7.87v-19.32ZM138.23,180.18c5.13,0,8.45-3.26,8.45-7.89s-3.31-7.89-8.45-7.89h-5.71v15.79h5.71Z"/></svg>