<?xml version="1.0" encoding="UTF-8"?><svg id="Layer_1" xmlns="http://www.w3.org/2000/svg" viewBox="0 0 216 216"><defs><style>.cls-1{fill:#010101;}.cls-2{fill:#e91e52;}</style></defs><path class="cls-2" d="M108,90.56c-3.95,0-7.17-3.22-7.17-7.17s3.22-7.17,7.17-7.17,7.17,3.22,7.17,7.17-3.22,7.17-7.17,7.17ZM108,79.23c-2.3,0-4.16,1.87-4.16,4.16s1.87,4.16,4.16,4.16,4.16-1.87,4.16-4.16-1.87-4.16-4.16-4.16Z"/><path class="cls-2" d="M108,99.62c-8.95,0-16.23-7.28-16.23-16.23s7.28-16.23,16.23-16.23,16.23,7.28,16.23,16.23-7.28,16.23-16.23,16.23ZM108,70.16c-7.29,0-13.23,5.93-13.23,13.23s5.93,13.23,13.23,13.23,13.23-5.93,13.23-13.23-5.93-13.23-13.23-13.23Z"/><path class="cls-2" d="M108,70.16c-.83,0-1.5-.67-1.5-1.5v-27.2c0-.83.67-1.5,1.5-1.5s1.5.67,1.5,1.5v27.2c0,.83-.67,1.5-1.5,1.5Z"/><path class="cls-2" d="M108,58.83c-.37,0-.75-.14-1.04-.42l-9.49-9.07c-.6-.57-.62-1.52-.05-2.12.57-.6,1.52-.62,2.12-.05l8.46,8.08,8.46-8.08c.6-.57,1.55-.55,2.12.05.57.6.55,1.55-.05,2.12l-9.49,9.07c-.29.28-.66.42-1.04.42Z"/><path class="cls-2" d="M108,41.83c-3.95,0-7.17-3.22-7.17-7.17s3.22-7.17,7.17-7.17,7.17,3.22,7.17,7.17-3.22,7.17-7.17,7.17ZM108,30.5c-2.3,0-4.16,1.87-4.16,4.16s1.87,4.16,4.16,4.16,4.16-1.87,4.16-4.16-1.87-4.16-4.16-4.16Z"/><path class="cls-2" d="M95.24,77.53c-.25,0-.51-.06-.75-.2l-23.55-13.6c-.72-.41-.96-1.33-.55-2.05.41-.72,1.33-.96,2.05-.55l23.55,13.6c.72.41.96,1.33.55,2.05-.28.48-.78.75-1.3.75Z"/><path class="cls-2" d="M72.83,75.55c-.65,0-1.25-.42-1.44-1.08-.23-.8.22-1.63,1.02-1.86l11.22-3.29-2.76-11.36c-.2-.81.3-1.62,1.1-1.81.81-.2,1.62.3,1.81,1.1l3.1,12.76c.19.78-.27,1.57-1.04,1.8l-12.6,3.69c-.14.04-.28.06-.42.06Z"/><path class="cls-2" d="M65.79,66.2c-1.24,0-2.47-.33-3.57-.96-1.66-.96-2.84-2.5-3.34-4.35-.5-1.85-.24-3.78.72-5.44.96-1.66,2.5-2.84,4.35-3.34,1.85-.5,3.78-.24,5.44.72,1.66.96,2.84,2.5,3.34,4.35.5,1.85.24,3.78-.72,5.44-.96,1.66-2.5,2.84-4.35,3.34-.62.17-1.24.25-1.87.25ZM65.81,54.86c-.36,0-.73.05-1.08.14-1.07.29-1.97.98-2.53,1.94-.56.96-.7,2.09-.42,3.16.29,1.07.98,1.97,1.94,2.53.96.56,2.09.7,3.16.42,1.07-.29,1.97-.98,2.53-1.94.56-.96.7-2.09.42-3.16-.29-1.07-.98-1.97-1.94-2.53,0,0,0,0,0,0-.64-.37-1.35-.56-2.08-.56Z"/><path class="cls-2" d="M71.69,105.86c-.52,0-1.02-.27-1.3-.75-.41-.72-.17-1.64.55-2.05l23.55-13.6c.72-.41,1.64-.17,2.05.55.41.72.17,1.64-.55,2.05l-23.55,13.6c-.24.14-.49.2-.75.2Z"/><path class="cls-2" d="M82.33,110.68c-.12,0-.24-.01-.36-.04-.81-.2-1.3-1.01-1.1-1.81l2.76-11.36-11.22-3.29c-.8-.23-1.25-1.07-1.02-1.86.23-.8,1.07-1.25,1.86-1.02l12.6,3.69c.77.23,1.23,1.02,1.04,1.8l-3.1,12.76c-.17.69-.78,1.15-1.46,1.15Z"/><path class="cls-2" d="M65.81,114.92c-.62,0-1.25-.08-1.87-.25-1.85-.5-3.39-1.68-4.35-3.34-.96-1.66-1.21-3.59-.72-5.44.5-1.85,1.68-3.39,3.34-4.35h0c3.42-1.98,7.81-.8,9.79,2.62.96,1.66,1.21,3.59.72,5.44-.5,1.85-1.68,3.39-3.34,4.35-1.1.64-2.33.96-3.57.96ZM63.72,104.15h0c-.96.56-1.65,1.45-1.94,2.53-.29,1.07-.14,2.2.42,3.16.56.96,1.45,1.65,2.53,1.94,1.07.29,2.2.14,3.16-.42.96-.56,1.65-1.45,1.94-2.53.29-1.07.14-2.2-.42-3.16-1.15-1.99-3.7-2.67-5.69-1.52Z"/><path class="cls-2" d="M108,126.82c-.83,0-1.5-.67-1.5-1.5v-27.2c0-.83.67-1.5,1.5-1.5s1.5.67,1.5,1.5v27.2c0,.83-.67,1.5-1.5,1.5Z"/><path class="cls-2" d="M117.49,120.02c-.37,0-.75-.14-1.04-.42l-8.46-8.08-8.46,8.08c-.6.57-1.55.55-2.12-.05-.57-.6-.55-1.55.05-2.12l9.49-9.07c.58-.55,1.49-.55,2.07,0l9.49,9.07c.6.57.62,1.52.05,2.12-.3.31-.69.46-1.09.46Z"/><path class="cls-2" d="M108,139.28c-3.95,0-7.17-3.22-7.17-7.17s3.22-7.17,7.17-7.17,7.17,3.22,7.17,7.17-3.22,7.17-7.17,7.17ZM108,127.95c-2.3,0-4.16,1.87-4.16,4.16s1.87,4.16,4.16,4.16,4.16-1.87,4.16-4.16-1.87-4.16-4.16-4.16Z"/><path class="cls-2" d="M144.31,105.86c-.25,0-.51-.06-.75-.2l-23.55-13.6c-.72-.41-.96-1.33-.55-2.05.41-.72,1.33-.96,2.05-.55l23.55,13.6c.72.41.96,1.33.55,2.05-.28.48-.78.75-1.3.75Z"/><path class="cls-2" d="M133.67,110.68c-.68,0-1.29-.46-1.46-1.15l-3.1-12.76c-.19-.78.27-1.57,1.04-1.8l12.6-3.69c.8-.23,1.63.22,1.86,1.02.23.8-.22,1.63-1.02,1.86l-11.22,3.29,2.76,11.36c.2.81-.3,1.62-1.1,1.81-.12.03-.24.04-.36.04Z"/><path class="cls-2" d="M150.19,114.92c-1.24,0-2.47-.33-3.57-.96h0c-3.42-1.98-4.6-6.37-2.62-9.79,1.98-3.42,6.37-4.6,9.79-2.62,1.66.96,2.84,2.5,3.34,4.35.5,1.85.24,3.78-.72,5.44-.96,1.66-2.5,2.84-4.35,3.34-.62.17-1.24.25-1.87.25ZM150.21,103.59c-1.44,0-2.84.75-3.61,2.08-.56.96-.7,2.09-.42,3.16.29,1.07.98,1.97,1.94,2.53h0c.96.56,2.09.7,3.16.42,1.07-.29,1.97-.98,2.53-1.94.56-.96.7-2.09.42-3.16-.29-1.07-.98-1.97-1.94-2.53-.65-.38-1.37-.56-2.08-.56Z"/><path class="cls-2" d="M120.76,77.53c-.52,0-1.02-.27-1.3-.75-.41-.72-.17-1.64.55-2.05l23.55-13.6c.72-.41,1.64-.17,2.05.55.41.72.17,1.64-.55,2.05l-23.55,13.6c-.24.14-.49.2-.75.2Z"/><path class="cls-2" d="M143.17,75.55c-.14,0-.28-.02-.42-.06l-12.6-3.69c-.77-.23-1.23-1.02-1.04-1.8l3.1-12.76c.2-.81,1.01-1.3,1.81-1.1.81.2,1.3,1.01,1.1,1.81l-2.76,11.36,11.22,3.29c.8.23,1.25,1.07,1.02,1.86-.19.65-.79,1.08-1.44,1.08Z"/><path class="cls-2" d="M150.21,66.2c-.62,0-1.25-.08-1.87-.25-1.85-.5-3.39-1.68-4.35-3.34-.96-1.66-1.21-3.59-.72-5.44.5-1.85,1.68-3.39,3.34-4.35,3.42-1.98,7.81-.8,9.79,2.62.96,1.66,1.21,3.59.72,5.44-.5,1.85-1.68,3.39-3.34,4.35h0c-1.1.64-2.33.96-3.57.96ZM150.19,54.86c-.71,0-1.42.18-2.08.56-.96.56-1.65,1.45-1.94,2.53-.29,1.07-.14,2.2.42,3.16.56.96,1.45,1.65,2.53,1.94,1.07.29,2.2.14,3.16-.42h0c.96-.56,1.65-1.45,1.94-2.53.29-1.07.14-2.2-.42-3.16-.77-1.33-2.17-2.08-3.61-2.08Z"/><path class="cls-1" d="M62.67,179.6l.8-1.57c1.38,1.35,3.84,2.35,6.38,2.35,3.62,0,5.19-1.52,5.19-3.42,0-5.3-11.9-2.04-11.9-9.19,0-2.84,2.21-5.3,7.12-5.3,2.18,0,4.44.63,5.99,1.71l-.69,1.63c-1.66-1.08-3.59-1.6-5.3-1.6-3.53,0-5.11,1.57-5.11,3.51,0,5.3,11.9,2.1,11.9,9.14,0,2.84-2.26,5.27-7.2,5.27-2.9,0-5.74-1.02-7.18-2.51Z"/><path class="cls-1" d="M97.65,162.63v19.32h-1.68l-12.42-15.68v15.68h-2.04v-19.32h1.68l12.45,15.68v-15.68h2.02Z"/><path class="cls-1" d="M102.23,172.29c0-5.63,4.31-9.83,10.16-9.83s10.13,4.17,10.13,9.83-4.33,9.83-10.13,9.83-10.16-4.2-10.16-9.83ZM120.48,172.29c0-4.61-3.45-8-8.09-8s-8.14,3.39-8.14,8,3.48,8,8.14,8,8.09-3.4,8.09-8Z"/><path class="cls-1" d="M153.63,162.63l-6.51,19.32h-2.15l-5.66-16.48-5.69,16.48h-2.12l-6.51-19.32h2.1l5.58,16.62,5.77-16.62h1.91l5.69,16.7,5.66-16.7h1.96Z"/></svg>