<?xml version="1.0" encoding="UTF-8"?><svg id="Layer_1" xmlns="http://www.w3.org/2000/svg" viewBox="0 0 216 216"><defs><style>.cls-1{fill:#010101;}.cls-2{fill:#e91e52;}</style></defs><path class="cls-2" d="M108,72.28c-11.66,0-22.64-1.23-30.93-3.48-4.13-1.12-7.4-2.44-9.73-3.92-2.79-1.78-4.2-3.81-4.2-6.03s1.41-4.25,4.2-6.03c2.32-1.49,5.59-2.81,9.73-3.92,8.28-2.24,19.27-3.48,30.93-3.48s22.64,1.23,30.93,3.48c4.13,1.12,7.4,2.44,9.73,3.92,2.79,1.78,4.2,3.81,4.2,6.03s-1.41,4.25-4.2,6.03c-2.32,1.49-5.59,2.81-9.73,3.92-8.28,2.24-19.27,3.48-30.93,3.48ZM108,48.97c-11.36,0-22.01,1.19-30,3.35-8.35,2.26-11.31,4.93-11.31,6.53s2.96,4.27,11.31,6.53c7.99,2.16,18.64,3.35,30,3.35s22.01-1.19,30-3.35c8.35-2.26,11.31-4.93,11.31-6.53s-2.96-4.27-11.31-6.53c-7.99-2.16-18.64-3.35-30-3.35Z"/><path class="cls-2" d="M108,100.42c-6.4,0-12.26-.88-15.68-2.36-.9-.39-1.31-1.43-.92-2.33.39-.9,1.43-1.31,2.33-.92,2.95,1.28,8.42,2.07,14.27,2.07s11.75-.87,14.57-2.21c.89-.42,1.94-.04,2.37.84.42.89.04,1.94-.84,2.37-3.36,1.6-9.38,2.55-16.09,2.55Z"/><path class="cls-2" d="M107.9,91.63c-9.79,0-18.73-1.32-23.91-3.53-.9-.38-1.32-1.43-.94-2.33.38-.9,1.43-1.32,2.33-.94,4.69,2,13.32,3.24,22.52,3.24s18.45-1.33,23.02-3.47c.89-.42,1.94-.03,2.36.85.42.89.03,1.94-.85,2.36-5.01,2.34-14.4,3.8-24.52,3.8Z"/><path class="cls-2" d="M107.78,82.16c-13.89,0-26.54-2.28-33.86-6.1-.87-.45-1.21-1.53-.75-2.4.45-.87,1.53-1.21,2.4-.75,6.73,3.52,19.08,5.7,32.22,5.7s26.39-2.34,32.95-6.1c.85-.49,1.94-.19,2.42.66.49.85.19,1.94-.66,2.42-7.06,4.05-20.37,6.57-34.71,6.57Z"/><path class="cls-2" d="M105.36,121.36c-.35,0-.7-.11-1-.31-.4-.27-.67-.7-.75-1.18-1.53-9.21-4.02-11.37-7.36-13.43-.83-.51-1.1-1.61-.58-2.44.51-.83,1.61-1.1,2.44-.58,4.27,2.63,6.99,5.72,8.64,13.9,1.23-.43,2.96-1.14,4.76-2.26,4.39-2.7,7.15-6.38,8.2-10.92.22-.95,1.18-1.55,2.13-1.33.95.22,1.55,1.18,1.33,2.13-1.27,5.46-4.69,10.03-9.91,13.2-3.88,2.36-7.39,3.13-7.53,3.16-.12.03-.25.04-.37.04Z"/><path class="cls-1" d="M29.35,172.29c0-5.63,4.3-9.83,10.16-9.83s10.13,4.17,10.13,9.83-4.33,9.83-10.13,9.83-10.16-4.2-10.16-9.83ZM47.6,172.29c0-4.61-3.45-8-8.09-8s-8.14,3.39-8.14,8,3.48,8,8.14,8,8.09-3.4,8.09-8Z"/><path class="cls-1" d="M70.37,176.79c0,3.29-2.43,5.16-7.26,5.16h-8.89v-19.32h8.34c4.31,0,6.79,1.82,6.79,4.97,0,2.21-1.19,3.67-2.95,4.39,2.48.55,3.97,2.18,3.97,4.8ZM56.27,164.31v7.01h6.16c3.09,0,4.88-1.19,4.88-3.5s-1.79-3.51-4.88-3.51h-6.16ZM68.33,176.62c0-2.51-1.85-3.62-5.24-3.62h-6.82v7.26h6.82c3.39,0,5.24-1.1,5.24-3.64Z"/><path class="cls-1" d="M73.19,179.6l.8-1.57c1.38,1.35,3.84,2.35,6.38,2.35,3.62,0,5.19-1.52,5.19-3.42,0-5.3-11.9-2.04-11.9-9.19,0-2.84,2.21-5.3,7.12-5.3,2.18,0,4.44.63,5.99,1.71l-.69,1.63c-1.66-1.08-3.59-1.6-5.3-1.6-3.53,0-5.11,1.57-5.11,3.51,0,5.3,11.9,2.1,11.9,9.14,0,2.84-2.26,5.27-7.2,5.27-2.9,0-5.74-1.02-7.18-2.51Z"/><path class="cls-1" d="M95.77,164.39h-6.79v-1.77h15.62v1.77h-6.79v17.56h-2.04v-17.56Z"/><path class="cls-1" d="M121.06,181.95l-4.42-6.21c-.5.06-.99.08-1.55.08h-5.19v6.13h-2.04v-19.32h7.23c4.91,0,7.89,2.48,7.89,6.62,0,3.04-1.6,5.16-4.42,6.07l4.72,6.62h-2.24ZM120.95,169.25c0-3.09-2.04-4.86-5.91-4.86h-5.13v9.69h5.13c3.87,0,5.91-1.79,5.91-4.83Z"/><path class="cls-1" d="M127.66,173.69v-11.07h2.04v10.99c0,4.58,2.15,6.68,5.91,6.68s5.93-2.1,5.93-6.68v-10.99h1.99v11.07c0,5.55-2.98,8.42-7.92,8.42s-7.95-2.87-7.95-8.42Z"/><path class="cls-1" d="M147.97,172.29c0-5.66,4.31-9.83,10.13-9.83,2.81,0,5.36.94,7.07,2.82l-1.3,1.3c-1.57-1.6-3.51-2.29-5.71-2.29-4.66,0-8.17,3.42-8.17,8s3.51,8,8.17,8c2.21,0,4.14-.69,5.71-2.32l1.3,1.3c-1.71,1.88-4.25,2.84-7.09,2.84-5.8,0-10.1-4.17-10.1-9.83Z"/><path class="cls-1" d="M173.29,164.39h-6.79v-1.77h15.62v1.77h-6.79v17.56h-2.04v-17.56Z"/><path class="cls-1" d="M183.7,180.57c0-.86.66-1.49,1.46-1.49s1.49.63,1.49,1.49-.69,1.52-1.49,1.52-1.46-.66-1.46-1.52Z"/></svg>