<svg xmlns="http://www.w3.org/2000/svg" width="30" height="30" viewBox="0 0 30 30"><path fill="#FFF" d="M30,15.0912779 C30,6.75456389 23.2862903,0 15,0 C6.71370968,0 0,6.75456389 0,15.0912779 C0,22.6235294 5.48528226,28.8669371 12.65625,30 L12.65625,19.4537525 L8.84576613,19.4537525 L8.84576613,15.0912779 L12.65625,15.0912779 L12.65625,11.7663286 C12.65625,7.98438134 14.8941532,5.89533469 18.3217742,5.89533469 C19.9633065,5.89533469 21.6798387,6.18985801 21.6798387,6.18985801 L21.6798387,9.90182556 L19.7879032,9.90182556 C17.925,9.90182556 17.34375,11.0653144 17.34375,12.2586207 L17.34375,15.0912779 L21.5038306,15.0912779 L20.8385081,19.4537525 L17.34375,19.4537525 L17.34375,30 C24.5147177,28.8669371 30,22.6235294 30,15.0912779 Z"/></svg>