<?xml version="1.0" encoding="UTF-8"?>
<svg id="Layer_1" xmlns="http://www.w3.org/2000/svg" version="1.1" viewBox="0 0 216 216">
  <!-- Generator: Adobe Illustrator 29.6.0, SVG Export Plug-In . SVG Version: 2.1.1 Build 207)  -->
  <defs>
    <style>
      .st0 {
        fill: #e91e52;
      }

      .st1 {
        fill: #010101;
        font-family: Montserrat-Regular, Montserrat;
        font-size: 27.61px;
      }
    </style>
  </defs>
  <path class="st0" d="M108.67,134.29c-.11,0-.22,0-.34,0-5.48-.08-10.71-2.25-14.72-6.09-4.02-3.85-6.39-8.98-6.7-14.45-.43-7.81,3.31-15.2,9.81-19.46v-49.85c0-6.59,5.36-11.95,11.95-11.95s11.95,5.36,11.95,11.95v49.85c2.86,1.88,5.26,4.42,6.96,7.39,1.88,3.28,2.88,7.03,2.88,10.83,0,5.88-2.31,11.39-6.5,15.52-4.11,4.05-9.53,6.27-15.29,6.27ZM108.67,35.05c-5.17,0-9.38,4.21-9.38,9.38v50.56c0,.45-.23.86-.61,1.1-6.07,3.7-9.59,10.41-9.2,17.52.56,10.01,8.86,17.97,18.9,18.12.1,0,.2,0,.3,0,5.08,0,9.86-1.96,13.49-5.53,3.7-3.64,5.73-8.51,5.73-13.69,0-6.76-3.45-12.9-9.23-16.42-.38-.23-.61-.65-.61-1.1v-50.56c0-5.17-4.21-9.38-9.38-9.38Z"/>
  <path class="st0" d="M108.68,125.27c-.22,0-.45,0-.67-.02-3.4-.16-6.61-1.62-9.04-4.11-2.42-2.48-3.8-5.73-3.88-9.14-.07-2.84.74-5.58,2.33-7.93,1.38-2.04,3.26-3.64,5.46-4.68v-46.36c0-3.19,2.6-5.79,5.79-5.79,3.19,0,5.79,2.6,5.79,5.79v46.36c2.16,1.02,4.01,2.58,5.38,4.55,1.58,2.28,2.42,4.95,2.42,7.73,0,3.75-1.5,7.24-4.21,9.83-2.55,2.43-5.86,3.75-9.37,3.75ZM108.67,49.81c-1.78,0-3.23,1.45-3.23,3.23v47.21c0,.53-.32,1-.81,1.19-4.28,1.69-7.09,5.91-6.98,10.51.13,5.65,4.83,10.47,10.48,10.74,3.05.14,5.94-.93,8.14-3.03,2.2-2.1,3.42-4.93,3.42-7.98,0-4.55-2.74-8.57-6.98-10.24-.49-.19-.81-.67-.81-1.19v-47.21c0-1.78-1.45-3.23-3.23-3.23ZM114.46,100.25h0,0Z"/>
  <path class="st0" d="M113.18,73.6h-9.02c-.71,0-1.28-.57-1.28-1.28s.57-1.28,1.28-1.28h9.02c.71,0,1.28.57,1.28,1.28s-.57,1.28-1.28,1.28Z"/>
  <path class="st0" d="M76.37,98.47c-.83,0-1.5-.67-1.5-1.5v-27.17c0-.83.67-1.5,1.5-1.5s1.5.67,1.5,1.5v27.17c0,.83-.67,1.5-1.5,1.5Z"/>
  <path class="st0" d="M64.6,91.68c-.52,0-1.02-.27-1.3-.75-.41-.72-.17-1.64.55-2.05l23.53-13.58c.72-.41,1.64-.17,2.05.55.41.72.17,1.64-.55,2.05l-23.53,13.58c-.24.14-.49.2-.75.2Z"/>
  <path class="st0" d="M88.13,91.68c-.25,0-.51-.06-.75-.2l-23.53-13.58c-.72-.41-.96-1.33-.55-2.05.41-.72,1.33-.96,2.05-.55l23.53,13.58c.72.41.96,1.33.55,2.05-.28.48-.78.75-1.3.75Z"/>
  <text class="st1" transform="translate(66.55 181.95)"><tspan x="0" y="0">TEMP.</tspan></text>
</svg>