<svg xmlns="http://www.w3.org/2000/svg" width="75" height="70" viewBox="0 0 75 70"><path fill="#EAEAEA" d="M21.040724,40.1522843 C23.7556561,41.3367174 25.8484163,43.2318105 27.3190045,45.8375635 C28.7895928,48.4433164 29.5248869,51.1675127 29.5248869,54.0101523 C29.5248869,58.5109983 28.1108597,62.3011844 25.2828054,65.3807107 C22.4547511,68.4602369 18.8914027,70 14.5927602,70 C10.520362,70 7.07013575,68.5194585 4.24208145,65.5583756 C1.41402715,62.5972927 0,58.7478849 0,54.0101523 C0,50.6937394 1.24434389,46.1928934 3.73303167,40.5076142 L20.7013575,0 L34.2760181,0 L21.040724,40.1522843 Z M61.7647059,40.1522843 C64.479638,41.3367174 66.5723982,43.2318105 68.0429864,45.8375635 C69.5135747,48.4433164 70.2488688,51.1675127 70.2488688,54.0101523 C70.2488688,58.5109983 68.8348416,62.3011844 66.0067873,65.3807107 C63.178733,68.4602369 59.6153846,70 55.3167421,70 C51.2443439,70 47.7941176,68.5194585 44.9660633,65.5583756 C42.138009,62.5972927 40.7239819,58.7478849 40.7239819,54.0101523 C40.7239819,50.6937394 41.9683258,46.1928934 44.4570136,40.5076142 L61.4253394,0 L75,0 L61.7647059,40.1522843 Z"/></svg>