<?xml version="1.0" encoding="UTF-8"?>
<svg id="Layer_1" xmlns="http://www.w3.org/2000/svg" version="1.1" viewBox="0 0 216 216">
  <!-- Generator: Adobe Illustrator 29.6.0, SVG Export Plug-In . SVG Version: 2.1.1 Build 207)  -->
  <defs>
    <style>
      .st0 {
        fill: #e91e52;
      }

      .st1 {
        fill: #010101;
        font-family: Montserrat-Regular, Montserrat;
        font-size: 27.61px;
      }
    </style>
  </defs>
  <path class="st0" d="M61.35,107.04c-9.15,0-16.6-7.45-16.6-16.6s7.15-16.3,16.06-16.59c2.6-7.97,10.06-13.44,18.54-13.44,1.68,0,3.34.22,4.96.64,2.23-5.85,6.07-10.88,11.17-14.62,5.61-4.12,12.26-6.29,19.24-6.29s13.85,2.25,19.51,6.49c5.12,3.84,9.06,9.21,11.19,15.21,2.6-.36,5.23-.27,7.84.27,9.77,2.04,17.14,10.43,17.92,20.39.04.46.06.92.07,1.38.11,5.71-2.03,11.16-6.04,15.35-3.93,4.12-9.23,6.61-14.91,7.03-.83.06-1.55-.56-1.61-1.39-.06-.83.56-1.55,1.39-1.61,10.38-.75,18.36-9.24,18.17-19.33,0-.4-.03-.8-.06-1.2-.68-8.65-7.07-15.92-15.54-17.69-2.65-.55-5.33-.57-7.96-.05-.76.15-1.5-.3-1.73-1.03-3.84-12.46-15.19-20.84-28.25-20.84s-24.03,8.13-28.05,20.24c-.13.38-.4.7-.76.87-.36.18-.78.2-1.16.07-1.74-.6-3.56-.91-5.4-.91-7.51,0-14.07,5.07-15.96,12.32-.17.66-.77,1.12-1.45,1.12-.02,0-.04,0-.06,0h-.02c-.18,0-.35-.01-.51-.01-7.5,0-13.6,6.1-13.6,13.6s6.09,13.59,13.58,13.6c.47,0,13.21-.22,28.85-.42,0,0,.01,0,.02,0,.82,0,1.49.66,1.5,1.48.01.83-.65,1.51-1.48,1.52-15.85.21-28.72.42-28.85.42,0,0-.02,0-.02,0Z"/>
  <path class="st0" d="M130.18,84.52c-4.01,0-7.78-1.56-10.62-4.4-4.8-4.8-4.8-12.61,0-17.41,3.96-3.96,10.4-3.96,14.35,0,.59.59.59,1.54,0,2.12-.59.59-1.54.59-2.12,0-2.79-2.79-7.32-2.79-10.11,0-3.63,3.63-3.63,9.53,0,13.16,2.27,2.27,5.28,3.52,8.49,3.52s6.22-1.25,8.49-3.52c3.71-3.71,5.27-8.99,4.16-14.13-.17-.81.34-1.61,1.15-1.78.81-.18,1.61.34,1.78,1.15,1.32,6.14-.54,12.45-4.97,16.89-2.84,2.84-6.61,4.4-10.62,4.4Z"/>
  <path class="st0" d="M101.23,114.85c-.59,0-1.18-.12-1.75-.36-2.29-.96-3.37-3.61-2.4-5.9.08-.18.18-.37.32-.58,1.42-2.11,3.78-2.33,5.49-1.61,1.71.72,3.21,2.56,2.68,5.05-.05.24-.11.44-.19.63h0c-.47,1.11-1.34,1.97-2.45,2.42-.55.22-1.12.34-1.7.34ZM101.05,107.94c-.73,0-1.51.3-2.08,1.14-.08.12-.12.21-.14.26-.56,1.32.07,2.85,1.39,3.41.64.27,1.35.27,1.99.01.64-.26,1.15-.76,1.42-1.4.02-.05.05-.14.08-.28.32-1.53-.64-2.53-1.56-2.91-.32-.14-.7-.22-1.1-.22ZM104.51,111.72h0,0Z"/>
  <path class="st0" d="M123.21,124.1c-.58,0-1.17-.11-1.74-.35-1.11-.47-1.97-1.34-2.42-2.45-.45-1.11-.45-2.34.02-3.45.08-.18.18-.37.32-.58,1.42-2.11,3.78-2.33,5.49-1.61,1.71.72,3.21,2.56,2.68,5.05-.05.24-.11.44-.19.63,0,0,0,0,0,0-.72,1.72-2.4,2.76-4.16,2.76ZM123.04,117.19c-.73,0-1.51.3-2.08,1.14-.08.12-.12.21-.14.26-.27.64-.27,1.35-.01,1.99.26.64.76,1.15,1.4,1.42,1.32.56,2.85-.07,3.41-1.39.02-.05.05-.14.08-.28.32-1.53-.64-2.53-1.56-2.91-.32-.14-.7-.22-1.1-.22ZM126.49,120.98h0,0Z"/>
  <path class="st0" d="M109.21,126.65c-.59,0-1.18-.12-1.75-.36-1.11-.47-1.97-1.34-2.42-2.45-.45-1.11-.45-2.34.02-3.45.08-.18.18-.37.32-.58,1.42-2.11,3.78-2.33,5.49-1.61,1.71.72,3.21,2.56,2.68,5.05-.05.24-.11.44-.19.63h0c-.47,1.11-1.34,1.97-2.45,2.42-.55.22-1.12.34-1.7.34ZM109.03,119.73c-.73,0-1.51.3-2.08,1.14-.08.12-.12.21-.14.26-.27.64-.27,1.35-.01,1.99.26.64.76,1.15,1.4,1.42.64.27,1.35.27,1.99.01.64-.26,1.15-.76,1.42-1.4.02-.05.05-.14.08-.28.32-1.53-.64-2.53-1.56-2.91-.32-.14-.7-.22-1.1-.22ZM112.48,123.52h0,0Z"/>
  <path class="st0" d="M131.29,107.07c-.58,0-1.17-.11-1.74-.35-1.11-.47-1.97-1.34-2.42-2.45-.45-1.11-.45-2.34.02-3.45.08-.18.18-.37.32-.57,1.42-2.11,3.78-2.33,5.49-1.61,1.71.72,3.21,2.56,2.68,5.05-.05.24-.11.44-.19.63h0c-.72,1.72-2.4,2.76-4.16,2.76ZM131.12,100.15c-.73,0-1.51.3-2.08,1.14-.08.12-.12.21-.14.25-.27.64-.27,1.35-.01,1.99.26.64.76,1.15,1.4,1.42,1.32.56,2.85-.07,3.41-1.39.02-.05.05-.14.08-.28.32-1.53-.64-2.53-1.56-2.91-.32-.14-.7-.22-1.1-.22ZM134.57,103.94h0,0Z"/>
  <path class="st0" d="M138.39,120.09c-.59,0-1.18-.12-1.75-.36-2.29-.96-3.37-3.61-2.4-5.9.08-.18.18-.37.32-.58,1.42-2.11,3.78-2.33,5.49-1.61,1.71.72,3.21,2.56,2.68,5.05-.05.24-.11.44-.19.63h0c-.47,1.11-1.34,1.97-2.45,2.42-.55.22-1.12.34-1.7.34ZM138.21,113.18c-.73,0-1.51.3-2.08,1.14-.08.12-.12.21-.15.26-.56,1.32.07,2.85,1.39,3.41.64.27,1.35.27,1.99.01.64-.26,1.15-.76,1.42-1.4.02-.05.05-.14.08-.28.32-1.53-.64-2.53-1.56-2.91-.32-.14-.7-.22-1.1-.22ZM141.67,116.97h0,0Z"/>
  <path class="st0" d="M117.28,109.61c-.58,0-1.17-.11-1.74-.35-1.11-.47-1.97-1.34-2.42-2.45-.45-1.11-.45-2.34.02-3.45.08-.18.18-.37.32-.57,1.42-2.11,3.78-2.33,5.49-1.61,1.71.72,3.21,2.56,2.68,5.05-.05.24-.11.44-.19.63h0c-.72,1.72-2.4,2.76-4.16,2.76ZM117.11,102.69c-.73,0-1.51.3-2.08,1.14-.08.12-.12.21-.14.25-.27.64-.27,1.35-.01,1.99.26.64.76,1.15,1.4,1.42.64.27,1.35.27,1.99.01.64-.26,1.15-.76,1.42-1.4.02-.05.05-.14.08-.28.32-1.53-.64-2.53-1.56-2.91-.32-.14-.7-.22-1.1-.22ZM120.56,106.48h0,0Z"/>
  <text class="st1" transform="translate(74.58 181.95)"><tspan x="0" y="0">HAIL</tspan></text>
</svg>