<svg xmlns="http://www.w3.org/2000/svg" xmlns:xlink="http://www.w3.org/1999/xlink" width="437" height="52" viewBox="0 0 437 52"><defs><path id="a" d="M0,25 C0,38.8063286 11.2502437,49.9992189 25.1295094,49.9992189 C39.0085789,49.9992189 50.2598041,38.8063286 50.2598041,25 C50.2598041,11.1928902 39.0085789,0 25.1295094,0 C11.25044,0 0,11.1928902 0,25 Z"/><path id="c" d="M0,25 C0,38.8063286 11.2512252,49.9992189 25.1295094,49.9992189 C39.0085789,49.9992189 50.2605893,38.8063286 50.2605893,25 C50.2605893,11.1928902 39.0085789,0 25.1295094,0 C11.2512252,0 0,11.1928902 0,25 Z"/><path id="e" d="M0,25 C0,38.8063286 11.2502437,49.9992189 25.1295094,49.9992189 C39.0077937,49.9992189 50.2598041,38.8063286 50.2598041,25 C50.2598041,11.1928902 39.0077937,0 25.1295094,0 C11.25044,0 0,11.1928902 0,25 Z"/><path id="g" d="M0,25 C0,38.8063286 11.2520104,49.9992189 25.1302946,49.9992189 C39.0093641,49.9992189 50.2613745,38.8063286 50.2613745,25 C50.2613745,11.1928902 39.0093641,0 25.1302946,0 C11.2520104,0 0,11.1928902 0,25 Z"/><path id="i" d="M0,25 C0,38.8063286 11.25044,49.9992189 25.1295094,49.9992189 C39.0077937,49.9992189 50.2598041,38.8063286 50.2598041,25 C50.2598041,11.1928902 39.0077937,0 25.1295094,0 C11.25044,0 0,11.1928902 0,25 L0,25 Z"/><path id="k" d="M0,25 C0,38.8063286 11.2512252,49.9992189 25.1302946,49.9992189 C39.0093641,49.9992189 50.2605893,38.8063286 50.2605893,25 C50.2605893,11.1928902 39.0093641,0 25.1302946,0 C11.2512252,0 0,11.1928902 0,25 Z"/></defs><g fill="none" fill-rule="evenodd" transform="translate(1 1)"><path fill="#FFF" d="M127.208314,25 C127.208314,38.8071098 115.957089,50 102.07802,50 C88.1989503,50 76.9477251,38.8071098 76.9477251,25 C76.9477251,11.1928902 88.1989503,0 102.07802,0 C115.957089,0 127.208314,11.1928902 127.208314,25"/><g transform="translate(76.949)"><mask id="b" fill="#fff"><use xlink:href="#a"/></mask><g mask="url(#b)"><g transform="translate(3.66 -8.449)"><polygon fill="#E8F1F9" points="59.239 1.018 .109 33.957 59.239 66.896 118.369 33.957 59.239 1.018"/><path fill="#000" fill-rule="nonzero" d="M0.332529188,33.048289 L59.2390736,65.8626319 L118.145618,33.048289 L59.2390736,0.233945993 L0.332529188,33.048289 Z M59.2390736,66.0954062 C59.220229,66.0954062 59.2021696,66.0913053 59.1850916,66.0823224 L0.0559449932,33.1433905 C0.0215928044,33.1238625 0.000392596443,33.087345 0.000392596443,33.048289 C0.000392596443,33.0092329 0.0215928044,32.9725201 0.0559449932,32.9529921 L59.1850916,0.0140601932 C59.2186586,-0.00468673108 59.2587035,-0.00468673108 59.2922705,0.0140601932 L118.422202,32.9529921 C118.456554,32.9725201 118.477755,33.0090376 118.477755,33.048289 C118.477755,33.087345 118.456554,33.1238625 118.422202,33.1433905 L59.2922705,66.0823224 C59.2749962,66.0913053 59.2571331,66.0954062 59.2390736,66.0954062"/><path fill="#000" d="M59.238681,66.8154053 C59.2206216,66.8154053 59.201777,66.8113044 59.1854842,66.8015404 L0.0555523967,33.9155295 C0.0212002079,33.8960014 0,33.859484 0,33.8204279 L0,33.048289 L0.218479921,33.048289 L0.218479921,33.7569617 L59.1299318,66.5217035 L59.1299318,65.9870256 L59.3474303,65.9870256 L59.3474303,66.7062435 C59.3474303,66.7445185 59.3270152,66.7802548 59.2942334,66.7997828 C59.2771555,66.810328 59.2573294,66.8154053 59.238681,66.8154053"/></g></g></g><path stroke="#414141" stroke-width=".818" d="M127.208314,25 C127.208314,11.2020684 115.947863,2.84217094e-14 102.07802,2.84217094e-14 C88.2081763,2.84217094e-14 76.9477251,11.2020684 76.9477251,25 C76.9477251,38.7979316 88.2081763,50 102.07802,50 C115.947863,50 127.208314,38.7979316 127.208314,25 Z"/><path fill="#FFF" d="M50.2605893,25 C50.2605893,38.8071098 39.0093641,50 25.1302946,50 C11.2512252,50 0,38.8071098 0,25 C0,11.1928902 11.2512252,0 25.1302946,0 C39.0093641,0 50.2605893,11.1928902 50.2605893,25"/><mask id="d" fill="#fff"><use xlink:href="#c"/></mask><g mask="url(#d)"><g transform="translate(3.738 -8.449)"><polygon fill="#AAA" points="59.292 .014 .056 32.953 59.292 66.082 118.369 33.957"/><polygon fill="#F7F6E8" points=".056 33.915 0 33.048 59.348 65.987 59.292 66.801"/><path fill="#000" fill-rule="nonzero" d="M0.332332889,33.048289 L59.2388773,65.8626319 L118.145422,33.048289 L59.2388773,0.233945993 L0.332332889,33.048289 Z M59.2388773,66.0954062 C59.2200327,66.0954062 59.2019733,66.0913053 59.1848953,66.0823224 L0.055748695,33.1433905 C0.0213965062,33.1238625 0.000196298222,33.087345 0.000196298222,33.048289 C0.000196298222,33.0092329 0.0213965062,32.9725201 0.055748695,32.9529921 L59.1848953,0.0140601932 C59.2184623,-0.00468673108 59.2585072,-0.00468673108 59.2920742,0.0140601932 L118.422006,32.9529921 C118.456358,32.9725201 118.477558,33.0090376 118.477558,33.048289 C118.477558,33.087345 118.456358,33.1238625 118.422006,33.1433905 L59.2920742,66.0823224 C59.2747999,66.0913053 59.2569368,66.0954062 59.2388773,66.0954062"/><path fill="#000" d="M59.238681,66.8154053 C59.2206216,66.8154053 59.201777,66.8113044 59.1854842,66.8015404 L0.0555523967,33.9155295 C0.0212002079,33.8960014 0,33.859484 0,33.8204279 L0,33.048289 L0.218479921,33.048289 L0.218479921,33.7569617 L59.1299318,66.5217035 L59.1299318,65.9870256 L59.3474303,65.9870256 L59.3474303,66.7062435 C59.3474303,66.7445185 59.3270152,66.7802548 59.2942334,66.7997828 C59.2769592,66.810328 59.2573294,66.8154053 59.238681,66.8154053"/></g></g><path stroke="#414141" stroke-width=".818" d="M50.2605893,25 C50.2605893,11.2020684 39.0001381,2.84217094e-14 25.1302946,2.84217094e-14 C11.2604512,2.84217094e-14 0,11.2020684 0,25 C0,38.7979316 11.2604512,50 25.1302946,50 C39.0001381,50 50.2605893,38.7979316 50.2605893,25 Z"/><path fill="#FFF" d="M204.156236,25 C204.156236,38.8071098 192.905011,50 179.025941,50 C165.146872,50 153.895647,38.8071098 153.895647,25 C153.895647,11.1928902 165.146872,0 179.025941,0 C192.905011,0 204.156236,11.1928902 204.156236,25"/><g transform="translate(153.897)"><mask id="f" fill="#fff"><use xlink:href="#e"/></mask><g mask="url(#f)"><g transform="translate(3.854 -9.788)"><path fill="#F7F6E8" d="M118.779827,34.8525819 C118.688155,34.6963575 118.489502,34.6426554 118.332463,34.7338514 L118.281818,34.7631435 L107.066712,28.1618827 C107.081434,28.0878714 107.07319,28.0089781 107.03236,27.9380913 C106.940688,27.7826481 106.740464,27.7289459 106.584996,27.8201419 L106.535136,27.8486529 L95.2061769,21.1806062 C95.220114,21.1058138 95.2126547,21.0269205 95.1710395,20.9568148 C95.0793682,20.8005904 94.8799292,20.7461072 94.724461,20.8380843 L94.6738161,20.8673764 L83.0865284,14.0464251 C83.1012507,13.9724138 83.0930062,13.8935205 83.0521762,13.8234148 C82.9605049,13.6671905 82.7610659,13.6134883 82.6048125,13.7046843 L82.5541676,13.7331952 L71.4501661,7.19696291 C71.4648884,7.12295162 71.4566439,7.04405831 71.4158139,6.9731715 C71.3241426,6.81694713 71.1237221,6.76324501 70.9684502,6.85444098 L70.9178053,6.88373305 L59.8809378,0.387337927 C59.8956602,0.313326632 59.8874156,0.233652204 59.8465856,0.163546518 C59.7556995,0.00732214865 59.5554753,-0.0471611002 59.399222,0.0448159973 L0.163877988,34.1733965 C0.00683941041,34.2628349 -0.0463574077,34.4622163 0.044528669,34.6168784 C0.0796660506,34.6778059 0.133648062,34.716862 0.192537528,34.7445918 C2.32080285,38.3231063 5.83198914,40.6981073 9.84707296,41.260515 L11.6636167,41.5159418 C11.6651871,41.5305879 11.6610648,41.546015 11.6693094,41.5598799 C13.7934524,45.1815514 17.3301575,47.5827199 21.3721342,48.1498144 L23.3178421,48.4224259 C23.3227496,48.423207 23.327657,48.423207 23.3325645,48.423207 C23.3547462,48.423207 23.3733945,48.413443 23.3906688,48.4021168 C23.3955762,48.4044601 23.4012689,48.403679 23.4061763,48.4062176 C25.6798986,52.0692885 29.3604903,54.5444684 33.5261348,55.1986579 L35.4188423,55.4964606 C35.4204127,55.5126689 35.4172719,55.5290725 35.4263016,55.5444996 C37.6271973,59.2101092 41.2540032,61.6665421 45.3786215,62.2832378 L47.3628039,62.5786972 C47.3684965,62.5794783 47.3741892,62.5794783 47.3790967,62.5794783 C47.3847893,62.5794783 47.3881264,62.5738151 47.393819,62.5720576 L47.4191415,62.7120737 C49.5432845,66.332964 53.0799896,68.7339373 57.1219663,69.3012271 L59.0668891,69.5746197 C59.0725817,69.5754008 59.0774892,69.5754008 59.0823966,69.5754008 C59.1363786,69.5754008 59.1830976,69.5363447 59.1903606,69.4818615 C59.191931,69.4697541 59.1838828,69.4599901 59.1813309,69.4484685 C59.2084201,69.4549128 59.2337426,69.4687777 59.2606354,69.4687777 C59.3161878,69.4687777 59.3727217,69.4549128 59.4241518,69.4248396 L118.660477,35.2972355 C118.816731,35.2070159 118.869927,35.0084157 118.779827,34.8529725"/><path fill="#000" fill-rule="nonzero" d="M0.542929854,34.4547956 L59.2608317,69.0178751 L118.280248,35.0146647 L59.5625421,0.451585199 L0.542929854,34.4547956 L0.542929854,34.4547956 Z M59.2608317,69.2522117 C59.2412019,69.2522117 59.2223573,69.2465485 59.2052793,69.2367845 L0.271645711,34.5477491 C0.238078716,34.5282211 0.218448893,34.4924847 0.218448893,34.4534286 C0.218448893,34.4151537 0.238863908,34.3794174 0.272430904,34.3606704 L59.5087564,0.23208996 C59.5423234,0.212561914 59.5849201,0.213343036 59.6182908,0.232871082 L118.551924,34.9219065 C118.585491,34.9414345 118.605906,34.9771708 118.605906,35.0162269 C118.605906,35.0545019 118.584706,35.0894571 118.551139,35.1089852 L59.3148137,69.2375656 C59.298521,69.2465485 59.2796763,69.2522117 59.2608317,69.2522117"/><path fill="#000" d="M35.6528298 55.5728153C35.5399583 55.5728153 35.4304239 55.5140359 35.3689826 55.4099514 35.279078 55.2545082 35.3320785 55.0561032 35.4883319 54.9656884L94.7236758 20.8380843C94.879144 20.7461072 95.0793682 20.8005904 95.1710395 20.9568148 95.2609441 21.1114769 95.2079436 21.310663 95.0516902 21.4002967L35.8163462 55.5288772C35.7647198 55.5581693 35.7083822 55.5728153 35.6528298 55.5728153M23.5333776 48.4394153C23.4205061 48.4394153 23.3109717 48.3806359 23.2495303 48.2765514 23.1596258 48.1211082 23.2126263 47.9227032 23.3688797 47.8322884L82.6042236 13.7046843C82.760477 13.6134883 82.9608975 13.6671905 83.0515873 13.8226337 83.1414919 13.9780769 83.0884913 14.1774583 82.932238 14.2668967L23.696894 48.3954772C23.6452676 48.4247693 23.58893 48.4394153 23.5333776 48.4394153M11.8966227 41.5895626C11.7837512 41.5895626 11.6742168 41.5307831 11.6127755 41.4266987 11.5228709 41.2712554 11.5758714 41.0728505 11.7321248 40.9824356L70.9684502 6.85483154C71.1239184 6.76285444 71.3241426 6.81733769 71.4158139 6.97356206 71.5057185 7.12822419 71.452718 7.32741026 71.2964646 7.41704399L12.0601391 41.5456245C12.0085127 41.5749165 11.9521751 41.5895626 11.8966227 41.5895626M.327590705 34.7797423C.214719227 34.7797423.105184819 34.7209629.0437434761 34.6168784-.0461611094 34.4614351.00683941041 34.2630302.163092795 34.1726153L59.3994183.0450112778C59.5548864-.0469658197 59.7551106.00751742912 59.8467819.162960677 59.9366865.318403924 59.883686.517785276 59.7274326.607223727L.491107123 34.7358042C.439480691 34.7650963.383143101 34.7797423.327590705 34.7797423"/><path fill="#000" d="M11.8071107,41.5342982 C11.8022033,41.5342982 11.7965106,41.5342982 11.7916031,41.5335171 L9.84668037,41.2609055 C5.802937,40.6938111 2.26701713,38.2918614 0.143855569,34.67019 C0.113625643,34.6180501 0.130703588,34.5522406 0.183115213,34.5221674 C0.234741646,34.4936564 0.301679339,34.5090836 0.331909265,34.5620046 C2.42170013,38.1243108 5.90030092,40.4887666 9.87769549,41.0453159 L11.8226183,41.3179274 C11.8822929,41.3269103 11.9233193,41.3821747 11.9150747,41.4407589 C11.9068302,41.4952421 11.8610927,41.5342982 11.8071107,41.5342982"/><path fill="#000" d="M23.3327608,48.4230118 C23.3278533,48.4230118 23.3221607,48.4230118 23.3172532,48.4222306 L21.3723305,48.148838 C17.3293723,47.5825247 13.7926672,45.180575 11.6695057,41.5596847 C11.6392757,41.5067636 11.6563537,41.4409541 11.7087653,41.4108809 C11.7603917,41.38237 11.8273294,41.3977971 11.8575594,41.4491559 C13.9473502,45.0138055 17.4267362,47.376699 21.4025604,47.9340295 L23.3484647,48.206641 C23.4081393,48.2156239 23.4491656,48.2708883 23.4409211,48.3294724 C23.4326766,48.3839557 23.3869391,48.4230118 23.3329571,48.4230118"/><path fill="#000" d="M35.5631215,55.5175509 C35.5574288,55.5175509 35.5525214,55.5167698 35.5460435,55.5159887 L33.5257423,55.1978768 C29.3298678,54.5395864 25.6223833,52.0351145 23.3525869,48.3281055 C23.3215718,48.2759656 23.3378645,48.2093749 23.389491,48.1793017 C23.4393507,48.147471 23.5072699,48.1638746 23.5392665,48.2142569 C25.7754959,51.8675638 29.427428,54.3355183 33.5602907,54.9848258 L35.580592,55.3021566 C35.6402667,55.3119206 35.6803115,55.367185 35.6712818,55.4257691 C35.6622521,55.4794712 35.6165146,55.5177462 35.5633178,55.5177462"/><path fill="#000" d="M47.3787041,62.5790877 C47.3737966,62.5790877 47.368104,62.5790877 47.3624113,62.5783066 L45.3782289,62.2820661 C41.2534143,61.6661516 37.6268047,59.2097186 35.425909,55.5441091 C35.3948939,55.4919692 35.4119719,55.4253786 35.4635983,55.394329 C35.5142432,55.3642558 35.5821624,55.3804641 35.6133738,55.4318228 C37.7801136,59.0429491 41.3509746,61.4611071 45.4110107,62.0672576 L47.3951931,62.3625217 C47.4548678,62.3722857 47.4958941,62.426769 47.4868644,62.4861342 C47.4786198,62.5398363 47.4320972,62.5788924 47.3789004,62.5788924"/><polygon fill="#000" points="1.089 33.954 .978 34.14 59.917 68.826 60.027 68.64 1.089 33.954"/></g></g></g><path stroke="#414141" stroke-width=".818" d="M204.156236,25 C204.156236,11.2020684 192.895785,2.84217094e-14 179.025941,2.84217094e-14 C165.156098,2.84217094e-14 153.895647,11.2020684 153.895647,25 C153.895647,38.7979316 165.156098,50 179.025941,50 C192.895785,50 204.156236,38.7979316 204.156236,25 Z"/><path fill="#FFF" d="M281.103961,25 C281.103961,38.8071098 269.852736,50 255.973666,50 C242.094597,50 230.843372,38.8071098 230.843372,25 C230.843372,11.1928902 242.094597,0 255.973666,0 C269.852736,0 281.103961,11.1928902 281.103961,25"/><g transform="translate(230.843)"><mask id="h" fill="#fff"><use xlink:href="#g"/></mask><g mask="url(#h)"><g transform="translate(1.572 -9.822)"><polygon fill="#FFF" points="61.916 .591 0 35.081 61.916 69.572 123.832 35.081"/><path fill="#000" fill-rule="nonzero" d="M3.00944804,33.0477031 L61.9159925,65.8620461 L120.822733,33.0477031 L61.9159925,0.233360152 L3.00944804,33.0477031 Z M61.9159925,66.0948204 C61.8971479,66.0948204 61.8790884,66.0907195 61.8620105,66.0817366 L2.73286384,33.1428047 C2.69851165,33.1232766 2.67731145,33.0867592 2.67731145,33.0477031 C2.67731145,33.008647 2.69851165,32.9719343 2.73286384,32.9524062 L61.8620105,0.0134743519 C61.8955775,-0.00449145062 61.9356223,-0.00449145062 61.9691893,0.0134743519 L121.099121,32.9524062 C121.133473,32.9719343 121.154674,33.0084517 121.154674,33.0477031 C121.154674,33.0867592 121.133473,33.1232766 121.099121,33.1428047 L61.9691893,66.0817366 C61.9519151,66.0907195 61.9340519,66.0948204 61.9159925,66.0948204"/><polygon fill="#000" points="4.369 32.105 4.262 32.293 63.068 65.413 63.175 65.225"/><path fill="#000" d="M61.9157962,69.6432617 C61.8977367,69.6432617 61.8788921,69.6391608 61.8625994,69.6293967 L2.73266754,36.710774 C2.69831536,36.691246 2.67711515,36.6555096 2.67711515,36.6164536 L2.67711515,33.0477031 L2.89559507,33.0477031 L2.89559507,36.5529874 L61.807047,69.350341 L61.807047,65.986635 L62.0245454,65.986635 L62.0245454,69.5350763 C62.0245454,69.5733512 62.0041304,69.6083064 61.9705634,69.6278345 C61.9542706,69.6383796 61.9346408,69.6432617 61.9157962,69.6432617"/><path fill="#000" fill-rule="nonzero" d="M45.9447766,53.0823068 L48.608936,56.678006 L103.42757,26.3671585 L101.588845,22.3891002 L45.9447766,53.0823068 L45.9447766,53.0823068 Z M48.5777246,56.9277697 C48.5441576,56.9277697 48.5115721,56.9131236 48.4901756,56.8838316 L45.6954778,53.1115989 C45.6766332,53.0864077 45.6701554,53.0553581 45.6766332,53.0245038 C45.6838962,52.9944306 45.7027409,52.9674819 45.7306152,52.9528359 L101.585704,22.142461 C101.611811,22.1270338 101.644593,22.1254716 101.672468,22.1334781 C101.701127,22.1432421 101.724879,22.1643324 101.737835,22.1920622 L103.668035,26.3687208 C103.691787,26.4191031 103.671372,26.4802259 103.621513,26.5087368 L48.6309214,56.9146859 C48.6136472,56.9236688 48.5957841,56.9277697 48.5777246,56.9277697"/><path fill="#000" fill-rule="nonzero" d="M41.1739446,50.5030425 L43.7904036,54.0342991 L98.6286674,23.7732481 L96.8056458,19.7252794 L41.1739446,50.5030425 Z M43.7593885,54.2840628 C43.7258215,54.2840628 43.6922545,54.2686356 43.6710543,54.2401247 L40.9244496,50.5321393 C40.9056049,50.5069481 40.8991271,50.4758985 40.9056049,50.4450442 C40.9120828,50.414971 40.9317126,50.3880223 40.9595869,50.3733762 L96.8038791,19.4774685 C96.8299868,19.4628225 96.8602167,19.4587216 96.8906429,19.4702432 C96.9200877,19.4792261 96.9430546,19.5003164 96.9560102,19.5288273 L98.8691327,23.7753962 C98.8920996,23.8257786 98.8714883,23.8869014 98.8224137,23.9146312 L43.8114075,54.2701979 C43.7951147,54.2799619 43.7762701,54.2840628 43.7589959,54.2840628"/><rect width="1" height="2.302" x="40.903" y="50.469" fill="#000"/><path fill="#000" fill-rule="nonzero" d="M36.5780143,47.8632412 L39.1185059,51.3806329 L93.9045544,21.0024137 L92.0887958,17.0960233 L36.5780143,47.8632412 L36.5780143,47.8632412 Z M39.0865093,51.631373 C39.0521571,51.631373 39.0193753,51.6151647 38.9981751,51.5858726 L36.3293045,47.890971 C36.311245,47.8657798 36.3047672,47.8349255 36.311245,47.8038759 C36.3185081,47.7738027 36.3383342,47.7476352 36.3652271,47.7329891 L92.0852625,16.8493841 C92.1123516,16.8339569 92.1433667,16.8314183 92.1720263,16.8411823 C92.201471,16.8501652 92.2244379,16.8712555 92.2373936,16.8982042 L94.1438419,21.0024137 C94.1683792,21.0537724 94.1487494,21.1146999 94.0988896,21.1424298 L39.1395098,51.6175081 C39.1224319,51.626491 39.1043724,51.631373 39.086313,51.631373"/><path fill="#000" fill-rule="nonzero" d="M31.8762793,45.2392576 L34.4929346,48.7705142 L89.2862461,18.3979581 L87.1915478,14.6354895 L31.8762793,45.2392576 L31.8762793,45.2392576 Z M34.4619195,49.0202779 C34.4283525,49.0202779 34.3955707,49.0048508 34.3743705,48.9763398 L31.6269806,45.2683544 C31.608136,45.2431632 31.6016581,45.2123089 31.608136,45.1812593 C31.6146138,45.1511861 31.6342436,45.1242374 31.662118,45.1095914 L87.1817329,14.3927559 C87.2062702,14.378891 87.2365001,14.3765476 87.2643744,14.383773 C87.2922488,14.3909984 87.3160009,14.4097453 87.3297418,14.4351317 L89.5298522,18.3879988 C89.5585118,18.4401387 89.5396671,18.5059482 89.4872555,18.5352403 L34.5147237,49.0071941 C34.4976458,49.016177 34.4803715,49.0202779 34.4615269,49.0202779"/><rect width="1" height="2.302" x="31.606" y="45.204" fill="#000"/><path fill="#000" fill-rule="nonzero" d="M27.2035965,42.585982 L29.8202517,46.1172386 L84.643008,15.7976035 L82.5188649,11.9831903 L27.2035965,42.585982 L27.2035965,42.585982 Z M29.7892366,46.3670023 C29.7556696,46.3670023 29.7228878,46.3515751 29.7016876,46.3230642 L26.9542977,42.6160552 C26.9354531,42.5900829 26.9289752,42.5590333 26.9354531,42.528179 C26.9419309,42.4981058 26.9615607,42.4711571 26.9894351,42.456511 L82.50905,11.7404566 C82.5343725,11.7258106 82.5638172,11.7250295 82.5916916,11.7314737 C82.6195659,11.7388944 82.6431217,11.757446 82.6570589,11.7828325 L84.8866141,15.7868631 C84.9152736,15.8397841 84.896429,15.9055936 84.8440174,15.9348857 L29.8420409,46.3539185 C29.8249629,46.3629014 29.8069035,46.3670023 29.788844,46.3670023"/><path fill="#000" fill-rule="nonzero" d="M22.442972,39.9524297 L25.059431,43.4836863 L79.894554,13.1867037 L77.7582405,9.34866155 L22.442972,39.9524297 Z M25.0284159,43.7336453 C24.9940637,43.7336453 24.9612819,43.7182181 24.9400817,43.6897072 L22.1934769,39.981917 C22.1746323,39.9567258 22.1681545,39.9256763 22.1746323,39.8948219 C22.1811102,39.8647488 22.20074,39.8378 22.2286143,39.823154 L77.7482293,9.10631849 C77.7735517,9.09245358 77.8029965,9.08913381 77.8308708,9.09733559 C77.8587452,9.10475625 77.8824972,9.12330789 77.8962381,9.14869435 L80.1381601,13.177135 C80.1668196,13.2292749 80.147975,13.2950844 80.0955634,13.3243765 L25.0806312,43.7205615 C25.0643384,43.7295444 25.0454938,43.7336453 25.0282196,43.7336453"/><rect width="1" height="2.302" x="22.172" y="39.918" fill="#000"/><path fill="#000" fill-rule="nonzero" d="M17.6829364,37.2993493 L20.2993954,40.8306059 L75.0306767,10.589083 L73.2092255,6.57938932 L17.6829364,37.2993493 Z M20.2683803,41.0805649 C20.2348133,41.0805649 20.2012463,41.0649425 20.1800461,41.0364315 L17.4334414,37.3294225 C17.4145967,37.3034502 17.4081189,37.2724006 17.4145967,37.2415463 C17.4210746,37.2114731 17.4407044,37.1845244 17.4685787,37.1698784 L73.2066736,6.3327501 C73.2337628,6.31810406 73.2655631,6.31556542 73.2942226,6.32454832 C73.3228821,6.33431234 73.3466342,6.35540263 73.3588047,6.38313245 L75.2701605,10.5906453 C75.2939126,10.6427852 75.2734976,10.7029316 75.2236378,10.7306614 L20.3205956,41.0674811 C20.3043029,41.076464 20.2854582,41.0805649 20.268184,41.0805649"/><path fill="#000" fill-rule="nonzero" d="M12.8757893,34.6566188 L15.4922483,38.1878754 L70.2235295,7.94615727 L68.4323083,3.92005999 L12.8757893,34.6564236 L12.8757893,34.6566188 Z M15.4612331,38.4376391 C15.4276661,38.4376391 15.3948843,38.422212 15.3736841,38.393701 L12.6262942,34.6859109 C12.6074496,34.6607197 12.6009717,34.6296701 12.6074496,34.5988158 C12.6139274,34.5687426 12.6335572,34.5417939 12.6614316,34.5271479 L68.4305416,3.6720538 C68.4574344,3.65740777 68.489431,3.65330688 68.5180906,3.66482843 C68.5475353,3.67381133 68.5712874,3.69490162 68.5834579,3.72341257 L70.4630134,7.94869592 C70.4867654,8.0008358 70.4663504,8.06020106 70.4164907,8.08773561 L15.5142337,38.4245553 C15.4971557,38.4335382 15.4790963,38.4376391 15.4610368,38.4376391"/><rect width="1" height="2.302" x="12.605" y="34.622" fill="#000"/><path fill="#000" fill-rule="nonzero" d="M8.20291009,32.0033432 L10.8195654,35.5345998 L65.5449577,5.29542028 L63.5156267,1.40191844 L8.20291009,32.0031479 L8.20291009,32.0033432 Z M10.7885503,35.7843635 C10.7549833,35.7843635 10.7222015,35.7689363 10.7010013,35.7404254 L7.95361135,32.0334164 C7.93476672,32.0074441 7.92828888,31.9763945 7.93476672,31.9455402 C7.94124456,31.915467 7.96087438,31.8885183 7.98874873,31.8738723 L63.5083637,1.15781786 C63.5336861,1.14317182 63.5639161,1.1423907 63.5925756,1.14883496 C63.6204499,1.15703674 63.644202,1.17656478 63.6571577,1.20253708 L65.7877786,5.28956187 C65.8146715,5.34170175 65.7950416,5.40594902 65.7436115,5.43445997 L10.8413545,35.7712797 C10.8242765,35.7802626 10.8062171,35.7843635 10.7881577,35.7843635"/><polygon fill="#969595" points="12.714 36.923 12.714 34.622 15.648 38.583"/><path fill="#000" fill-rule="nonzero" d="M12.8233776,36.8603588 L15.2566904,38.2355239 L12.8233776,34.9514923 L12.8233776,36.8603588 Z M15.6485016,38.6903321 C15.6304422,38.6903321 15.6115976,38.6862312 15.5953048,38.675686 L12.6606464,37.0181455 C12.6262942,36.9993985 12.605094,36.9628811 12.605094,36.923825 L12.605094,34.6218589 C12.605094,34.574601 12.6353239,34.5332016 12.6802762,34.5185555 C12.7244433,34.5046906 12.7743031,34.5201178 12.8021774,34.5576116 L15.7368358,38.5177041 C15.7670658,38.5591036 15.7647102,38.6153444 15.730358,38.6536193 C15.7091578,38.6772483 15.6787316,38.6903321 15.6485016,38.6903321"/><polygon fill="#969595" points="8.042 34.248 8.042 31.946 11.032 35.982 8.042 34.248"/><path fill="#000" fill-rule="nonzero" d="M8.15069476,34.1854071 L10.6305302,35.6248194 L8.15069476,32.2757594 L8.15069476,34.1854071 Z M11.0313712,36.0909538 C11.0125265,36.0909538 10.9936819,36.0852907 10.976604,36.0763078 L7.98639315,34.3424126 C7.95282615,34.3228845 7.93241114,34.2871482 7.93241114,34.2480921 L7.93241114,31.9463213 C7.93241114,31.8990634 7.96264106,31.857664 8.00759336,31.8430179 C8.05176046,31.829153 8.1016202,31.8445802 8.12949455,31.8812929 L11.1189202,35.9179353 C11.1499353,35.9595301 11.1475797,36.0163567 11.1124423,36.0554128 C11.0912421,36.0782606 11.0617974,36.0911491 11.0313712,36.0911491"/><polygon fill="#969595" points="17.521 39.544 17.521 37.243 20.566 41.352 17.521 39.544"/><path fill="#000" fill-rule="nonzero" d="M17.6305248,39.4821943 L20.1570792,40.9825341 L17.6305248,37.5723514 L17.6305248,39.481999 L17.6305248,39.4821943 Z M20.5659684,41.4601901 C20.5463386,41.4601901 20.5274939,41.4553081 20.510416,41.4455441 L17.4652417,39.6376376 C17.4324599,39.6181095 17.4120449,39.5823732 17.4120449,39.5440982 L17.4120449,37.2431086 C17.4120449,37.1958507 17.4422748,37.1544512 17.4872271,37.1398052 C17.5313942,37.1267214 17.5812539,37.1413674 17.6091283,37.1780802 L20.6533211,41.2879528 C20.6843362,41.3293522 20.6811954,41.3871552 20.6468433,41.4254302 C20.625643,41.4490591 20.5954131,41.4603854 20.5659684,41.4603854"/><polygon fill="#969595" points="22.281 42.216 22.281 39.914 25.354 43.988"/><path fill="#000" fill-rule="nonzero" d="M22.3905604,42.1528499 L24.9457743,43.6272174 L22.3905604,40.2398825 L22.3905604,42.1528499 Z M25.3546635,44.0966716 C25.3358189,44.0966716 25.3169742,44.0910085 25.2998963,44.0820256 L22.2270439,42.3098554 C22.1934769,42.2903274 22.1722767,42.254591 22.1722767,42.215535 L22.1722767,39.9145453 C22.1722767,39.8672874 22.2025067,39.8258879 22.2466738,39.812023 C22.2924112,39.7950336 22.3407006,39.8112419 22.368575,39.8487358 L25.4422125,43.922872 C25.4732276,43.9642715 25.4708721,44.0212934 25.4365199,44.0603495 C25.4153197,44.0839784 25.3848934,44.0970622 25.3546635,44.0970622"/><polygon fill="#969595" points="27.042 44.999 27.042 42.552 29.789 46.52 27.042 44.999"/><path fill="#000" fill-rule="nonzero" d="M27.1513811,44.9355965 L29.4349183,46.1992564 L27.1513811,42.9005788 L27.1513811,44.9355965 Z M29.7892366,46.6280923 C29.7711772,46.6280923 29.7533141,46.6239914 29.736825,46.6150085 L26.9894351,45.0943595 C26.9542977,45.0748315 26.9330975,45.0381187 26.9330975,44.9990627 L26.9330975,42.5516126 C26.9330975,42.5035736 26.9641126,42.4611978 27.0100464,42.4483093 C27.0565691,42.4336632 27.1056436,42.451629 27.1327328,42.489904 L29.8793375,46.4581983 C29.9079971,46.499793 29.9038748,46.5558385 29.8703078,46.5933323 C29.8491076,46.6169613 29.8196629,46.6282875 29.7894329,46.6282875"/><polygon fill="#969595" points="31.715 47.631 31.715 45.204 34.799 49.368 31.715 47.631"/><path fill="#000" fill-rule="nonzero" d="M31.8238677,47.5668054 L34.4085264,49.0232071 L31.8238677,45.5341311 L31.8238677,47.5666102 L31.8238677,47.5668054 Z M34.7993561,49.4764531 C34.7812967,49.4764531 34.7624521,49.4723522 34.7461593,49.461807 L31.6609402,47.7245921 C31.626588,47.7058451 31.6053878,47.6693277 31.6053878,47.6302716 L31.6053878,45.204693 C31.6053878,45.1574351 31.6356177,45.1160357 31.68057,45.1006085 C31.7247371,45.0875247 31.7745968,45.1021707 31.8024712,45.1404457 L34.8876903,49.3040204 C34.9179203,49.3454199 34.9155647,49.4016607 34.8812125,49.4399356 C34.8600123,49.4635646 34.8295861,49.4766484 34.7993561,49.4766484"/><polygon fill="#969595" points="36.427 50.295 36.422 47.823 39.534 52.035 36.427 50.295"/><path fill="#000" fill-rule="nonzero" d="M36.5358102,50.2308215 L39.1457914,51.6930816 L36.5316879,48.1544044 L36.5358102,50.2308215 Z M39.5334804,52.1430078 C39.5154209,52.1430078 39.4975578,52.1389069 39.4802835,52.1291429 L36.373079,50.3895845 C36.3387268,50.3700565 36.3175266,50.333539 36.3175266,50.2942877 L36.3126191,47.8232087 C36.3126191,47.7759508 36.3428491,47.7345514 36.3878014,47.7191242 C36.4319685,47.7060404 36.481043,47.7214676 36.5097025,47.7581803 L39.6218146,51.9705751 C39.6520445,52.0119746 39.6496889,52.0689965 39.6153367,52.1064903 C39.5941365,52.1301193 39.5637103,52.1432031 39.5334804,52.1432031"/><polygon fill="#969595" points="41.012 52.77 41.012 50.468 43.759 54.176 41.012 52.77"/><path fill="#000" fill-rule="nonzero" d="M41.121533,52.7042438 L43.3952553,53.8669437 L41.121533,50.7977207 L41.121533,52.7040486 L41.121533,52.7042438 Z M43.7593885,54.2844533 C43.7421142,54.2844533 43.7250363,54.2803524 43.7095287,54.2723459 L40.962924,52.8671077 C40.9260199,52.8483608 40.9032493,52.810867 40.9032493,52.7702486 L40.9032493,50.4682825 C40.9032493,50.4218058 40.9334793,50.3804063 40.9784316,50.3649792 C41.0225987,50.3511143 41.0724584,50.3657603 41.1003328,50.4040353 L43.8469375,54.1110443 C43.8771674,54.1516626 43.8748118,54.2079034 43.84203,54.2461784 C43.8208298,54.2705884 43.7904036,54.2844533 43.7593885,54.2844533"/><polygon fill="#969595" points="45.784 55.554 45.784 53.111 48.888 57.303"/><path fill="#000" fill-rule="nonzero" d="M45.8925612,55.4903102 L48.4976349,56.957257 L45.8925612,53.4414276 L45.8925612,55.4903102 Z M48.888661,57.4112841 C48.8706016,57.4112841 48.8517569,57.4064021 48.8354642,57.3966381 L45.72983,55.6480968 C45.6954778,55.6293499 45.6742776,55.5928324 45.6742776,55.5537763 L45.6742776,53.1119894 C45.6742776,53.0655127 45.7045075,53.0241132 45.7494598,53.0086861 C45.7936269,52.9948212 45.8434867,53.0094672 45.871361,53.0477422 L48.9769952,57.2380703 C49.0072251,57.2796651 49.0048695,57.3364917 48.9705174,57.3747666 C48.9493172,57.3983956 48.9190872,57.4114794 48.888661,57.4114794"/></g></g></g><path stroke="#414141" stroke-width=".818" d="M281.103961,25 C281.103961,11.2020684 269.84351,2.84217094e-14 255.973666,2.84217094e-14 C242.103823,2.84217094e-14 230.843372,11.2020684 230.843372,25 C230.843372,38.7979316 242.103823,50 255.973666,50 C269.84351,50 281.103961,38.7979316 281.103961,25 Z"/><path fill="#FFF" d="M434.999607,25 C434.999607,38.8071098 423.748382,50 409.869313,50 C395.990243,50 384.739018,38.8071098 384.739018,25 C384.739018,11.1928902 395.990243,0 409.869313,0 C423.748382,0 434.999607,11.1928902 434.999607,25"/><g transform="translate(384.74)"><mask id="j" fill="#fff"><use xlink:href="#i"/></mask><g mask="url(#j)"><g transform="translate(5.94 -11.988)"><polygon fill="#F7F6E8" points="61.321 6.819 2.191 39.758 61.321 72.696 120.451 39.758"/><path fill="#000" fill-rule="nonzero" d="M2.41446813,38.8487045 L61.3212089,71.6630475 L120.22795,38.8487045 L61.3212089,6.03436155 L2.41446813,38.8487045 L2.41446813,38.8487045 Z M61.3212089,71.8958218 C61.3023642,71.8958218 61.2843048,71.8917209 61.2672269,71.8819569 L2.13808023,38.943025 C2.10372804,38.924278 2.08252783,38.8877606 2.08252783,38.8487045 C2.08252783,38.8096484 2.10372804,38.7729357 2.13808023,38.7534076 L61.2672269,5.81447575 C61.3007939,5.79572883 61.3408387,5.79572883 61.3744057,5.81447575 L120.504338,38.7534076 C120.53869,38.7729357 120.55989,38.8094531 120.55989,38.8487045 C120.55989,38.8877606 120.53869,38.924278 120.504338,38.943025 L61.3744057,71.8819569 C61.3571314,71.8917209 61.3392683,71.8958218 61.3212089,71.8958218"/><path fill="#000" d="M61.32062,72.6156256 C61.3025605,72.6156256 61.2837159,72.6115247 61.2674232,72.6017606 L2.13749134,39.7157498 C2.10313915,39.6962217 2.08193894,39.6597043 2.08193894,39.6206482 L2.08193894,38.8485092 L2.30041886,38.8485092 L2.30041886,39.557182 L61.2118708,72.3227049 L61.2118708,71.7872458 L61.4293692,71.7872458 L61.4293692,72.5074402 C61.4293692,72.5457152 61.4089542,72.5806704 61.3761724,72.6001984 C61.3588981,72.6107435 61.3392683,72.6156256 61.32062,72.6156256"/><polyline fill="#ADADAD" stroke="#000" stroke-linecap="round" stroke-linejoin="round" stroke-width=".204" points="64.41 3.066 5.689 35.677 .567 32.697 59.44 0"/><path fill="#ADADAD" stroke="#000" stroke-linecap="round" stroke-linejoin="round" stroke-width=".204" d="M7.47169921,41.0645519 L5.68872246,35.6763734 C5.43687185,35.1344701 5.01640105,34.6878637 4.49051812,34.4013873 L1.40706565,32.7252951 C0.876275262,32.4372564 0.213768763,32.7139688 0.0500560465,33.2931707 L0.000196298221,36.837511 L7.47169921,41.0645519 L7.47169921,41.0645519 Z"/><polygon fill="#ADADAD" stroke="#000" stroke-linecap="round" stroke-linejoin="round" stroke-width=".204" points="5.689 35.677 64.41 3.066 66.193 8.454 7.472 41.065"/><path fill="#ADADAD" stroke="#000" stroke-linecap="round" stroke-linejoin="round" stroke-width=".204" d="M0,36.837511 L0,40.8302154 C0,41.199686 0.200420484,41.5396693 0.525097743,41.7195226 L58.6440937,73.9749729 L59.605955,69.6096734 L0,36.837511 Z"/><polygon fill="#ADADAD" stroke="#000" stroke-linecap="round" stroke-linejoin="round" stroke-width=".204" points="9.825 39.757 7.471 41.064 59.606 69.61 61.268 67.925 9.826 39.757"/></g></g></g><path stroke="#414141" stroke-width=".818" d="M434.999607,25 C434.999607,11.2020684 423.739156,2.84217094e-14 409.869313,2.84217094e-14 C395.999469,2.84217094e-14 384.739018,11.2020684 384.739018,25 C384.739018,38.7979316 395.999469,50 409.869313,50 C423.739156,50 434.999607,38.7979316 434.999607,25 Z"/><path fill="#FFF" d="M358.051686,25 C358.051686,38.8071098 346.800461,50 332.921391,50 C319.042322,50 307.791097,38.8071098 307.791097,25 C307.791097,11.1928902 319.042322,0 332.921391,0 C346.800461,0 358.051686,11.1928902 358.051686,25"/><g transform="translate(307.791)"><mask id="l" fill="#fff"><use xlink:href="#k"/></mask><g mask="url(#l)"><g transform="translate(1.448 -9.822)"><polygon fill="#FFF" points="61.916 .109 0 34.599 61.916 69.091 123.832 34.599 61.916 .109"/><path fill="#000" fill-rule="nonzero" d="M3.00944804,33.0477031 L61.9159925,65.8620461 L120.822733,33.0477031 L61.9159925,0.233360152 L3.00944804,33.0477031 L3.00944804,33.0477031 Z M61.9159925,66.0948204 C61.8971479,66.0948204 61.8790884,66.0907195 61.8620105,66.0817366 L2.73286384,33.1428047 C2.69851165,33.1232766 2.67731145,33.0867592 2.67731145,33.0477031 C2.67731145,33.008647 2.69851165,32.9719343 2.73286384,32.9524062 L61.8620105,0.0134743519 C61.8955775,-0.00449145062 61.9356223,-0.00449145062 61.9691893,0.0134743519 L121.099121,32.9524062 C121.133473,32.9719343 121.154674,33.0084517 121.154674,33.0477031 C121.154674,33.0867592 121.133473,33.1232766 121.099121,33.1428047 L61.9691893,66.0817366 C61.9519151,66.0907195 61.9340519,66.0948204 61.9159925,66.0948204"/><polygon fill="#000" points="4.365 32.103 4.258 32.292 63.396 65.227 63.503 65.038"/><path fill="#000" d="M61.9155999,69.6432617 C61.8975405,69.6432617 61.8786958,69.6391608 61.8624031,69.6293967 L2.73247125,36.710774 C2.69811906,36.691246 2.67691885,36.6555096 2.67691885,36.6164536 L2.67691885,33.0477031 L2.89520247,33.0477031 L2.89520247,36.5529874 L61.8068507,69.350341 L61.8068507,65.986635 L62.0243491,65.986635 L62.0243491,69.5350763 C62.0243491,69.5733512 62.0039341,69.6083064 61.9703671,69.6278345 C61.9540743,69.6383796 61.9344445,69.6432617 61.9155999,69.6432617"/><polygon fill="#000" points="4.365 33.993 4.259 33.803 63.396 .868 63.502 1.058"/><path fill="#000" d="M7.61931547,34.1053421 L7.51468852,33.9157248 L61.8066544,4.3217519 L61.8066544,1.81649886 L62.024938,1.81649886 L62.024938,4.38599917 C62.024938,4.42583639 62.0029526,4.46176799 61.9676189,4.48031964 L7.61911918,34.1053421 L7.61931547,34.1053421 Z"/><polygon fill="#000" points="7.619 34.105 7.515 33.916 64.2 3.023 64.305 3.213"/><polyline fill="#969595" points="65.248 3.752 8.742 34.546 10.626 35.714 65.043 6.09 65.043 3.863"/><path fill="#000" fill-rule="nonzero" d="M8.95787305,34.5521438 L10.6289598,35.5886925 L64.9340776,6.02576921 L64.9340776,4.04601589 L8.95787305,34.5521438 L8.95787305,34.5521438 Z M10.6256227,35.823029 C10.6059929,35.823029 10.5855779,35.8173659 10.5683037,35.8068208 L8.68462592,34.6384578 C8.65105893,34.6181486 8.6322143,34.5814359 8.6329759,34.5431609 C8.63378468,34.5048859 8.65498489,34.4699307 8.68953338,34.4511838 L65.1947617,3.65701721 L65.2993886,3.84663454 L65.152165,3.92709009 L65.152165,6.09060232 C65.152165,6.13043954 65.1309648,6.16637114 65.0958274,6.18492279 L10.6778381,35.8089688 C10.6615453,35.8179517 10.6434859,35.823029 10.6254264,35.823029"/><polygon fill="#000" points="12.077 36.507 11.972 36.317 68.657 5.424 68.762 5.614"/><polyline fill="#969595" points="69.705 6.153 13.199 36.947 15.084 38.115 69.501 8.492 69.501 6.265"/><path fill="#000" fill-rule="nonzero" d="M13.4154131,36.9535076 L15.0864998,37.9900563 L69.3924029,8.42713305 L69.3924029,6.44737973 L13.4154131,36.9535076 L13.4154131,36.9535076 Z M15.0831628,38.2243929 C15.0635329,38.2243929 15.0431179,38.2187297 15.0258437,38.2081846 L13.1421659,37.0398216 C13.1085989,37.0195124 13.0897543,36.9837761 13.0905159,36.9445247 C13.0913247,36.9062498 13.1125249,36.8712946 13.1470734,36.8525476 L69.6523017,6.05838105 L69.7569287,6.24799838 L69.609705,6.32845393 L69.609705,8.49196616 C69.609705,8.53180338 69.5885048,8.5685161 69.5533674,8.58628662 L15.1353781,38.2103327 C15.1190853,38.2193156 15.1010259,38.2243929 15.0829665,38.2243929"/><polygon fill="#000" points="16.508 39.073 16.404 38.884 73.089 7.991 73.194 8.181"/><polyline fill="#969595" points="74.137 8.72 17.631 39.514 19.515 40.682 73.932 11.059 73.932 8.832"/><path fill="#000" fill-rule="nonzero" d="M17.8468454,39.520274 L19.5179322,40.5568227 L73.8238352,10.9938994 L73.8238352,9.01414612 L17.8468454,39.520274 L17.8468454,39.520274 Z M19.5145951,40.7911593 C19.4949653,40.7911593 19.4745503,40.7854961 19.457276,40.774951 L17.5735983,39.606588 C17.5400313,39.5862788 17.5211867,39.5495661 17.5219483,39.5112911 C17.5227571,39.4730161 17.5439573,39.4380609 17.5785058,39.419314 L74.0837341,8.62514744 L74.188361,8.81476477 L74.0411373,8.89522032 L74.0411373,11.0587326 C74.0411373,11.0977886 74.0199371,11.1345014 73.9847997,11.153053 L19.5668104,40.7770991 C19.5505177,40.786082 19.5324582,40.7911593 19.5143988,40.7911593"/><polygon fill="#000" points="21.016 41.512 20.911 41.323 77.597 10.43 77.701 10.62"/><polyline fill="#969595" points="78.645 11.159 22.139 41.953 24.023 43.12 78.44 13.497 78.44 11.27"/><path fill="#000" fill-rule="nonzero" d="M22.3546378,41.9589364 L24.0257245,42.9954851 L78.3316276,13.4325618 L78.3316276,11.4537849 L22.3546378,41.9589364 L22.3546378,41.9589364 Z M24.0223875,43.2298217 C24.0027577,43.2298217 23.9823426,43.2241585 23.9650684,43.2136134 L22.0813907,42.0452504 C22.0478237,42.0249412 22.028979,41.9882285 22.0297406,41.9499535 C22.0305494,41.9116786 22.0517496,41.8767234 22.0862981,41.8579764 L78.5923116,11.0638098 L78.6969386,11.2534272 L78.5489297,11.3338827 L78.5489297,13.497395 C78.5489297,13.5364511 78.5277295,13.5731638 78.4925921,13.5917154 L24.0746028,43.2157615 C24.05831,43.2247444 24.0402506,43.2298217 24.0221912,43.2298217"/><polygon fill="#000" points="25.388 43.982 25.284 43.792 81.969 12.901 82.074 13.09"/><polyline fill="#969595" points="83.017 13.629 26.511 44.423 28.395 45.591 82.813 15.967 82.9 13.826"/><path fill="#000" fill-rule="nonzero" d="M26.7269844,44.4288437 L28.3980711,45.4653924 L82.7063297,15.9014927 L82.7889713,13.8754579 L26.7269844,44.4286484 L26.7269844,44.4288437 Z M28.3947341,45.699729 C28.3751042,45.699729 28.3546892,45.6940658 28.337415,45.6835207 L26.4537372,44.5151577 C26.4201703,44.4948485 26.4013256,44.4581358 26.4020872,44.4198608 C26.402896,44.3815858 26.4240962,44.3466306 26.4586447,44.3278837 L82.963873,13.5337171 L83.0685,13.7233345 L82.8812315,13.8258567 L83.0088253,13.8307387 L82.9212763,15.9723795 C82.9197059,16.0098734 82.8983094,16.0448286 82.8649387,16.0625991 L28.4469494,45.685864 C28.4306566,45.6948469 28.4125972,45.699729 28.3945378,45.699729"/><polygon fill="#000" points="30.08 46.5 29.976 46.31 86.661 15.417 86.765 15.607"/><polyline fill="#969595" points="87.709 16.146 31.203 46.94 33.087 48.108 87.504 18.484 87.68 16.257"/><path fill="#000" fill-rule="nonzero" d="M31.4191008,46.9463994 L33.0901875,47.9829481 L87.4002128,18.4174862 L87.5621588,16.3490755 L31.4191008,46.9462041 L31.4191008,46.9463994 Z M33.0868505,48.2172847 C33.0672206,48.2172847 33.0468056,48.2116215 33.0295314,48.2010764 L31.1458536,47.0327134 C31.1122866,47.0124042 31.093442,46.9756915 31.0942036,46.9374165 C31.0950124,46.8991415 31.1162126,46.8641863 31.1507611,46.8454394 L87.6559894,16.0512728 L87.7606163,16.2408902 L87.725479,16.2604182 L87.7877055,16.2653002 L87.6126075,18.4930597 C87.6100556,18.5297725 87.5888554,18.562189 87.5560736,18.5793737 L33.1388695,48.2034198 C33.1225767,48.2124027 33.1045173,48.2172847 33.0864579,48.2172847"/><polygon fill="#000" points="34.661 49.113 34.557 48.923 91.242 18.031 91.346 18.221 34.661 49.113"/><polyline fill="#969595" points="92.29 18.76 35.784 49.554 37.668 50.721 92.085 21.098 92.085 18.871"/><path fill="#000" fill-rule="nonzero" d="M35.9997198,49.5596426 L37.6708065,50.5961912 L91.9767096,21.033268 L91.9767096,19.0535147 L35.9997198,49.5596426 Z M37.6674695,50.8305278 C37.6478396,50.8305278 37.6274246,50.8248647 37.6101504,50.8143195 L35.7264726,49.6459565 C35.6929056,49.6256474 35.674061,49.5889346 35.6748226,49.5508549 C35.6756314,49.51258 35.6968316,49.4776248 35.7313801,49.4588778 L92.2366084,18.6647113 L92.3412354,18.8543286 L92.1940117,18.9347841 L92.1940117,21.0982964 C92.1940117,21.1373525 92.1728115,21.1740652 92.1376741,21.1926168 L37.7196848,50.8166629 C37.703392,50.8256458 37.6853326,50.8305278 37.6672732,50.8305278"/><polygon fill="#000" points="39.416 51.692 39.311 51.502 95.997 20.611 96.101 20.8 39.416 51.692"/><polyline fill="#969595" points="97.045 21.339 40.539 52.133 42.423 53.301 96.84 23.678 96.84 21.451"/><path fill="#000" fill-rule="nonzero" d="M40.7550442,52.139688 L42.4261309,53.1754556 L96.7312488,23.6133134 L96.7312488,21.6345365 L40.7550442,52.139688 L40.7550442,52.139688 Z M42.4227939,53.4097921 C42.4031641,53.4097921 42.382749,53.404129 42.3654748,53.3935839 L40.4817971,52.226002 C40.4482301,52.2056928 40.4293854,52.1697612 40.430147,52.1307051 C40.4309558,52.0924301 40.452156,52.0574749 40.4867045,52.038728 L96.9919328,21.2445614 L97.0965598,21.4341788 L96.9493361,21.5146343 L96.9493361,23.6781466 C96.9493361,23.7179838 96.9271544,23.7539154 96.892017,23.772467 L42.4748129,53.395732 C42.4585202,53.4047149 42.4404607,53.4097921 42.4224013,53.4097921"/><polygon fill="#000" points="44.179 54.346 44.074 54.157 100.759 23.264 100.864 23.454 44.179 54.346"/><polyline fill="#969595" points="101.807 23.992 45.301 54.787 47.185 55.954 101.603 26.332 101.603 24.104"/><path fill="#000" fill-rule="nonzero" d="M45.517239,54.7929637 L47.1883258,55.8295123 L101.493444,26.2665891 L101.493444,24.2878122 L45.517239,54.7931589 L45.517239,54.7929637 Z M47.1849887,56.0638489 C47.1653589,56.0638489 47.1449439,56.0581858 47.1276697,56.0476406 L45.2439919,54.8792776 C45.2104249,54.8589685 45.1915803,54.8222557 45.1923419,54.784176 C45.1931507,54.7459011 45.2143509,54.7109459 45.2488994,54.6921989 L101.754913,23.8980324 L101.85954,24.0876497 L101.711531,24.1681052 L101.711531,26.3316175 C101.711531,26.3706736 101.690331,26.4073863 101.655193,26.4259379 L47.2372041,56.049984 C47.2209113,56.0589669 47.2028519,56.0638489 47.1847924,56.0638489"/></g></g></g><path stroke="#414141" stroke-width=".818" d="M358.051686,25 C358.051686,11.2020684 346.791235,2.84217094e-14 332.921391,2.84217094e-14 C319.051548,2.84217094e-14 307.791097,11.2020684 307.791097,25 C307.791097,38.7979316 319.051548,50 332.921391,50 C346.791235,50 358.051686,38.7979316 358.051686,25 Z"/></g></svg>