<svg xmlns="http://www.w3.org/2000/svg" width="188" height="64" viewBox="0 0 188 64"><g fill="none" fill-rule="evenodd"><text fill="#414141" font-family="Montserrat-Light, Montserrat" font-size="28" font-weight="300">
                    <tspan x="74" y="33">Shading</tspan>
                    <tspan x="74" y="59">Systems</tspan>
                </text><circle cx="32" cy="32" r="32" fill="#414141" opacity=".301"/><circle cx="32" cy="32" r="25.6" fill="#414141"/><path fill="#4FACD8" d="M9.4158973 22.5299387C9.4937608 22.5256485 9.55033349 22.4962298 9.59960649 22.4349408 10.6282563 21.1417441 11.3557933 19.6058431 11.7037458 17.9927181L11.7706598 17.6562418C11.8704224 17.1138346 11.9300366 16.557331 11.9470693 16.0075692 11.9263868 15.3309392 11.8454817 14.6665671 11.7055708 14.0169043 11.305912 12.1635266 10.422648 10.4413072 9.15067477 9.03717749L2.96721817 2.80654336C2.91551194 2.75444776 2.86198078 2.73177085 2.78959206 2.73177085 2.78837545 2.73177085 2.78655052 2.73177085 2.7853339 2.73177085 2.71112026 2.73299663 2.6569808 2.75628643 2.60527457 2.81083359 2.52376122 2.897251 2.4440728 2.98489419 2.36560099 3.07376316 1.68247047 3.85519721 1.12830136 4.7561447.718909696 5.75209005-.658300903 9.10091799-.0280932262 12.8450596 2.36316776 15.5246123 2.47935469 15.6545449 2.60101641 15.7832516 2.72328643 15.9070553L9.22306348 22.4557791C9.27841956 22.511552 9.33864211 22.5348418 9.4158973 22.5299387M25.2715818 25.2631192C23.8104246 23.7909587 21.9763743 22.7809169 19.9683477 22.3420881 19.3235406 22.2005106 18.6641341 22.1189963 18.0089858 22.098771L17.9907365 22.098771C17.3361965 22.1189963 16.67679 22.2005106 16.031983 22.3414752 14.0233481 22.7809169 12.1892977 23.7909587 10.7287489 25.2631192L4.47412015 31.5648485C4.39809711 31.6414597 4.3780074 31.7425864 4.41876407 31.8424874 4.46012905 31.9423884 4.54529225 32 4.65296287 32L26.7376055 31.9993871C28.1202908 31.9993871 29.4348456 31.7180709 30.6441631 31.162793 30.7250681 31.1254068 30.7719079 31.0641178 30.7877239 30.9758617 30.8035399 30.8876057 30.7810325 30.8140589 30.7177684 30.7503184L25.2715818 25.2631192ZM10.728688 6.73688081C12.1898452 8.20904127 14.0238955 9.21908308 16.0319221 9.65852481 16.6773375 9.79948939 17.3373523 9.88100368 17.9925006 9.90122903 18.6628567 9.88100368 19.3228715 9.79948939 19.9682869 9.65791192 21.9763135 9.21908308 23.8103638 8.20904127 25.271521 6.73688081L31.5261497.435151508C31.6019984.358540327 31.6222624.257413568 31.5808974.157512588 31.5401408.0576116081 31.4549776 0 31.347307 0L9.26266437.000612889448C7.879979.000612889448 6.56542418.281929146 5.35610675.837819876 5.27520171.874593243 5.22775364.935882187 5.21193761 1.02413827 5.1967299 1.11239435 5.21923732 1.18594108 5.2818931 1.2490687L10.728688 6.73688081ZM33.6371021 16.4757554C33.5184819 16.3427584 33.3968202 16.2140516 33.2769834 16.0933124L26.7772063 9.54397578C26.7261084 9.49310595 26.671969 9.46981615 26.6026218 9.46981615 26.5965387 9.46981615 26.5904556 9.46981615 26.5843725 9.47042904 26.506509 9.47471927 26.4499363 9.50352507 26.4012716 9.56481402 25.3720135 10.8580108 24.6438682 12.3939117 24.296524 14.0070367L24.2296101 14.343513C24.1298475 14.8853073 24.0702332 15.4418109 24.0532006 15.9921857 24.0732748 16.6688156 24.1547881 17.3338007 24.2946991 17.9828506 24.6937495 19.8368412 25.5776218 21.5584476 26.8495951 22.9631902L33.0330517 29.1932115C33.0859745 29.2465329 33.1413306 29.2667582 33.2155442 29.267984 33.2897579 29.2673711 33.343289 29.2434684 33.3949953 29.1889213 33.4765086 29.1025038 33.556197 29.0154735 33.6340605 28.9259917 34.3177994 28.1445576 34.8719685 27.2436101 35.2813601 26.2476648 36.6579624 22.8988369 36.0283631 19.1546952 33.6371021 16.4757554" transform="translate(14 16)"/></g></svg>