<svg xmlns="http://www.w3.org/2000/svg" width="255" height="53" viewBox="0 0 255 53"><g fill="none" fill-rule="evenodd"><path fill="#414141" fill-rule="nonzero" d="M10.7937915 3.6404375C10.1269337 3.2230625 9.39804256 2.90230208 8.60711819 2.67815625 7.81619381 2.45401042 7.0717944 2.3419375 6.37391996 2.3419375 5.25732084 2.3419375 4.3617153 2.56221875 3.68710333 3.00278125 3.01249137 3.44334375 2.67518538 4.04235417 2.67518538 4.7998125 2.67518538 5.46452083 2.86128524 6.0055625 3.23348494 6.4229375 3.60568465 6.8403125 4.06318012 7.16880208 4.60597136 7.40840625 5.14876259 7.64801042 5.893162 7.91466667 6.83916959 8.208375 7.94026038 8.533 8.82811176 8.85376042 9.50272373 9.17065625 10.1773357 9.48755208 10.7511436 9.9474375 11.2241474 10.5503125 11.6971512 11.1531875 11.9336531 11.9492917 11.9336531 12.938625 11.9336531 13.8042917 11.689397 14.5694792 11.2008849 15.2341875 10.7123728 15.8988958 10.0261296 16.4128854 9.14215527 16.7761563 8.25818097 17.1394271 7.24238594 17.3210625 6.09477018 17.3210625 4.96266274 17.3210625 3.85769486 17.0969167 2.77986655 16.648625 1.70203824 16.2003333.775416053 15.6051875 0 14.8631875L.744399411 13.5415C1.4732905 14.2525833 2.318494 14.8090833 3.2800099 15.211 4.24152581 15.6129167 5.1875334 15.813875 6.11803266 15.813875 7.35869834 15.813875 8.34347673 15.5626771 9.07236782 15.0602813 9.80125891 14.5578854 10.1657045 13.8815833 10.1657045 13.031375 10.1657045 12.3512083 9.9796046 11.7947083 9.6074049 11.361875 9.23520519 10.9290417 8.77770972 10.5966875 8.23491848 10.3648125 7.69212725 10.1329375 6.93221951 9.86241667 5.95519529 9.55325 4.85410449 9.21316667 3.97013019 8.89240625 3.30327239 8.59096875 2.63641458 8.28953125 2.07036086 7.84123958 1.60511123 7.24609375 1.1398616 6.65094792.907236782 5.87416667.907236782 4.91575.907236782 4.09645833 1.1398616 3.37764583 1.60511123 2.7593125 2.07036086 2.14097917 2.72171035 1.66563542 3.55915968 1.33328125 4.39660902 1.00092708 5.36587909.83475 6.46696988.83475 7.35094418.83475 8.23879556.966145833 9.13052402 1.2289375 10.0222525 1.49172917 10.8092998 1.83954167 11.4916659 2.272375L10.7937915 3.6404375ZM22.1458825 5.0085C23.6036647 5.0085 24.7474033 5.42973958 25.5770985 6.27221875 26.4067937 7.11469792 26.8216413 8.27020833 26.8216413 9.73875L26.8216413 17.205125 25.2397925 17.205125 25.2397925 10.10975C25.2397925 8.96583333 24.9218719 8.06925 24.2860308 7.42 23.6501896 6.77075 22.7662153 6.446125 21.6341079 6.446125 20.2848839 6.46158333 19.226441 6.90601042 18.4587791 7.77940625 17.6911173 8.65280208 17.3072863 9.8083125 17.3072863 11.2459375L17.3072863 17.205125 15.7487 17.205125 15.7487 0 17.3072863 0 17.3072863 7.930125C18.1292273 6.01329167 19.7420927 5.03941667 22.1458825 5.0085ZM38.6389819 17.205125 38.6157194 15.164625C38.1349615 15.8757083 37.5068745 16.4051563 36.7314584 16.7529688 35.9560424 17.1007813 35.0643139 17.2746875 34.0562731 17.2746875 33.234332 17.2746875 32.509318 17.1162396 31.881231 16.7993438 31.253144 16.4824479 30.768509 16.04575 30.4273259 15.48925 30.0861429 14.93275 29.9155513 14.3066875 29.9155513 13.6110625 29.9155513 12.5598958 30.3226448 11.732875 31.1368316 11.13 31.9510185 10.527125 33.0714947 10.2256875 34.4982602 10.2256875L38.592457 10.2256875 38.592457 9.2981875C38.592457 8.33977083 38.305553 7.59777083 37.7317451 7.0721875 37.1579373 6.54660417 36.3204879 6.2838125 35.2193971 6.2838125 33.9166982 6.2838125 32.606245 6.77075 31.2880377 7.744625L30.5901633 6.678C31.4121043 6.10604167 32.1952745 5.68480208 32.9396739 5.41428125 33.6840733 5.14376042 34.537031 5.0085 35.4985469 5.0085 36.9718374 5.0085 38.111699 5.37563542 38.9181317 6.10990625 39.7245644 6.84417708 40.1355349 7.8605625 40.1510432 9.1590625L40.1743057 17.205125 38.6389819 17.205125ZM34.3354228 15.9761875C35.4210053 15.9761875 36.3398733 15.7249896 37.0920269 15.2225938 37.8441805 14.7201979 38.352078 14.0129792 38.6157194 13.1009375L38.6157194 11.4314375 34.6843601 11.4314375C33.6142859 11.4314375 32.800099 11.6092083 32.2417995 11.96475 31.6834999 12.3202917 31.4043501 12.8536042 31.4043501 13.5646875 31.4043501 14.2912292 31.6718687 14.8747813 32.2069058 15.3153438 32.7419428 15.7559063 33.4514485 15.9761875 34.3354228 15.9761875ZM55.4344936 0 55.4344936 17.205125 53.8759074 17.205125 53.8759074 14.422625C53.4106577 15.3346667 52.7593083 16.0418854 51.9218589 16.5442813 51.0844096 17.0466771 50.1073853 17.297875 48.9907862 17.297875 47.8431705 17.297875 46.8196213 17.0350833 45.9201387 16.5095 45.020656 15.9839167 44.3227816 15.2496458 43.8265153 14.3066875 43.330249 13.3637292 43.0821159 12.2971042 43.0821159 11.1068125 43.0821159 9.91652083 43.3341261 8.857625 43.8381466 7.930125 44.342167 7.002625 45.0400414 6.27608333 45.9317699 5.7505 46.8234984 5.22491667 47.8354163 4.962125 48.9675238 4.962125 50.0841229 4.962125 51.0650242 5.2171875 51.9102277 5.7273125 52.7554312 6.2374375 53.4106577 6.94852083 53.8759074 7.8605625L53.8759074 0 55.4344936 0ZM49.269936 15.953C50.1539103 15.953 50.9448347 15.7481771 51.6427091 15.3385312 52.3405836 14.9288854 52.8872519 14.3607917 53.2827141 13.63425 53.6781763 12.9077083 53.8759074 12.0806875 53.8759074 11.1531875 53.8759074 10.2256875 53.6781763 9.39480208 53.2827141 8.66053125 52.8872519 7.92626042 52.3405836 7.3504375 51.6427091 6.9330625 50.9448347 6.5156875 50.1539103 6.307 49.269936 6.307 48.3859617 6.307 47.5950373 6.5156875 46.8971629 6.9330625 46.1992884 7.3504375 45.648743 7.92626042 45.2455267 8.66053125 44.8423103 9.39480208 44.6407022 10.2256875 44.6407022 11.1531875 44.6407022 12.0806875 44.8384333 12.9077083 45.2338955 13.63425 45.6293576 14.3607917 46.179903 14.9288854 46.8855316 15.3385312 47.5911603 15.7481771 48.3859617 15.953 49.269936 15.953ZM60.1102524 5.054875 61.6688387 5.054875 61.6688387 17.205125 60.1102524 17.205125 60.1102524 5.054875ZM60.9011768.46375C61.2113432.46375 61.4672305.56809375 61.6688387.77678125 61.8704469.98546875 61.971251 1.24439583 61.971251 1.5535625 61.971251 1.86272917 61.8665698 2.12552083 61.6572075 2.3419375 61.4478451 2.55835417 61.1958349 2.6665625 60.9011768 2.6665625 60.5910104 2.6665625 60.331246 2.55835417 60.1218837 2.3419375 59.9125213 2.12552083 59.8078402 1.86272917 59.8078402 1.5535625 59.8078402 1.24439583 59.9125213.98546875 60.1218837.77678125 60.331246.56809375 60.5910104.46375 60.9011768.46375ZM72.5789426 5.0085C74.0367247 5.0085 75.1804634 5.42973958 76.0101586 6.27221875 76.8398538 7.11469792 77.2547014 8.27020833 77.2547014 9.73875L77.2547014 17.205125 75.6728526 17.205125 75.6728526 10.10975C75.6728526 8.96583333 75.354932 8.06925 74.7190909 7.42 74.0832497 6.77075 73.1992754 6.446125 72.067168 6.446125 70.810994 6.46158333 69.8068302 6.84804167 69.0546766 7.6055 68.302523 8.36295833 67.8721671 9.38320833 67.7636089 10.66625L67.7636089 17.205125 66.2050226 17.205125 66.2050226 5.054875 67.7636089 5.054875 67.7636089 7.88375C68.1823335 6.94079167 68.7987893 6.22970833 69.6129762 5.7505 70.427163 5.27129167 71.4158185 5.02395833 72.5789426 5.0085ZM91.9565897 5.054875 91.9565897 15.9298125C91.9565897 17.1046458 91.7084566 18.132625 91.2121903 19.01375 90.715924 19.894875 90.0064184 20.5711771 89.0836733 21.0426563 88.1609282 21.5141354 87.0947311 21.749875 85.885082 21.749875 84.0861168 21.749875 82.4189723 21.1315417 80.8836485 19.894875L81.6280479 18.781875C82.2483807 19.3229167 82.8997302 19.7325625 83.5820964 20.0108125 84.2644625 20.2890625 85.0088619 20.4281875 85.8152946 20.4281875 87.2110435 20.4281875 88.3237655 20.0224063 89.1534607 19.2108438 89.9831559 18.3992813 90.3980035 17.3133333 90.3980035 15.953L90.3980035 13.9820625C89.9637705 14.8322708 89.3434376 15.4969792 88.5370049 15.9761875 87.7305722 16.4553958 86.800073 16.695 85.7455071 16.695 84.6599247 16.695 83.6945317 16.4438021 82.8493282 15.9414063 82.0041247 15.4390104 81.345021 14.7433854 80.8720173 13.8545313 80.3990135 12.9656771 80.1625116 11.9570208 80.1625116 10.8285625 80.1625116 9.70010417 80.3990135 8.6953125 80.8720173 7.8141875 81.345021 6.9330625 82.0080018 6.24516667 82.8609594 5.7505 83.7139171 5.25583333 84.6831872 5.0085 85.7687696 5.0085 86.8233355 5.0085 87.7460806 5.24423958 88.5370049 5.71571875 89.3279293 6.18719792 89.9482622 6.85577083 90.3980035 7.7214375L90.3980035 5.054875 91.9565897 5.054875ZM86.0246569 15.442875C86.8621063 15.442875 87.6142598 15.2457813 88.2811176 14.8515938 88.9479754 14.4574063 89.4675042 13.9125 89.8397039 13.216875 90.2119036 12.52125 90.3980035 11.7406042 90.3980035 10.8749375 90.3980035 9.9938125 90.2119036 9.2054375 89.8397039 8.5098125 89.4675042 7.8141875 88.9479754 7.26928125 88.2811176 6.87509375 87.6142598 6.48090625 86.8621063 6.2838125 86.0246569 6.2838125 85.1872076 6.2838125 84.435054 6.48090625 83.7681962 6.87509375 83.1013384 7.26928125 82.5779326 7.8141875 82.1979787 8.5098125 81.8180248 9.2054375 81.6280479 9.9938125 81.6280479 10.8749375 81.6280479 11.7560625 81.8180248 12.5405729 82.1979787 13.2284688 82.5779326 13.9163646 83.0974613 14.4574063 83.756565 14.8515938 84.4156686 15.2457813 85.1716993 15.442875 86.0246569 15.442875ZM111.892536 3.6404375C111.225679 3.2230625 110.496788 2.90230208 109.705863 2.67815625 108.914939 2.45401042 108.170539 2.3419375 107.472665 2.3419375 106.356066 2.3419375 105.46046 2.56221875 104.785848 3.00278125 104.111236 3.44334375 103.77393 4.04235417 103.77393 4.7998125 103.77393 5.46452083 103.96003 6.0055625 104.33223 6.4229375 104.70443 6.8403125 105.161925 7.16880208 105.704716 7.40840625 106.247508 7.64801042 106.991907 7.91466667 107.937915 8.208375 109.039005 8.533 109.926857 8.85376042 110.601469 9.17065625 111.276081 9.48755208 111.849889 9.9474375 112.322892 10.5503125 112.795896 11.1531875 113.032398 11.9492917 113.032398 12.938625 113.032398 13.8042917 112.788142 14.5694792 112.29963 15.2341875 111.811118 15.8988958 111.124875 16.4128854 110.2409 16.7761563 109.356926 17.1394271 108.341131 17.3210625 107.193515 17.3210625 106.061408 17.3210625 104.95644 17.0969167 103.878612 16.648625 102.800783 16.2003333 101.874161 15.6051875 101.098745 14.8631875L101.843144 13.5415C102.572035 14.2525833 103.417239 14.8090833 104.378755 15.211 105.340271 15.6129167 106.286278 15.813875 107.216778 15.813875 108.457443 15.813875 109.442222 15.5626771 110.171113 15.0602813 110.900004 14.5578854 111.264449 13.8815833 111.264449 13.031375 111.264449 12.3512083 111.07835 11.7947083 110.70615 11.361875 110.33395 10.9290417 109.876455 10.5966875 109.333663 10.3648125 108.790872 10.1329375 108.030965 9.86241667 107.05394 9.55325 105.952849 9.21316667 105.068875 8.89240625 104.402017 8.59096875 103.73516 8.28953125 103.169106 7.84123958 102.703856 7.24609375 102.238607 6.65094792 102.005982 5.87416667 102.005982 4.91575 102.005982 4.09645833 102.238607 3.37764583 102.703856 2.7593125 103.169106 2.14097917 103.820455 1.66563542 104.657905 1.33328125 105.495354 1.00092708 106.464624.83475 107.565715.83475 108.449689.83475 109.337541.966145833 110.229269 1.2289375 111.120997 1.49172917 111.908045 1.83954167 112.590411 2.272375L111.892536 3.6404375ZM120.36008 18.9441875C119.98788 19.8716875 119.495491 20.5750417 118.882912 21.05425 118.270333 21.5334583 117.568582 21.7730625 116.777658 21.7730625 115.83165 21.7730625 114.994201 21.4948125 114.26531 20.9383125L114.963184 19.7325625C115.505975 20.1035625 116.087537 20.2890625 116.70787 20.2890625 117.204136 20.2890625 117.653878 20.12675 118.057094 19.802125 118.46031 19.4775 118.793739 19.0060208 119.057381 18.3876875L119.569155 17.1355625 114.521197 5.054875 116.172833 5.054875 120.36008 15.48925 124.384489 5.054875 125.9896 5.054875 120.36008 18.9441875ZM134.457144 7.2113125C133.991894 6.91760417 133.472365 6.68959375 132.898557 6.52728125 132.324749 6.36496875 131.758696 6.2838125 131.200396 6.2838125 130.42498 6.2838125 129.80077 6.43453125 129.327766 6.73596875 128.854763 7.03740625 128.618261 7.4895625 128.618261 8.0924375 128.618261 8.5098125 128.746204 8.84989583 129.002092 9.1126875 129.257979 9.37547917 129.5759 9.58803125 129.955853 9.75034375 130.335807 9.91265625 130.866967 10.0942917 131.549333 10.29525 132.386783 10.5425833 133.069149 10.7860521 133.596432 11.0256562 134.123715 11.2652604 134.573456 11.6130729 134.945656 12.0690938 135.317855 12.5251146 135.503955 13.124125 135.503955 13.866125 135.503955 14.9636667 135.085231 15.8022813 134.247781 16.3819688 133.410332 16.9616562 132.36352 17.2515 131.107346 17.2515 130.223372 17.2515 129.370414 17.1046458 128.548473 16.8109375 127.726532 16.5172292 127.036412 16.0998542 126.478112 15.5588125L127.106199 14.4458125C127.633482 14.9250208 128.257692 15.30375 128.978829 15.582 129.699966 15.86025 130.432734 15.999375 131.177134 15.999375 131.999075 15.999375 132.66981 15.8293333 133.189338 15.48925 133.708867 15.1491667 133.968631 14.6545 133.968631 14.00525 133.968631 13.5569583 133.836811 13.1898229 133.573169 12.9038437 133.309528 12.6178646 132.979976 12.3937187 132.584514 12.2314063 132.189052 12.0690938 131.642383 11.8797292 130.944509 11.6633125 130.122568 11.4159792 129.45571 11.176375 128.943935 10.9445 128.432161 10.712625 127.997928 10.3764062 127.641236 9.93584375 127.284545 9.49528125 127.106199 8.91945833 127.106199 8.208375 127.106199 7.14175 127.505539 6.33791667 128.304217 5.796875 129.102896 5.25583333 130.099305 4.9853125 131.293446 4.9853125 131.991321 4.9853125 132.665933 5.0780625 133.317282 5.2635625 133.968631 5.4490625 134.550194 5.704125 135.061968 6.02875L134.457144 7.2113125ZM144.73916 16.370375C143.901711 16.9423333 143.002229 17.2437708 142.040713 17.2746875 141.110213 17.2746875 140.373568 16.9887083 139.830777 16.41675 139.287986 15.8447917 139.01659 14.9868542 139.01659 13.8429375L139.01659 6.6084375 137.271904 6.6084375 137.248641 5.4026875 139.01659 5.4026875 139.01659 2.272375 140.575176 2.272375 140.575176 5.4026875 144.529798 5.3795 144.529798 6.6084375 140.575176 6.6084375 140.575176 13.587875C140.575176 15.0873333 141.133476 15.8370625 142.250075 15.8370625 142.870408 15.8370625 143.54502 15.6206458 144.273911 15.1878125L144.73916 16.370375ZM152.113367 5.0085C154.005382 5.0085 155.447656 5.60751042 156.440189 6.80553125 157.432721 8.00355208 157.890217 9.61508333 157.812675 11.640125L147.646971 11.640125C147.755529 12.938625 148.236287 13.9859271 149.089245 14.7820313 149.942202 15.5781354 150.996768 15.9761875 152.252942 15.9761875 153.028358 15.9761875 153.749495 15.8370625 154.416353 15.5588125 155.083211 15.2805625 155.657018 14.886375 156.137776 14.37625L157.021751 15.257375C156.432435 15.8911667 155.722929 16.3819688 154.893234 16.7297813 154.063539 17.0775938 153.152425 17.2515 152.159892 17.2515 150.98126 17.2515 149.934448 16.9925729 149.019457 16.4747188 148.104466 15.9568646 147.387206 15.2341875 146.867678 14.3066875 146.348149 13.3791875 146.088384 12.3202917 146.088384 11.13 146.088384 9.95516667 146.348149 8.90013542 146.867678 7.96490625 147.387206 7.02967708 148.104466 6.30313542 149.019457 5.78528125 149.934448 5.26742708 150.965751 5.0085 152.113367 5.0085ZM156.416926 10.434375C156.339385 9.16679167 155.916783 8.15813542 155.149121 7.40840625 154.381459 6.65867708 153.377295 6.2838125 152.13663 6.2838125 150.911472 6.2838125 149.887923 6.66254167 149.065982 7.42 148.244041 8.17745833 147.771037 9.18225 147.646971 10.434375L156.416926 10.434375ZM176.632023 5.0085C178.074297 5.0085 179.19865 5.425875 180.005083 6.260625 180.811515 7.095375 181.214732 8.25475 181.214732 9.73875L181.214732 17.205125 179.632883 17.205125 179.632883 10.10975C179.632883 8.950375 179.318839 8.04992708 178.690752 7.40840625 178.062665 6.76688542 177.198076 6.446125 176.096986 6.446125 174.794287 6.47704167 173.774615 6.92533333 173.037969 7.791 172.301324 8.65666667 171.933001 9.80058333 171.933001 11.22275L171.933001 17.205125 170.351153 17.205125 170.351153 10.10975C170.351153 8.950375 170.037109 8.04992708 169.409022 7.40840625 168.780935 6.76688542 167.916346 6.446125 166.815255 6.446125 165.512557 6.47704167 164.489007 6.92533333 163.744608 7.791 163.000209 8.65666667 162.628009 9.80058333 162.628009 11.22275L162.628009 17.205125 161.069423 17.205125 161.069423 5.054875 162.628009 5.054875 162.628009 7.9069375C163.031225 6.94852083 163.632173 6.22970833 164.430851 5.7505 165.22953 5.27129167 166.202677 5.02395833 167.350293 5.0085 168.513417 5.0085 169.47881 5.29447917 170.246472 5.8664375 171.014133 6.43839583 171.522031 7.24222917 171.770164 8.2779375 172.142364 7.19585417 172.743311 6.38429167 173.573006 5.84325 174.402702 5.30220833 175.422374 5.02395833 176.632023 5.0085ZM191.682848 7.2113125C191.217599 6.91760417 190.69807 6.68959375 190.124262 6.52728125 189.550454 6.36496875 188.9844 6.2838125 188.426101 6.2838125 187.650685 6.2838125 187.026475 6.43453125 186.553471 6.73596875 186.080467 7.03740625 185.843965 7.4895625 185.843965 8.0924375 185.843965 8.5098125 185.971909 8.84989583 186.227796 9.1126875 186.483684 9.37547917 186.801604 9.58803125 187.181558 9.75034375 187.561512 9.91265625 188.092672 10.0942917 188.775038 10.29525 189.612487 10.5425833 190.294854 10.7860521 190.822136 11.0256562 191.349419 11.2652604 191.799161 11.6130729 192.17136 12.0690938 192.54356 12.5251146 192.72966 13.124125 192.72966 13.866125 192.72966 14.9636667 192.310935 15.8022813 191.473486 16.3819688 190.636037 16.9616562 189.589225 17.2515 188.333051 17.2515 187.449077 17.2515 186.596119 17.1046458 185.774178 16.8109375 184.952237 16.5172292 184.262117 16.0998542 183.703817 15.5588125L184.331904 14.4458125C184.859187 14.9250208 185.483397 15.30375 186.204534 15.582 186.925671 15.86025 187.658439 15.999375 188.402838 15.999375 189.224779 15.999375 189.895514 15.8293333 190.415043 15.48925 190.934572 15.1491667 191.194336 14.6545 191.194336 14.00525 191.194336 13.5569583 191.062515 13.1898229 190.798874 12.9038437 190.535233 12.6178646 190.205681 12.3937187 189.810219 12.2314063 189.414756 12.0690938 188.868088 11.8797292 188.170214 11.6633125 187.348273 11.4159792 186.681415 11.176375 186.16964 10.9445 185.657866 10.712625 185.223633 10.3764062 184.866941 9.93584375 184.51025 9.49528125 184.331904 8.91945833 184.331904 8.208375 184.331904 7.14175 184.731243 6.33791667 185.529922 5.796875 186.3286 5.25583333 187.32501 4.9853125 188.519151 4.9853125 189.217025 4.9853125 189.891637 5.0780625 190.542987 5.2635625 191.194336 5.4490625 191.775898 5.704125 192.287673 6.02875L191.682848 7.2113125Z" transform="translate(62.27 17.576)"/><ellipse cx="26.586" cy="26.5" fill="#C6C6C6" rx="26.586" ry="26.5"/><ellipse cx="26.586" cy="26.5" fill="#414141" rx="21.269" ry="21.2"/><path fill="#4FACD8" d="M7.82275492 18.6576055C7.88744414 18.6540526 7.9344449 18.6296903 7.97538104 18.5789354 8.82998629 17.5080068 9.43442619 16.2360888 9.72350614 14.9002197L9.77909844 14.6215752C9.8619815 14.1723943 9.91150918 13.7115398 9.92565995 13.2562682 9.90847688 12.6959341 9.84126073 12.1457509 9.72502229 11.6077488 9.39298465 10.0729204 8.65916632 8.64670754 7.60240726 7.48391261L2.4651735 2.32416872C2.42221581 2.28102705 2.37774197 2.26224773 2.31760122 2.26224773 2.31659045 2.26224773 2.31507429 2.26224773 2.31406352 2.26224773 2.25240661 2.26326283 2.20742739 2.2825497 2.1644697 2.32772156 2.09674818 2.39928598 2.0305428 2.4718655 1.9653482 2.54546012 1.39780137 3.19258519.93739606 3.93868233.59727227 4.76344957-.546918309 7.53669771-.0233399342 10.637315 1.96332666 12.8563196 2.0598551 12.96392 2.16093201 13.0705053 2.2625143 13.1730302L7.66254802 18.596192C7.70853801 18.642379 7.75857108 18.6616659 7.82275492 18.6576055M20.9957038 20.9210206C19.7817702 19.7018877 18.2580358 18.8654468 16.5897615 18.5020417 16.0540539 18.3847979 15.506217 18.3172938 14.9619179 18.3005447L14.9467563 18.3005447C14.4029626 18.3172938 13.8551258 18.3847979 13.3194182 18.5015341 11.6506384 18.8654468 10.1269041 19.7018877 8.91347581 20.9210206L3.71711206 26.1396402C3.65395189 26.2030838 3.6372613 26.2868294 3.67112207 26.3695599 3.70548822 26.4522904 3.77624205 26.5 3.86569511 26.5L22.2136805 26.4994925C23.3624196 26.4994925 24.4545555 26.2665274 25.45926 25.806688 25.5264761 25.7757275 25.5653907 25.7249726 25.5785307 25.6518855 25.5916707 25.5787984 25.5729715 25.5178925 25.5204115 25.4651074L20.9957038 20.9210206ZM8.91342527 5.57897942C10.1273589 6.7981123 11.6510933 7.63455317 13.3193676 7.99846586 13.8555806 8.11520215 14.4039228 8.18270618 14.948222 8.19945529 15.5051557 8.18270618 16.0534979 8.11520215 16.5897109 7.99795831 18.2579853 7.63455317 19.7817196 6.7981123 20.9956533 5.57897942L26.192017.360359843C26.2550324.296916208 26.2718678.213170611 26.2375016.130440112 26.2036409.047709613 26.132887 0 26.043434 0L7.69544855.000507549074C6.54670951.000507549074 5.45457354.233472574 4.44986909.693819584 4.38265295.724272529 4.34323296.775027436 4.33009296.848114503 4.31745834.92120157 4.33615757.982107459 4.38821218 1.03438501L8.91342527 5.57897942ZM27.9458024 13.643985C27.8472524 13.5338468 27.7461755 13.4272615 27.6466148 13.3272743L22.2465811 7.90360494C22.2041288 7.86147837 22.1591495 7.8421915 22.1015357 7.8421915 22.0964819 7.8421915 22.091428 7.8421915 22.0863742 7.84269905 22.0216849 7.84625189 21.9746842 7.8701067 21.9342534 7.92086161 21.0791428 8.99179015 20.4741975 10.2637081 20.1856229 11.5995773L20.1300306 11.8782217C20.0471476 12.3268951 19.9976199 12.7877497 19.9834691 13.2435287 20.0001468 13.8038629 20.0678683 14.3545537 20.1841068 14.8920481 20.515639 16.4273841 21.2499628 17.8530894 22.3067218 19.0163919L27.4439556 24.1756283C27.487924 24.219785 27.533914 24.2365341 27.5955709 24.2375492 27.6572279 24.2370417 27.7017017 24.2172473 27.7446594 24.1720754 27.8123809 24.100511 27.8785863 24.028439 27.9432755 23.9543369 28.5113277 23.3072118 28.971733 22.5611147 29.3118568 21.7363474 30.455542 18.9630993 29.932469 15.862482 27.9458024 13.643985" transform="translate(11.631 13.25)"/></g></svg>