<svg xmlns="http://www.w3.org/2000/svg" width="185.636" height="64" viewBox="0 0 185.636 64"><g fill="none" fill-rule="evenodd"><path fill="#414141" fill-rule="nonzero" d="M12.992 4.396C12.1893333 3.892 11.312 3.50466667 10.36 3.234 9.408 2.96333333 8.512 2.828 7.672 2.828 6.328 2.828 5.25 3.094 4.438 3.626 3.626 4.158 3.22 4.88133333 3.22 5.796 3.22 6.59866667 3.444 7.252 3.892 7.756 4.34 8.26 4.89066667 8.65666667 5.544 8.946 6.19733333 9.23533333 7.09333333 9.55733333 8.232 9.912 9.55733333 10.304 10.626 10.6913333 11.438 11.074 12.25 11.4566667 12.9406667 12.012 13.51 12.74 14.0793333 13.468 14.364 14.4293333 14.364 15.624 14.364 16.6693333 14.07 17.5933333 13.482 18.396 12.894 19.1986667 12.068 19.8193333 11.004 20.258 9.94 20.6966667 8.71733333 20.916 7.336 20.916 5.97333333 20.916 4.64333333 20.6453333 3.346 20.104 2.04866667 19.5626667.933333333 18.844 0 17.948L.896 16.352C1.77333333 17.2106667 2.79066667 17.8826667 3.948 18.368 5.10533333 18.8533333 6.244 19.096 7.364 19.096 8.85733333 19.096 10.0426667 18.7926667 10.92 18.186 11.7973333 17.5793333 12.236 16.7626667 12.236 15.736 12.236 14.9146667 12.012 14.2426667 11.564 13.72 11.116 13.1973333 10.5653333 12.796 9.912 12.516 9.25866667 12.236 8.344 11.9093333 7.168 11.536 5.84266667 11.1253333 4.77866667 10.738 3.976 10.374 3.17333333 10.01 2.492 9.46866667 1.932 8.75 1.372 8.03133333 1.092 7.09333333 1.092 5.936 1.092 4.94666667 1.372 4.07866667 1.932 3.332 2.492 2.58533333 3.276 2.01133333 4.284 1.61 5.292 1.20866667 6.45866667 1.008 7.784 1.008 8.848 1.008 9.91666667 1.16666667 10.99 1.484 12.0633333 1.80133333 13.0106667 2.22133333 13.832 2.744L12.992 4.396ZM26.656 6.048C28.4106667 6.048 29.7873333 6.55666667 30.786 7.574 31.7846667 8.59133333 32.284 9.98666667 32.284 11.76L32.284 20.776 30.38 20.776 30.38 12.208C30.38 10.8266667 29.9973333 9.744 29.232 8.96 28.4666667 8.176 27.4026667 7.784 26.04 7.784 24.416 7.80266667 23.142 8.33933333 22.218 9.394 21.294 10.4486667 20.832 11.844 20.832 13.58L20.832 20.776 18.956 20.776 18.956 0 20.832 0 20.832 9.576C21.8213333 7.26133333 23.7626667 6.08533333 26.656 6.048ZM46.508 20.776 46.48 18.312C45.9013333 19.1706667 45.1453333 19.81 44.212 20.23 43.2786667 20.65 42.2053333 20.86 40.992 20.86 40.0026667 20.86 39.13 20.6686667 38.374 20.286 37.618 19.9033333 37.0346667 19.376 36.624 18.704 36.2133333 18.032 36.008 17.276 36.008 16.436 36.008 15.1666667 36.498 14.168 37.478 13.44 38.458 12.712 39.8066667 12.348 41.524 12.348L46.452 12.348 46.452 11.228C46.452 10.0706667 46.1066667 9.17466667 45.416 8.54 44.7253333 7.90533333 43.7173333 7.588 42.392 7.588 40.824 7.588 39.2466667 8.176 37.66 9.352L36.82 8.064C37.8093333 7.37333333 38.752 6.86466667 39.648 6.538 40.544 6.21133333 41.5706667 6.048 42.728 6.048 44.5013333 6.048 45.8733333 6.49133333 46.844 7.378 47.8146667 8.26466667 48.3093333 9.492 48.328 11.06L48.356 20.776 46.508 20.776ZM41.328 19.292C42.6346667 19.292 43.7406667 18.9886667 44.646 18.382 45.5513333 17.7753333 46.1626667 16.9213333 46.48 15.82L46.48 13.804 41.748 13.804C40.46 13.804 39.48 14.0186667 38.808 14.448 38.136 14.8773333 37.8 15.5213333 37.8 16.38 37.8 17.2573333 38.122 17.962 38.766 18.494 39.41 19.026 40.264 19.292 41.328 19.292ZM66.724 0 66.724 20.776 64.848 20.776 64.848 17.416C64.288 18.5173333 63.504 19.3713333 62.496 19.978 61.488 20.5846667 60.312 20.888 58.968 20.888 57.5866667 20.888 56.3546667 20.5706667 55.272 19.936 54.1893333 19.3013333 53.3493333 18.4146667 52.752 17.276 52.1546667 16.1373333 51.856 14.8493333 51.856 13.412 51.856 11.9746667 52.1593333 10.696 52.766 9.576 53.3726667 8.456 54.2126667 7.57866667 55.286 6.944 56.3593333 6.30933333 57.5773333 5.992 58.94 5.992 60.284 5.992 61.4646667 6.3 62.482 6.916 63.4993333 7.532 64.288 8.39066667 64.848 9.492L64.848 0 66.724 0ZM59.304 19.264C60.368 19.264 61.32 19.0166667 62.16 18.522 63 18.0273333 63.658 17.3413333 64.134 16.464 64.61 15.5866667 64.848 14.588 64.848 13.468 64.848 12.348 64.61 11.3446667 64.134 10.458 63.658 9.57133333 63 8.876 62.16 8.372 61.32 7.868 60.368 7.616 59.304 7.616 58.24 7.616 57.288 7.868 56.448 8.372 55.608 8.876 54.9453333 9.57133333 54.46 10.458 53.9746667 11.3446667 53.732 12.348 53.732 13.468 53.732 14.588 53.97 15.5866667 54.446 16.464 54.922 17.3413333 55.5846667 18.0273333 56.434 18.522 57.2833333 19.0166667 58.24 19.264 59.304 19.264ZM72.352 6.104 74.228 6.104 74.228 20.776 72.352 20.776 72.352 6.104ZM73.304.56C73.6773333.56 73.9853333.686 74.228.938 74.4706667 1.19 74.592 1.50266667 74.592 1.876 74.592 2.24933333 74.466 2.56666667 74.214 2.828 73.962 3.08933333 73.6586667 3.22 73.304 3.22 72.9306667 3.22 72.618 3.08933333 72.366 2.828 72.114 2.56666667 71.988 2.24933333 71.988 1.876 71.988 1.50266667 72.114 1.19 72.366.938 72.618.686 72.9306667.56 73.304.56ZM87.36 6.048C89.1146667 6.048 90.4913333 6.55666667 91.49 7.574 92.4886667 8.59133333 92.988 9.98666667 92.988 11.76L92.988 20.776 91.084 20.776 91.084 12.208C91.084 10.8266667 90.7013333 9.744 89.936 8.96 89.1706667 8.176 88.1066667 7.784 86.744 7.784 85.232 7.80266667 84.0233333 8.26933333 83.118 9.184 82.2126667 10.0986667 81.6946667 11.3306667 81.564 12.88L81.564 20.776 79.688 20.776 79.688 6.104 81.564 6.104 81.564 9.52C82.068 8.38133333 82.81 7.52266667 83.79 6.944 84.77 6.36533333 85.96 6.06666667 87.36 6.048ZM110.684 6.104 110.684 19.236C110.684 20.6546667 110.385333 21.896 109.788 22.96 109.190667 24.024 108.336667 24.8406667 107.226 25.41 106.115333 25.9793333 104.832 26.264 103.376 26.264 101.210667 26.264 99.204 25.5173333 97.356 24.024L98.252 22.68C98.9986667 23.3333333 99.7826667 23.828 100.604 24.164 101.425333 24.5 102.321333 24.668 103.292 24.668 104.972 24.668 106.311333 24.178 107.31 23.198 108.308667 22.218 108.808 20.9066667 108.808 19.264L108.808 16.884C108.285333 17.9106667 107.538667 18.7133333 106.568 19.292 105.597333 19.8706667 104.477333 20.16 103.208 20.16 101.901333 20.16 100.739333 19.8566667 99.722 19.25 98.7046667 18.6433333 97.9113333 17.8033333 97.342 16.73 96.7726667 15.6566667 96.488 14.4386667 96.488 13.076 96.488 11.7133333 96.7726667 10.5 97.342 9.436 97.9113333 8.372 98.7093333 7.54133333 99.736 6.944 100.762667 6.34666667 101.929333 6.048 103.236 6.048 104.505333 6.048 105.616 6.33266667 106.568 6.902 107.52 7.47133333 108.266667 8.27866667 108.808 9.324L108.808 6.104 110.684 6.104ZM103.544 18.648C104.552 18.648 105.457333 18.41 106.26 17.934 107.062667 17.458 107.688 16.8 108.136 15.96 108.584 15.12 108.808 14.1773333 108.808 13.132 108.808 12.068 108.584 11.116 108.136 10.276 107.688 9.436 107.062667 8.778 106.26 8.302 105.457333 7.826 104.552 7.588 103.544 7.588 102.536 7.588 101.630667 7.826 100.828 8.302 100.025333 8.778 99.3953333 9.436 98.938 10.276 98.4806667 11.116 98.252 12.068 98.252 13.132 98.252 14.196 98.4806667 15.1433333 98.938 15.974 99.3953333 16.8046667 100.020667 17.458 100.814 17.934 101.607333 18.41 102.517333 18.648 103.544 18.648ZM12.992 30.396C12.1893333 29.892 11.312 29.5046667 10.36 29.234 9.408 28.9633333 8.512 28.828 7.672 28.828 6.328 28.828 5.25 29.094 4.438 29.626 3.626 30.158 3.22 30.8813333 3.22 31.796 3.22 32.5986667 3.444 33.252 3.892 33.756 4.34 34.26 4.89066667 34.6566667 5.544 34.946 6.19733333 35.2353333 7.09333333 35.5573333 8.232 35.912 9.55733333 36.304 10.626 36.6913333 11.438 37.074 12.25 37.4566667 12.9406667 38.012 13.51 38.74 14.0793333 39.468 14.364 40.4293333 14.364 41.624 14.364 42.6693333 14.07 43.5933333 13.482 44.396 12.894 45.1986667 12.068 45.8193333 11.004 46.258 9.94 46.6966667 8.71733333 46.916 7.336 46.916 5.97333333 46.916 4.64333333 46.6453333 3.346 46.104 2.04866667 45.5626667.933333333 44.844 0 43.948L.896 42.352C1.77333333 43.2106667 2.79066667 43.8826667 3.948 44.368 5.10533333 44.8533333 6.244 45.096 7.364 45.096 8.85733333 45.096 10.0426667 44.7926667 10.92 44.186 11.7973333 43.5793333 12.236 42.7626667 12.236 41.736 12.236 40.9146667 12.012 40.2426667 11.564 39.72 11.116 39.1973333 10.5653333 38.796 9.912 38.516 9.25866667 38.236 8.344 37.9093333 7.168 37.536 5.84266667 37.1253333 4.77866667 36.738 3.976 36.374 3.17333333 36.01 2.492 35.4686667 1.932 34.75 1.372 34.0313333 1.092 33.0933333 1.092 31.936 1.092 30.9466667 1.372 30.0786667 1.932 29.332 2.492 28.5853333 3.276 28.0113333 4.284 27.61 5.292 27.2086667 6.45866667 27.008 7.784 27.008 8.848 27.008 9.91666667 27.1666667 10.99 27.484 12.0633333 27.8013333 13.0106667 28.2213333 13.832 28.744L12.992 30.396ZM23.184 48.876C22.736 49.996 22.1433333 50.8453333 21.406 51.424 20.6686667 52.0026667 19.824 52.292 18.872 52.292 17.7333333 52.292 16.7253333 51.956 15.848 51.284L16.688 49.828C17.3413333 50.276 18.0413333 50.5 18.788 50.5 19.3853333 50.5 19.9266667 50.304 20.412 49.912 20.8973333 49.52 21.2986667 48.9506667 21.616 48.204L22.232 46.692 16.156 32.104 18.144 32.104 23.184 44.704 28.028 32.104 29.96 32.104 23.184 48.876ZM40.152 34.708C39.592 34.3533333 38.9666667 34.078 38.276 33.882 37.5853333 33.686 36.904 33.588 36.232 33.588 35.2986667 33.588 34.5473333 33.77 33.978 34.134 33.4086667 34.498 33.124 35.044 33.124 35.772 33.124 36.276 33.278 36.6866667 33.586 37.004 33.894 37.3213333 34.2766667 37.578 34.734 37.774 35.1913333 37.97 35.8306667 38.1893333 36.652 38.432 37.66 38.7306667 38.4813333 39.0246667 39.116 39.314 39.7506667 39.6033333 40.292 40.0233333 40.74 40.574 41.188 41.1246667 41.412 41.848 41.412 42.744 41.412 44.0693333 40.908 45.082 39.9 45.782 38.892 46.482 37.632 46.832 36.12 46.832 35.056 46.832 34.0293333 46.6546667 33.04 46.3 32.0506667 45.9453333 31.22 45.4413333 30.548 44.788L31.304 43.444C31.9386667 44.0226667 32.69 44.48 33.558 44.816 34.426 45.152 35.308 45.32 36.204 45.32 37.1933333 45.32 38.0006667 45.1146667 38.626 44.704 39.2513333 44.2933333 39.564 43.696 39.564 42.912 39.564 42.3706667 39.4053333 41.9273333 39.088 41.582 38.7706667 41.2366667 38.374 40.966 37.898 40.77 37.422 40.574 36.764 40.3453333 35.924 40.084 34.9346667 39.7853333 34.132 39.496 33.516 39.216 32.9 38.936 32.3773333 38.53 31.948 37.998 31.5186667 37.466 31.304 36.7706667 31.304 35.912 31.304 34.624 31.7846667 33.6533333 32.746 33 33.7073333 32.3466667 34.9066667 32.02 36.344 32.02 37.184 32.02 37.996 32.132 38.78 32.356 39.564 32.58 40.264 32.888 40.88 33.28L40.152 34.708ZM52.528 45.768C51.52 46.4586667 50.4373333 46.8226667 49.28 46.86 48.16 46.86 47.2733333 46.5146667 46.62 45.824 45.9666667 45.1333333 45.64 44.0973333 45.64 42.716L45.64 33.98 43.54 33.98 43.512 32.524 45.64 32.524 45.64 28.744 47.516 28.744 47.516 32.524 52.276 32.496 52.276 33.98 47.516 33.98 47.516 42.408C47.516 44.2186667 48.188 45.124 49.532 45.124 50.2786667 45.124 51.0906667 44.8626667 51.968 44.34L52.528 45.768ZM61.404 32.048C63.6813333 32.048 65.4173333 32.7713333 66.612 34.218 67.8066667 35.6646667 68.3573333 37.6106667 68.264 40.056L56.028 40.056C56.1586667 41.624 56.7373333 42.8886667 57.764 43.85 58.7906667 44.8113333 60.06 45.292 61.572 45.292 62.5053333 45.292 63.3733333 45.124 64.176 44.788 64.9786667 44.452 65.6693333 43.976 66.248 43.36L67.312 44.424C66.6026667 45.1893333 65.7486667 45.782 64.75 46.202 63.7513333 46.622 62.6546667 46.832 61.46 46.832 60.0413333 46.832 58.7813333 46.5193333 57.68 45.894 56.5786667 45.2686667 55.7153333 44.396 55.09 43.276 54.4646667 42.156 54.152 40.8773333 54.152 39.44 54.152 38.0213333 54.4646667 36.7473333 55.09 35.618 55.7153333 34.4886667 56.5786667 33.6113333 57.68 32.986 58.7813333 32.3606667 60.0226667 32.048 61.404 32.048ZM66.584 38.6C66.4906667 37.0693333 65.982 35.8513333 65.058 34.946 64.134 34.0406667 62.9253333 33.588 61.432 33.588 59.9573333 33.588 58.7253333 34.0453333 57.736 34.96 56.7466667 35.8746667 56.1773333 37.088 56.028 38.6L66.584 38.6ZM90.916 32.048C92.652 32.048 94.0053333 32.552 94.976 33.56 95.9466667 34.568 96.432 35.968 96.432 37.76L96.432 46.776 94.528 46.776 94.528 38.208C94.528 36.808 94.15 35.7206667 93.394 34.946 92.638 34.1713333 91.5973333 33.784 90.272 33.784 88.704 33.8213333 87.4766667 34.3626667 86.59 35.408 85.7033333 36.4533333 85.26 37.8346667 85.26 39.552L85.26 46.776 83.356 46.776 83.356 38.208C83.356 36.808 82.978 35.7206667 82.222 34.946 81.466 34.1713333 80.4253333 33.784 79.1 33.784 77.532 33.8213333 76.3 34.3626667 75.404 35.408 74.508 36.4533333 74.06 37.8346667 74.06 39.552L74.06 46.776 72.184 46.776 72.184 32.104 74.06 32.104 74.06 35.548C74.5453333 34.3906667 75.2686667 33.5226667 76.23 32.944 77.1913333 32.3653333 78.3626667 32.0666667 79.744 32.048 81.144 32.048 82.306 32.3933333 83.23 33.084 84.154 33.7746667 84.7653333 34.7453333 85.064 35.996 85.512 34.6893333 86.2353333 33.7093333 87.234 33.056 88.2326667 32.4026667 89.46 32.0666667 90.916 32.048ZM109.032 34.708C108.472 34.3533333 107.846667 34.078 107.156 33.882 106.465333 33.686 105.784 33.588 105.112 33.588 104.178667 33.588 103.427333 33.77 102.858 34.134 102.288667 34.498 102.004 35.044 102.004 35.772 102.004 36.276 102.158 36.6866667 102.466 37.004 102.774 37.3213333 103.156667 37.578 103.614 37.774 104.071333 37.97 104.710667 38.1893333 105.532 38.432 106.54 38.7306667 107.361333 39.0246667 107.996 39.314 108.630667 39.6033333 109.172 40.0233333 109.62 40.574 110.068 41.1246667 110.292 41.848 110.292 42.744 110.292 44.0693333 109.788 45.082 108.78 45.782 107.772 46.482 106.512 46.832 105 46.832 103.936 46.832 102.909333 46.6546667 101.92 46.3 100.930667 45.9453333 100.1 45.4413333 99.428 44.788L100.184 43.444C100.818667 44.0226667 101.57 44.48 102.438 44.816 103.306 45.152 104.188 45.32 105.084 45.32 106.073333 45.32 106.880667 45.1146667 107.506 44.704 108.131333 44.2933333 108.444 43.696 108.444 42.912 108.444 42.3706667 108.285333 41.9273333 107.968 41.582 107.650667 41.2366667 107.254 40.966 106.778 40.77 106.302 40.574 105.644 40.3453333 104.804 40.084 103.814667 39.7853333 103.012 39.496 102.396 39.216 101.78 38.936 101.257333 38.53 100.828 37.998 100.398667 37.466 100.184 36.7706667 100.184 35.912 100.184 34.624 100.664667 33.6533333 101.626 33 102.587333 32.3466667 103.786667 32.02 105.224 32.02 106.064 32.02 106.876 32.132 107.66 32.356 108.444 32.58 109.144 32.888 109.76 33.28L109.032 34.708Z" transform="translate(74.952 7.224)"/><circle cx="32" cy="32" r="32" fill="#414141" opacity=".301"/><circle cx="32" cy="32" r="25.6" fill="#414141"/><path fill="#4FACD8" d="M9.4158973 22.5299387C9.4937608 22.5256485 9.55033349 22.4962298 9.59960649 22.4349408 10.6282563 21.1417441 11.3557933 19.6058431 11.7037458 17.9927181L11.7706598 17.6562418C11.8704224 17.1138346 11.9300366 16.557331 11.9470693 16.0075692 11.9263868 15.3309392 11.8454817 14.6665671 11.7055708 14.0169043 11.305912 12.1635266 10.422648 10.4413072 9.15067477 9.03717749L2.96721817 2.80654336C2.91551194 2.75444776 2.86198078 2.73177085 2.78959206 2.73177085 2.78837545 2.73177085 2.78655052 2.73177085 2.7853339 2.73177085 2.71112026 2.73299663 2.6569808 2.75628643 2.60527457 2.81083359 2.52376122 2.897251 2.4440728 2.98489419 2.36560099 3.07376316 1.68247047 3.85519721 1.12830136 4.7561447.718909696 5.75209005-.658300903 9.10091799-.0280932262 12.8450596 2.36316776 15.5246123 2.47935469 15.6545449 2.60101641 15.7832516 2.72328643 15.9070553L9.22306348 22.4557791C9.27841956 22.511552 9.33864211 22.5348418 9.4158973 22.5299387M25.2715818 25.2631192C23.8104246 23.7909587 21.9763743 22.7809169 19.9683477 22.3420881 19.3235406 22.2005106 18.6641341 22.1189963 18.0089858 22.098771L17.9907365 22.098771C17.3361965 22.1189963 16.67679 22.2005106 16.031983 22.3414752 14.0233481 22.7809169 12.1892977 23.7909587 10.7287489 25.2631192L4.47412015 31.5648485C4.39809711 31.6414597 4.3780074 31.7425864 4.41876407 31.8424874 4.46012905 31.9423884 4.54529225 32 4.65296287 32L26.7376055 31.9993871C28.1202908 31.9993871 29.4348456 31.7180709 30.6441631 31.162793 30.7250681 31.1254068 30.7719079 31.0641178 30.7877239 30.9758617 30.8035399 30.8876057 30.7810325 30.8140589 30.7177684 30.7503184L25.2715818 25.2631192ZM10.728688 6.73688081C12.1898452 8.20904127 14.0238955 9.21908308 16.0319221 9.65852481 16.6773375 9.79948939 17.3373523 9.88100368 17.9925006 9.90122903 18.6628567 9.88100368 19.3228715 9.79948939 19.9682869 9.65791192 21.9763135 9.21908308 23.8103638 8.20904127 25.271521 6.73688081L31.5261497.435151508C31.6019984.358540327 31.6222624.257413568 31.5808974.157512588 31.5401408.0576116081 31.4549776 0 31.347307 0L9.26266437.000612889448C7.879979.000612889448 6.56542418.281929146 5.35610675.837819876 5.27520171.874593243 5.22775364.935882187 5.21193761 1.02413827 5.1967299 1.11239435 5.21923732 1.18594108 5.2818931 1.2490687L10.728688 6.73688081ZM33.6371021 16.4757554C33.5184819 16.3427584 33.3968202 16.2140516 33.2769834 16.0933124L26.7772063 9.54397578C26.7261084 9.49310595 26.671969 9.46981615 26.6026218 9.46981615 26.5965387 9.46981615 26.5904556 9.46981615 26.5843725 9.47042904 26.506509 9.47471927 26.4499363 9.50352507 26.4012716 9.56481402 25.3720135 10.8580108 24.6438682 12.3939117 24.296524 14.0070367L24.2296101 14.343513C24.1298475 14.8853073 24.0702332 15.4418109 24.0532006 15.9921857 24.0732748 16.6688156 24.1547881 17.3338007 24.2946991 17.9828506 24.6937495 19.8368412 25.5776218 21.5584476 26.8495951 22.9631902L33.0330517 29.1932115C33.0859745 29.2465329 33.1413306 29.2667582 33.2155442 29.267984 33.2897579 29.2673711 33.343289 29.2434684 33.3949953 29.1889213 33.4765086 29.1025038 33.556197 29.0154735 33.6340605 28.9259917 34.3177994 28.1445576 34.8719685 27.2436101 35.2813601 26.2476648 36.6579624 22.8988369 36.0283631 19.1546952 33.6371021 16.4757554" transform="translate(14 16)"/></g></svg>