<svg xmlns="http://www.w3.org/2000/svg" width="307" height="64" viewBox="0 0 307 64"><g fill="none" fill-rule="evenodd"><path fill="#FFF" fill-rule="nonzero" d="M12.992 4.396C12.1893333 3.892 11.312 3.50466667 10.36 3.234 9.408 2.96333333 8.512 2.828 7.672 2.828 6.328 2.828 5.25 3.094 4.438 3.626 3.626 4.158 3.22 4.88133333 3.22 5.796 3.22 6.59866667 3.444 7.252 3.892 7.756 4.34 8.26 4.89066667 8.65666667 5.544 8.946 6.19733333 9.23533333 7.09333333 9.55733333 8.232 9.912 9.55733333 10.304 10.626 10.6913333 11.438 11.074 12.25 11.4566667 12.9406667 12.012 13.51 12.74 14.0793333 13.468 14.364 14.4293333 14.364 15.624 14.364 16.6693333 14.07 17.5933333 13.482 18.396 12.894 19.1986667 12.068 19.8193333 11.004 20.258 9.94 20.6966667 8.71733333 20.916 7.336 20.916 5.97333333 20.916 4.64333333 20.6453333 3.346 20.104 2.04866667 19.5626667.933333333 18.844 0 17.948L.896 16.352C1.77333333 17.2106667 2.79066667 17.8826667 3.948 18.368 5.10533333 18.8533333 6.244 19.096 7.364 19.096 8.85733333 19.096 10.0426667 18.7926667 10.92 18.186 11.7973333 17.5793333 12.236 16.7626667 12.236 15.736 12.236 14.9146667 12.012 14.2426667 11.564 13.72 11.116 13.1973333 10.5653333 12.796 9.912 12.516 9.25866667 12.236 8.344 11.9093333 7.168 11.536 5.84266667 11.1253333 4.77866667 10.738 3.976 10.374 3.17333333 10.01 2.492 9.46866667 1.932 8.75 1.372 8.03133333 1.092 7.09333333 1.092 5.936 1.092 4.94666667 1.372 4.07866667 1.932 3.332 2.492 2.58533333 3.276 2.01133333 4.284 1.61 5.292 1.20866667 6.45866667 1.008 7.784 1.008 8.848 1.008 9.91666667 1.16666667 10.99 1.484 12.0633333 1.80133333 13.0106667 2.22133333 13.832 2.744L12.992 4.396ZM26.656 6.048C28.4106667 6.048 29.7873333 6.55666667 30.786 7.574 31.7846667 8.59133333 32.284 9.98666667 32.284 11.76L32.284 20.776 30.38 20.776 30.38 12.208C30.38 10.8266667 29.9973333 9.744 29.232 8.96 28.4666667 8.176 27.4026667 7.784 26.04 7.784 24.416 7.80266667 23.142 8.33933333 22.218 9.394 21.294 10.4486667 20.832 11.844 20.832 13.58L20.832 20.776 18.956 20.776 18.956 0 20.832 0 20.832 9.576C21.8213333 7.26133333 23.7626667 6.08533333 26.656 6.048ZM46.508 20.776 46.48 18.312C45.9013333 19.1706667 45.1453333 19.81 44.212 20.23 43.2786667 20.65 42.2053333 20.86 40.992 20.86 40.0026667 20.86 39.13 20.6686667 38.374 20.286 37.618 19.9033333 37.0346667 19.376 36.624 18.704 36.2133333 18.032 36.008 17.276 36.008 16.436 36.008 15.1666667 36.498 14.168 37.478 13.44 38.458 12.712 39.8066667 12.348 41.524 12.348L46.452 12.348 46.452 11.228C46.452 10.0706667 46.1066667 9.17466667 45.416 8.54 44.7253333 7.90533333 43.7173333 7.588 42.392 7.588 40.824 7.588 39.2466667 8.176 37.66 9.352L36.82 8.064C37.8093333 7.37333333 38.752 6.86466667 39.648 6.538 40.544 6.21133333 41.5706667 6.048 42.728 6.048 44.5013333 6.048 45.8733333 6.49133333 46.844 7.378 47.8146667 8.26466667 48.3093333 9.492 48.328 11.06L48.356 20.776 46.508 20.776ZM41.328 19.292C42.6346667 19.292 43.7406667 18.9886667 44.646 18.382 45.5513333 17.7753333 46.1626667 16.9213333 46.48 15.82L46.48 13.804 41.748 13.804C40.46 13.804 39.48 14.0186667 38.808 14.448 38.136 14.8773333 37.8 15.5213333 37.8 16.38 37.8 17.2573333 38.122 17.962 38.766 18.494 39.41 19.026 40.264 19.292 41.328 19.292ZM66.724 0 66.724 20.776 64.848 20.776 64.848 17.416C64.288 18.5173333 63.504 19.3713333 62.496 19.978 61.488 20.5846667 60.312 20.888 58.968 20.888 57.5866667 20.888 56.3546667 20.5706667 55.272 19.936 54.1893333 19.3013333 53.3493333 18.4146667 52.752 17.276 52.1546667 16.1373333 51.856 14.8493333 51.856 13.412 51.856 11.9746667 52.1593333 10.696 52.766 9.576 53.3726667 8.456 54.2126667 7.57866667 55.286 6.944 56.3593333 6.30933333 57.5773333 5.992 58.94 5.992 60.284 5.992 61.4646667 6.3 62.482 6.916 63.4993333 7.532 64.288 8.39066667 64.848 9.492L64.848 0 66.724 0ZM59.304 19.264C60.368 19.264 61.32 19.0166667 62.16 18.522 63 18.0273333 63.658 17.3413333 64.134 16.464 64.61 15.5866667 64.848 14.588 64.848 13.468 64.848 12.348 64.61 11.3446667 64.134 10.458 63.658 9.57133333 63 8.876 62.16 8.372 61.32 7.868 60.368 7.616 59.304 7.616 58.24 7.616 57.288 7.868 56.448 8.372 55.608 8.876 54.9453333 9.57133333 54.46 10.458 53.9746667 11.3446667 53.732 12.348 53.732 13.468 53.732 14.588 53.97 15.5866667 54.446 16.464 54.922 17.3413333 55.5846667 18.0273333 56.434 18.522 57.2833333 19.0166667 58.24 19.264 59.304 19.264ZM72.352 6.104 74.228 6.104 74.228 20.776 72.352 20.776 72.352 6.104ZM73.304.56C73.6773333.56 73.9853333.686 74.228.938 74.4706667 1.19 74.592 1.50266667 74.592 1.876 74.592 2.24933333 74.466 2.56666667 74.214 2.828 73.962 3.08933333 73.6586667 3.22 73.304 3.22 72.9306667 3.22 72.618 3.08933333 72.366 2.828 72.114 2.56666667 71.988 2.24933333 71.988 1.876 71.988 1.50266667 72.114 1.19 72.366.938 72.618.686 72.9306667.56 73.304.56ZM87.36 6.048C89.1146667 6.048 90.4913333 6.55666667 91.49 7.574 92.4886667 8.59133333 92.988 9.98666667 92.988 11.76L92.988 20.776 91.084 20.776 91.084 12.208C91.084 10.8266667 90.7013333 9.744 89.936 8.96 89.1706667 8.176 88.1066667 7.784 86.744 7.784 85.232 7.80266667 84.0233333 8.26933333 83.118 9.184 82.2126667 10.0986667 81.6946667 11.3306667 81.564 12.88L81.564 20.776 79.688 20.776 79.688 6.104 81.564 6.104 81.564 9.52C82.068 8.38133333 82.81 7.52266667 83.79 6.944 84.77 6.36533333 85.96 6.06666667 87.36 6.048ZM110.684 6.104 110.684 19.236C110.684 20.6546667 110.385333 21.896 109.788 22.96 109.190667 24.024 108.336667 24.8406667 107.226 25.41 106.115333 25.9793333 104.832 26.264 103.376 26.264 101.210667 26.264 99.204 25.5173333 97.356 24.024L98.252 22.68C98.9986667 23.3333333 99.7826667 23.828 100.604 24.164 101.425333 24.5 102.321333 24.668 103.292 24.668 104.972 24.668 106.311333 24.178 107.31 23.198 108.308667 22.218 108.808 20.9066667 108.808 19.264L108.808 16.884C108.285333 17.9106667 107.538667 18.7133333 106.568 19.292 105.597333 19.8706667 104.477333 20.16 103.208 20.16 101.901333 20.16 100.739333 19.8566667 99.722 19.25 98.7046667 18.6433333 97.9113333 17.8033333 97.342 16.73 96.7726667 15.6566667 96.488 14.4386667 96.488 13.076 96.488 11.7133333 96.7726667 10.5 97.342 9.436 97.9113333 8.372 98.7093333 7.54133333 99.736 6.944 100.762667 6.34666667 101.929333 6.048 103.236 6.048 104.505333 6.048 105.616 6.33266667 106.568 6.902 107.52 7.47133333 108.266667 8.27866667 108.808 9.324L108.808 6.104 110.684 6.104ZM103.544 18.648C104.552 18.648 105.457333 18.41 106.26 17.934 107.062667 17.458 107.688 16.8 108.136 15.96 108.584 15.12 108.808 14.1773333 108.808 13.132 108.808 12.068 108.584 11.116 108.136 10.276 107.688 9.436 107.062667 8.778 106.26 8.302 105.457333 7.826 104.552 7.588 103.544 7.588 102.536 7.588 101.630667 7.826 100.828 8.302 100.025333 8.778 99.3953333 9.436 98.938 10.276 98.4806667 11.116 98.252 12.068 98.252 13.132 98.252 14.196 98.4806667 15.1433333 98.938 15.974 99.3953333 16.8046667 100.020667 17.458 100.814 17.934 101.607333 18.41 102.517333 18.648 103.544 18.648ZM134.68 4.396C133.877333 3.892 133 3.50466667 132.048 3.234 131.096 2.96333333 130.2 2.828 129.36 2.828 128.016 2.828 126.938 3.094 126.126 3.626 125.314 4.158 124.908 4.88133333 124.908 5.796 124.908 6.59866667 125.132 7.252 125.58 7.756 126.028 8.26 126.578667 8.65666667 127.232 8.946 127.885333 9.23533333 128.781333 9.55733333 129.92 9.912 131.245333 10.304 132.314 10.6913333 133.126 11.074 133.938 11.4566667 134.628667 12.012 135.198 12.74 135.767333 13.468 136.052 14.4293333 136.052 15.624 136.052 16.6693333 135.758 17.5933333 135.17 18.396 134.582 19.1986667 133.756 19.8193333 132.692 20.258 131.628 20.6966667 130.405333 20.916 129.024 20.916 127.661333 20.916 126.331333 20.6453333 125.034 20.104 123.736667 19.5626667 122.621333 18.844 121.688 17.948L122.584 16.352C123.461333 17.2106667 124.478667 17.8826667 125.636 18.368 126.793333 18.8533333 127.932 19.096 129.052 19.096 130.545333 19.096 131.730667 18.7926667 132.608 18.186 133.485333 17.5793333 133.924 16.7626667 133.924 15.736 133.924 14.9146667 133.7 14.2426667 133.252 13.72 132.804 13.1973333 132.253333 12.796 131.6 12.516 130.946667 12.236 130.032 11.9093333 128.856 11.536 127.530667 11.1253333 126.466667 10.738 125.664 10.374 124.861333 10.01 124.18 9.46866667 123.62 8.75 123.06 8.03133333 122.78 7.09333333 122.78 5.936 122.78 4.94666667 123.06 4.07866667 123.62 3.332 124.18 2.58533333 124.964 2.01133333 125.972 1.61 126.98 1.20866667 128.146667 1.008 129.472 1.008 130.536 1.008 131.604667 1.16666667 132.678 1.484 133.751333 1.80133333 134.698667 2.22133333 135.52 2.744L134.68 4.396ZM144.872 22.876C144.424 23.996 143.831333 24.8453333 143.094 25.424 142.356667 26.0026667 141.512 26.292 140.56 26.292 139.421333 26.292 138.413333 25.956 137.536 25.284L138.376 23.828C139.029333 24.276 139.729333 24.5 140.476 24.5 141.073333 24.5 141.614667 24.304 142.1 23.912 142.585333 23.52 142.986667 22.9506667 143.304 22.204L143.92 20.692 137.844 6.104 139.832 6.104 144.872 18.704 149.716 6.104 151.648 6.104 144.872 22.876ZM161.84 8.708C161.28 8.35333333 160.654667 8.078 159.964 7.882 159.273333 7.686 158.592 7.588 157.92 7.588 156.986667 7.588 156.235333 7.77 155.666 8.134 155.096667 8.498 154.812 9.044 154.812 9.772 154.812 10.276 154.966 10.6866667 155.274 11.004 155.582 11.3213333 155.964667 11.578 156.422 11.774 156.879333 11.97 157.518667 12.1893333 158.34 12.432 159.348 12.7306667 160.169333 13.0246667 160.804 13.314 161.438667 13.6033333 161.98 14.0233333 162.428 14.574 162.876 15.1246667 163.1 15.848 163.1 16.744 163.1 18.0693333 162.596 19.082 161.588 19.782 160.58 20.482 159.32 20.832 157.808 20.832 156.744 20.832 155.717333 20.6546667 154.728 20.3 153.738667 19.9453333 152.908 19.4413333 152.236 18.788L152.992 17.444C153.626667 18.0226667 154.378 18.48 155.246 18.816 156.114 19.152 156.996 19.32 157.892 19.32 158.881333 19.32 159.688667 19.1146667 160.314 18.704 160.939333 18.2933333 161.252 17.696 161.252 16.912 161.252 16.3706667 161.093333 15.9273333 160.776 15.582 160.458667 15.2366667 160.062 14.966 159.586 14.77 159.11 14.574 158.452 14.3453333 157.612 14.084 156.622667 13.7853333 155.82 13.496 155.204 13.216 154.588 12.936 154.065333 12.53 153.636 11.998 153.206667 11.466 152.992 10.7706667 152.992 9.912 152.992 8.624 153.472667 7.65333333 154.434 7 155.395333 6.34666667 156.594667 6.02 158.032 6.02 158.872 6.02 159.684 6.132 160.468 6.356 161.252 6.58 161.952 6.888 162.568 7.28L161.84 8.708ZM174.216 19.768C173.208 20.4586667 172.125333 20.8226667 170.968 20.86 169.848 20.86 168.961333 20.5146667 168.308 19.824 167.654667 19.1333333 167.328 18.0973333 167.328 16.716L167.328 7.98 165.228 7.98 165.2 6.524 167.328 6.524 167.328 2.744 169.204 2.744 169.204 6.524 173.964 6.496 173.964 7.98 169.204 7.98 169.204 16.408C169.204 18.2186667 169.876 19.124 171.22 19.124 171.966667 19.124 172.778667 18.8626667 173.656 18.34L174.216 19.768ZM183.092 6.048C185.369333 6.048 187.105333 6.77133333 188.3 8.218 189.494667 9.66466667 190.045333 11.6106667 189.952 14.056L177.716 14.056C177.846667 15.624 178.425333 16.8886667 179.452 17.85 180.478667 18.8113333 181.748 19.292 183.26 19.292 184.193333 19.292 185.061333 19.124 185.864 18.788 186.666667 18.452 187.357333 17.976 187.936 17.36L189 18.424C188.290667 19.1893333 187.436667 19.782 186.438 20.202 185.439333 20.622 184.342667 20.832 183.148 20.832 181.729333 20.832 180.469333 20.5193333 179.368 19.894 178.266667 19.2686667 177.403333 18.396 176.778 17.276 176.152667 16.156 175.84 14.8773333 175.84 13.44 175.84 12.0213333 176.152667 10.7473333 176.778 9.618 177.403333 8.48866667 178.266667 7.61133333 179.368 6.986 180.469333 6.36066667 181.710667 6.048 183.092 6.048ZM188.272 12.6C188.178667 11.0693333 187.67 9.85133333 186.746 8.946 185.822 8.04066667 184.613333 7.588 183.12 7.588 181.645333 7.588 180.413333 8.04533333 179.424 8.96 178.434667 9.87466667 177.865333 11.088 177.716 12.6L188.272 12.6ZM212.604 6.048C214.34 6.048 215.693333 6.552 216.664 7.56 217.634667 8.568 218.12 9.968 218.12 11.76L218.12 20.776 216.216 20.776 216.216 12.208C216.216 10.808 215.838 9.72066667 215.082 8.946 214.326 8.17133333 213.285333 7.784 211.96 7.784 210.392 7.82133333 209.164667 8.36266667 208.278 9.408 207.391333 10.4533333 206.948 11.8346667 206.948 13.552L206.948 20.776 205.044 20.776 205.044 12.208C205.044 10.808 204.666 9.72066667 203.91 8.946 203.154 8.17133333 202.113333 7.784 200.788 7.784 199.22 7.82133333 197.988 8.36266667 197.092 9.408 196.196 10.4533333 195.748 11.8346667 195.748 13.552L195.748 20.776 193.872 20.776 193.872 6.104 195.748 6.104 195.748 9.548C196.233333 8.39066667 196.956667 7.52266667 197.918 6.944 198.879333 6.36533333 200.050667 6.06666667 201.432 6.048 202.832 6.048 203.994 6.39333333 204.918 7.084 205.842 7.77466667 206.453333 8.74533333 206.752 9.996 207.2 8.68933333 207.923333 7.70933333 208.922 7.056 209.920667 6.40266667 211.148 6.06666667 212.604 6.048ZM230.72 8.708C230.16 8.35333333 229.534667 8.078 228.844 7.882 228.153333 7.686 227.472 7.588 226.8 7.588 225.866667 7.588 225.115333 7.77 224.546 8.134 223.976667 8.498 223.692 9.044 223.692 9.772 223.692 10.276 223.846 10.6866667 224.154 11.004 224.462 11.3213333 224.844667 11.578 225.302 11.774 225.759333 11.97 226.398667 12.1893333 227.22 12.432 228.228 12.7306667 229.049333 13.0246667 229.684 13.314 230.318667 13.6033333 230.86 14.0233333 231.308 14.574 231.756 15.1246667 231.98 15.848 231.98 16.744 231.98 18.0693333 231.476 19.082 230.468 19.782 229.46 20.482 228.2 20.832 226.688 20.832 225.624 20.832 224.597333 20.6546667 223.608 20.3 222.618667 19.9453333 221.788 19.4413333 221.116 18.788L221.872 17.444C222.506667 18.0226667 223.258 18.48 224.126 18.816 224.994 19.152 225.876 19.32 226.772 19.32 227.761333 19.32 228.568667 19.1146667 229.194 18.704 229.819333 18.2933333 230.132 17.696 230.132 16.912 230.132 16.3706667 229.973333 15.9273333 229.656 15.582 229.338667 15.2366667 228.942 14.966 228.466 14.77 227.99 14.574 227.332 14.3453333 226.492 14.084 225.502667 13.7853333 224.7 13.496 224.084 13.216 223.468 12.936 222.945333 12.53 222.516 11.998 222.086667 11.466 221.872 10.7706667 221.872 9.912 221.872 8.624 222.352667 7.65333333 223.314 7 224.275333 6.34666667 225.474667 6.02 226.912 6.02 227.752 6.02 228.564 6.132 229.348 6.356 230.132 6.58 230.832 6.888 231.448 7.28L230.72 8.708Z" transform="translate(74.952 21.224)"/><circle cx="32" cy="32" r="32" fill="#C6C6C6" opacity=".301"/><circle cx="32" cy="32" r="25.6" fill="#FFF"/><path fill="#4FACD8" d="M9.4158973 22.5299387C9.4937608 22.5256485 9.55033349 22.4962298 9.59960649 22.4349408 10.6282563 21.1417441 11.3557933 19.6058431 11.7037458 17.9927181L11.7706598 17.6562418C11.8704224 17.1138346 11.9300366 16.557331 11.9470693 16.0075692 11.9263868 15.3309392 11.8454817 14.6665671 11.7055708 14.0169043 11.305912 12.1635266 10.422648 10.4413072 9.15067477 9.03717749L2.96721817 2.80654336C2.91551194 2.75444776 2.86198078 2.73177085 2.78959206 2.73177085 2.78837545 2.73177085 2.78655052 2.73177085 2.7853339 2.73177085 2.71112026 2.73299663 2.6569808 2.75628643 2.60527457 2.81083359 2.52376122 2.897251 2.4440728 2.98489419 2.36560099 3.07376316 1.68247047 3.85519721 1.12830136 4.7561447.718909696 5.75209005-.658300903 9.10091799-.0280932262 12.8450596 2.36316776 15.5246123 2.47935469 15.6545449 2.60101641 15.7832516 2.72328643 15.9070553L9.22306348 22.4557791C9.27841956 22.511552 9.33864211 22.5348418 9.4158973 22.5299387M25.2715818 25.2631192C23.8104246 23.7909587 21.9763743 22.7809169 19.9683477 22.3420881 19.3235406 22.2005106 18.6641341 22.1189963 18.0089858 22.098771L17.9907365 22.098771C17.3361965 22.1189963 16.67679 22.2005106 16.031983 22.3414752 14.0233481 22.7809169 12.1892977 23.7909587 10.7287489 25.2631192L4.47412015 31.5648485C4.39809711 31.6414597 4.3780074 31.7425864 4.41876407 31.8424874 4.46012905 31.9423884 4.54529225 32 4.65296287 32L26.7376055 31.9993871C28.1202908 31.9993871 29.4348456 31.7180709 30.6441631 31.162793 30.7250681 31.1254068 30.7719079 31.0641178 30.7877239 30.9758617 30.8035399 30.8876057 30.7810325 30.8140589 30.7177684 30.7503184L25.2715818 25.2631192ZM10.728688 6.73688081C12.1898452 8.20904127 14.0238955 9.21908308 16.0319221 9.65852481 16.6773375 9.79948939 17.3373523 9.88100368 17.9925006 9.90122903 18.6628567 9.88100368 19.3228715 9.79948939 19.9682869 9.65791192 21.9763135 9.21908308 23.8103638 8.20904127 25.271521 6.73688081L31.5261497.435151508C31.6019984.358540327 31.6222624.257413568 31.5808974.157512588 31.5401408.0576116081 31.4549776 0 31.347307 0L9.26266437.000612889448C7.879979.000612889448 6.56542418.281929146 5.35610675.837819876 5.27520171.874593243 5.22775364.935882187 5.21193761 1.02413827 5.1967299 1.11239435 5.21923732 1.18594108 5.2818931 1.2490687L10.728688 6.73688081ZM33.6371021 16.4757554C33.5184819 16.3427584 33.3968202 16.2140516 33.2769834 16.0933124L26.7772063 9.54397578C26.7261084 9.49310595 26.671969 9.46981615 26.6026218 9.46981615 26.5965387 9.46981615 26.5904556 9.46981615 26.5843725 9.47042904 26.506509 9.47471927 26.4499363 9.50352507 26.4012716 9.56481402 25.3720135 10.8580108 24.6438682 12.3939117 24.296524 14.0070367L24.2296101 14.343513C24.1298475 14.8853073 24.0702332 15.4418109 24.0532006 15.9921857 24.0732748 16.6688156 24.1547881 17.3338007 24.2946991 17.9828506 24.6937495 19.8368412 25.5776218 21.5584476 26.8495951 22.9631902L33.0330517 29.1932115C33.0859745 29.2465329 33.1413306 29.2667582 33.2155442 29.267984 33.2897579 29.2673711 33.343289 29.2434684 33.3949953 29.1889213 33.4765086 29.1025038 33.556197 29.0154735 33.6340605 28.9259917 34.3177994 28.1445576 34.8719685 27.2436101 35.2813601 26.2476648 36.6579624 22.8988369 36.0283631 19.1546952 33.6371021 16.4757554" transform="translate(14 16)"/></g></svg>