<svg xmlns="http://www.w3.org/2000/svg" width="450" height="101" viewBox="0 0 450 101"><g fill="#19A4DB" fill-rule="evenodd"><g opacity=".303" transform="translate(0 12)"><rect width="9" height="20.967" y="85.666" rx="4.5"/><rect width="9" height="38.939" x="10.5" y="76.68" rx="4.5"/><rect width="9" height="29.654" x="21" y="81.173" rx="4.5"/><rect width="9" height="93.454" x="31.5" y="49.423" rx="4.5"/><rect width="9" height="68.593" x="42" y="61.704" rx="4.5"/><rect width="9" height="38.939" x="52.5" y="76.68" rx="4.5"/><rect width="9" height="68.593" x="63" y="61.704" rx="4.5"/><rect width="9" height="132.094" x="73.5" y="29.953" rx="4.5"/><rect width="9" height="104.537" x="84" y="43.732" rx="4.5"/><rect width="9" height="45.529" x="94.5" y="73.385" rx="4.5"/><rect width="9" height="154.858" x="105" y="18.571" rx="4.5"/><rect width="9" height="180.019" x="115.5" y="5.991" rx="4.5"/><rect width="9" height="93.454" x="126" y="49.423" rx="4.5"/><rect width="9" height="59.906" x="136.5" y="66.197" rx="4.5"/><rect width="9" height="93.454" x="147" y="49.423" rx="4.5"/><rect width="9" height="122.509" x="157.5" y="34.746" rx="4.5"/><rect width="9" height="99.744" x="168" y="46.128" rx="4.5"/><rect width="9" height="80.275" x="178.5" y="56.012" rx="4.5"/><rect width="9" height="38.939" x="189" y="76.68" rx="4.5"/><rect width="9" height="99.145" x="199.5" y="46.427" rx="4.5"/><rect width="9" height="162.346" x="210" y="14.977" rx="4.5"/><rect width="9" height="142.278" x="220.5" y="24.861" rx="4.5"/><rect width="9" height="192" x="231" rx="4.5"/><rect width="9" height="80.275" x="241.5" y="56.012" rx="4.5"/><rect width="9" height="132.094" x="252" y="29.953" rx="4.5"/><rect width="9" height="67.994" x="262.5" y="62.003" rx="4.5"/><rect width="9" height="180.019" x="273" y="5.991" rx="4.5"/><rect width="9" height="142.278" x="283.5" y="24.861" rx="4.5"/><rect width="9" height="80.275" x="294" y="56.012" rx="4.5"/><rect width="9" height="93.754" x="304.5" y="49.123" rx="4.5"/><rect width="9" height="67.994" x="315" y="62.003" rx="4.5"/><rect width="9" height="121.61" x="325.5" y="35.345" rx="4.5"/><rect width="9" height="59.607" x="336" y="66.197" rx="4.5"/><rect width="9" height="105.136" x="346.5" y="43.432" rx="4.5"/><rect width="9" height="138.983" x="357" y="26.658" rx="4.5"/><rect width="9" height="93.754" x="367.5" y="49.123" rx="4.5"/><rect width="9" height="80.275" x="378" y="56.012" rx="4.5"/><rect width="9" height="38.64" x="388.5" y="76.68" rx="4.5"/><rect width="9" height="50.321" x="399" y="70.989" rx="4.5"/><rect width="9" height="80.275" x="409.5" y="56.012" rx="4.5"/><rect width="9" height="38.64" x="420" y="76.68" rx="4.5"/><rect width="9" height="50.321" x="430.5" y="70.989" rx="4.5"/><rect width="9" height="27.257" x="441" y="82.371" rx="4.5"/></g><g opacity=".398"><rect width="9" height="20.967" y="85.666" rx="4.5"/><rect width="9" height="38.939" x="10.5" y="76.68" rx="4.5"/><rect width="9" height="29.654" x="21" y="81.173" rx="4.5"/><rect width="9" height="93.454" x="31.5" y="49.423" rx="4.5"/><rect width="9" height="68.593" x="42" y="61.704" rx="4.5"/><rect width="9" height="38.939" x="52.5" y="76.68" rx="4.5"/><rect width="9" height="68.593" x="63" y="61.704" rx="4.5"/><rect width="9" height="132.094" x="73.5" y="29.953" rx="4.5"/><rect width="9" height="104.537" x="84" y="43.732" rx="4.5"/><rect width="9" height="45.529" x="94.5" y="73.385" rx="4.5"/><rect width="9" height="154.858" x="105" y="18.571" rx="4.5"/><rect width="9" height="180.019" x="115.5" y="5.991" rx="4.5"/><rect width="9" height="93.454" x="126" y="49.423" rx="4.5"/><rect width="9" height="59.906" x="136.5" y="66.197" rx="4.5"/><rect width="9" height="93.454" x="147" y="49.423" rx="4.5"/><rect width="9" height="122.509" x="157.5" y="34.746" rx="4.5"/><rect width="9" height="99.744" x="168" y="46.128" rx="4.5"/><rect width="9" height="80.275" x="178.5" y="56.012" rx="4.5"/><rect width="9" height="38.939" x="189" y="76.68" rx="4.5"/><rect width="9" height="99.145" x="199.5" y="46.427" rx="4.5"/><rect width="9" height="162.346" x="210" y="14.977" rx="4.5"/><rect width="9" height="142.278" x="220.5" y="24.861" rx="4.5"/><rect width="9" height="192" x="231" rx="4.5"/><rect width="9" height="80.275" x="241.5" y="56.012" rx="4.5"/><rect width="9" height="132.094" x="252" y="29.953" rx="4.5"/><rect width="9" height="67.994" x="262.5" y="62.003" rx="4.5"/><rect width="9" height="180.019" x="273" y="5.991" rx="4.5"/><rect width="9" height="142.278" x="283.5" y="24.861" rx="4.5"/><rect width="9" height="80.275" x="294" y="56.012" rx="4.5"/><rect width="9" height="93.754" x="304.5" y="49.123" rx="4.5"/><rect width="9" height="67.994" x="315" y="62.003" rx="4.5"/><rect width="9" height="121.61" x="325.5" y="35.345" rx="4.5"/><rect width="9" height="59.607" x="336" y="66.197" rx="4.5"/><rect width="9" height="105.136" x="346.5" y="43.432" rx="4.5"/><rect width="9" height="138.983" x="357" y="26.658" rx="4.5"/><rect width="9" height="93.754" x="367.5" y="49.123" rx="4.5"/><rect width="9" height="80.275" x="378" y="56.012" rx="4.5"/><rect width="9" height="38.64" x="388.5" y="76.68" rx="4.5"/><rect width="9" height="50.321" x="399" y="70.989" rx="4.5"/><rect width="9" height="80.275" x="409.5" y="56.012" rx="4.5"/><rect width="9" height="38.64" x="420" y="76.68" rx="4.5"/><rect width="9" height="50.321" x="430.5" y="70.989" rx="4.5"/><rect width="9" height="27.257" x="441" y="82.371" rx="4.5"/></g></g></svg>