<?xml version="1.0" encoding="UTF-8"?><svg id="Layer_1" xmlns="http://www.w3.org/2000/svg" viewBox="0 0 158.57 158.94"><defs><style>.cls-1{fill:#fff;}</style></defs><path class="cls-1" d="M79.29,154.47c-41.36,0-75-33.64-75-75S37.93,4.47,79.29,4.47s75,33.64,75,75-33.64,75-75,75ZM79.29,6.27C38.92,6.27,6.08,39.11,6.08,79.47s32.84,73.2,73.21,73.2,73.2-32.84,73.2-73.2S119.65,6.27,79.29,6.27Z"/><path class="cls-1" d="M111.22,48.07h-63.87c-6.31,0-11.43,5.12-11.43,11.42v39.95c0,6.31,5.12,11.42,11.43,11.42h63.87c6.31,0,11.42-5.11,11.42-11.42v-39.95c0-6.31-5.12-11.42-11.42-11.42ZM89.55,82.23l-17.76,8.88c-2.05,1.03-4.46-.46-4.46-2.75v-17.75c0-2.29,2.41-3.78,4.46-2.76l17.76,8.88c2.27,1.13,2.27,4.37,0,5.51Z"/></svg>